/* XPM */
static char *_c98d6d571f349a0d52129effb97a93fC1y1FsPSRcTf9XAQ[] = {
/* columns rows colors chars-per-pixel */
"65 65 185 2 ",
"   c #4D2C1E",
".  c #522E1E",
"X  c #55311E",
"o  c #59321F",
"O  c #4E2C20",
"+  c #563220",
"@  c #5C3421",
"#  c #623722",
"$  c #643A24",
"%  c #6A3D25",
"&  c #653C2A",
"*  c #6D3F29",
"=  c #713F28",
"-  c #6F4026",
";  c #6E412A",
":  c #714327",
">  c #74442C",
",  c #79472C",
"<  c #77482D",
"1  c #7B4A2E",
"2  c #764630",
"3  c #794730",
"4  c #764831",
"5  c #7D4B32",
"6  c #7F5036",
"7  c #824D2E",
"8  c #894F2F",
"9  c #8C512F",
"0  c #854E32",
"q  c #804D34",
"w  c #804E34",
"e  c #814F34",
"r  c #804E35",
"t  c #814E35",
"y  c #804F35",
"u  c #824E34",
"i  c #824F35",
"p  c #814F36",
"a  c #834F36",
"s  c #844E34",
"d  c #844F34",
"f  c #854F34",
"g  c #844E35",
"h  c #844F36",
"j  c #824E32",
"k  c #8A4F32",
"l  c #865031",
"z  c #855132",
"x  c #865132",
"c  c #865033",
"v  c #875033",
"b  c #875133",
"n  c #865233",
"m  c #805137",
"M  c #835036",
"N  c #815237",
"B  c #855035",
"V  c #855135",
"C  c #875134",
"Z  c #875135",
"A  c #875235",
"S  c #865234",
"D  c #875136",
"F  c #875236",
"G  c #865134",
"H  c #885132",
"J  c #885133",
"K  c #895133",
"L  c #895233",
"P  c #8B5333",
"I  c #8A5433",
"U  c #885134",
"Y  c #895134",
"T  c #885035",
"R  c #8B5134",
"E  c #885234",
"W  c #895234",
"Q  c #885235",
"!  c #885334",
"~  c #8A5234",
"^  c #8B5234",
"/  c #8A5334",
"(  c #8B5334",
")  c #8B5335",
"_  c #8A5235",
"`  c #895136",
"'  c #895337",
"]  c #895337",
"[  c #8A5336",
"{  c #8B5336",
"}  c #8C5335",
"|  c #8D5336",
" . c #8A5435",
".. c #8B5435",
"X. c #8B5536",
"o. c #8C5434",
"O. c #8D5535",
"+. c #8E5534",
"@. c #8E5435",
"#. c #8D5536",
"$. c #8C5537",
"%. c #8D5436",
"&. c #8F5537",
"*. c #8E5536",
"=. c #8D5636",
"-. c #8E5636",
";. c #8E5637",
":. c #8B5335",
">. c #8D5935",
",. c #855239",
"<. c #895338",
"1. c #8B5339",
"2. c #895439",
"3. c #8C5538",
"4. c #8D5538",
"5. c #8D5738",
"6. c #8F5638",
"7. c #8E5639",
"8. c #8E5739",
"9. c #8F5738",
"0. c #8C543A",
"q. c #8D5639",
"w. c #8E593B",
"e. c #905636",
"r. c #905737",
"t. c #915636",
"y. c #945937",
"u. c #9A5B37",
"i. c #905738",
"p. c #915738",
"a. c #905839",
"s. c #915A39",
"d. c #92593A",
"f. c #935B3A",
"g. c #955A39",
"h. c #975B39",
"j. c #965B3A",
"k. c #955D3B",
"l. c #965D3C",
"z. c #965E3D",
"x. c #945A39",
"c. c #995D3B",
"v. c #985D3B",
"b. c #9A5D3B",
"n. c #9A5D3A",
"m. c #995E3A",
"M. c #985D3C",
"N. c #995D3C",
"B. c #995E3D",
"V. c #9A5E3C",
"C. c #9B5D3A",
"Z. c #A05F39",
"A. c #96613B",
"S. c #9D613D",
"D. c #9F683F",
"F. c #A3633D",
"G. c #AA663E",
"H. c #A5693F",
"J. c #AC693F",
"K. c #B46D3F",
"L. c #935B40",
"P. c #976041",
"I. c #9E6540",
"U. c #9F6A40",
"Y. c #A46540",
"T. c #AA6740",
"R. c #A56A42",
"E. c #AC6A42",
"W. c #A66E48",
"Q. c #B36D43",
"!. c #B86F43",
"~. c #A77047",
"^. c #AD7145",
"/. c #AC7348",
"(. c #B57245",
"). c #BA7245",
"_. c #B47449",
"`. c #B97548",
"'. c #B77B4D",
"]. c #BC7B4B",
"[. c #BB7F50",
"{. c #C17546",
"}. c #BE814E",
"|. c #C2834E",
" X c #C48452",
/* pixels */
"+.+.+.[ [ B B M r r j 5 5 1 1 5 5 5 1 5 1 1 5 r 5 6 6 M M 6 6 5 1 1 1 1 1 1 1 , , 1 1 1 , , , > , , > > > > > > > > > ; ; ; ; ; ; ",
"2 4 3 3 5 5 j j j 0 b [ [ +.+.+.i.i.f.f.f.f.g.g.j.j.l.l.M.M.v.v.v.M.M.v.v.v.v.v.v.v.M.M.M.M.v.g.g.g.f.f.f.f.q.q.q.q.<.<.[ B B B r ",
"3 4 3 5 5 r r r r g g B B B [ [ [ [ K [ +.+.q.q.q.q.q.q.q.q.q.q.r.r.r.q.q.q.=.=.[ b 0 j j j j 5 5 5 5 5 1 1 < , , , , , , , > > 2 ",
"> > > > > , , , < 1 1 1 1 5 5 5 5 5 j j g g 0 0 K K +.+.+.+.[ K [ [ [ 0 0 0 0 b b B [ [ [ [ [ K [ [ b g 0 j j j q 5 5 5 1 3 3 3 4 ",
"3 3 5 5 5 q j j 0 0 0 0 0 K K [ [ [ [ [ =.q.q.q.=.B 0 0 0 K +.q.q.f.r.+.+.+.+.+.+.q.+.[ [ [ [ [ [ 2.<.B 0 j 5 5 5 3 1 , , > > > > ",
"3 3 3 3 3 5 5 r r j r j r j j j j j 0 B b b b [ [ [ [ [ [ [ [ [ [ [ } +.+.=.=.=.[ [ } [ } [ B 0 j j 5 1 j j j j B B B g j r 5 5 5 ",
"< 3 3 5 5 5 5 < < > , < 5 0 [ } +.i.f.f.i.f.f.f.g.g.g.g.v.v.v.v.M.M.v.g.f.i.+.+.q.+.+.} } } [ K 0 0 j j j q j j 5 5 5 5 1 3 5 5 5 ",
"5 r r M B 0 0 M M B ! =.>.f.y.r.k.g.g.g.g.g.y.y.y.u.g.g.g.f.+.K K +.+.+.+.q.i.r.i.i.i.+.+.+.+.+.+.+.} } [ +.B 5 j r j j 5 3 4 2 > ",
"3 3 5 5 5 j j j b K [ =.=.=.=.q.q.+.+.+.+.+.[ K b K +.+.r.f.g.g.g.j.j.v.v.v.v.V.V.v.M.v.j.v.g.g.g.g.i.i.i.r.+.+.=.=.[ [ B B j j 5 ",
"r r g B B B [ B [ [ [ =.=.q.w.q.i.i.f.f.f.f.g.v.v.v.C.v.C.v.v.C.v.v.v.v.u.v.g.g.j.j.g.y.r.r.i.i.+.+.+.=.[ [ K b b 0 0 j j j 5 5 5 ",
"* ; ; ; > ; ; > > > , , , , , , < < < 1 1 5 1 1 1 1 1 1 1 1 1 1 1 1 1 1 1 1 1 1 , 1 1 1 > > > > > > * * * % % $ $ $ # @ @ @ o X . ",
"B B B [ =.=.=.=.=.5.w.w.w.w.w.f.f.f.f.f.f.f.j.j.j.j.j.A.A.j.j.v.j.v.j.j.M.v.j.j.j.j.j.j.f.f.f.f.>.>.q.+.=.2.=.[ B b b M j j 5 5 3 ",
"q.w.f.f.f.f.k.l.P.S.S.S.S.S.S.S.F.F.F.F.F.F.F.F.F.F.F.F.F.Y.Y.Y.F.F.F.F.F.F.F.F.F.F.S.C.S.S.S.C.v.h.y.y.+.+.>.y.y.f.f.f.q.q.q.q.w.",
"j j 0 B j 5 [ =.<.[ } +.+.i.i.i.i.r.r.r.r.y.f.f.i.g.f.y.y.y.r.r.+.r.r.r.r.+.r.r.+.+.+.+.[ K [ =.K K +.+.+.+.[ 0 q j j j 5 5 5 5 3 ",
"j r j j 0 =.+.B [ [ =.+.+.+.+.y.y.f.f.g.u.v.C.F.F.Y.F.F.Y.Y.Y.Y.Y.T.T.F.F.F.F.F.F.F.F.F.F.F.S.S.S.C.v.j.g.g.g.g.f.w.+.[ =.=.2.B B ",
"1 5 j j 0 b [ [ q.+.+.+.+.+.y.y.y.g.g.g.g.g.u.v.v.v.v.v.v.v.C.C.C.C.V.v.v.v.C.v.u.u.y.y.y.g.f.i.r.r.+.+.+.+.[ [ [ K b b 0 0 j j 5 ",
"j 0 0 j j b 0 b [ +.y.f.f.y.u.u.u.v.v.v.C.V.S.S.F.F.F.F.F.F.F.F.F.F.F.F.F.F.F.F.F.F.F.F.S.v.v.v.v.j.g.g.g.f.i.q.q.+.=.=.[ [ B B r ",
"B =.[ K [ [ } } r.r.f.g.g.g.u.v.v.V.S.S.Y.Y.Y.Y.F.F.F.F.V.C.C.C.v.v.S.F.Y.Y.F.F.F.F.F.F.S.S.C.C.C.u.M.S.l.k.f.f.L.w.q.q.2.[ B B B ",
"! 2.2.w.B [ [ } +.q.q.r.f.f.f.g.y.u.v.v.C.C.C.C.F.F.F.F.F.G.T.T.T.E.Y.F.F.F.F.F.S.V.v.v.v.v.v.j.j.g.l.j.l.P.l.k.f.f.f.q.[ [ [ b b ",
"4 4 5 5 5 5 r g g k K P P e.r.r.y.y.g.g.u.u.v.C.v.u.C.u.C.C.C.C.C.C.y.y.y.u.u.u.u.u.u.y.y.y.r.r.e.P P K [ ! b b j j 5 1 < , , > ; ",
". . X X o + @ @ @ @ # # # $ $ $ % % - > > < 1 7 j b b =.+.w.f.A.A.S.S.I.U.D.D.D.U.U.U.U.Y.Y.Y.Y.I.I.S.S.S.I.S.S.A.A.j.k.w.w.X.=.M ",
"1 5 M B =.w.w.f.k.l.S.S.S.I.Y.Y.H.R.R.E.E.E.E.E.E.E.E.J.E.E.Q.Q.Q.Q.Q.Q.Q.Q.Q.Q.Q.Q.E.E.Q.E.E.E.E.Y.Y.Y.Y.F.F.S.S.S.M.M.j.g.f.f.i.",
"+.+.q.i.f.k.M.v.v.C.V.S.F.F.Y.Y.Y.Y.Y.F.F.F.G.G.F.F.G.G.G.G.G.G.G.G.G.G.G.G.F.F.F.F.F.F.F.F.C.S.F.V.S.F.V.C.v.v.u.g.g.f.i.q.q.[ =.",
"[ [ [ [ [ } q.f.i.r.y.g.g.y.y.u.g.u.C.C.S.S.S.S.F.F.F.F.F.F.F.F.F.F.F.F.F.F.F.F.Z.C.V.V.V.V.M.V.v.u.y.y.y.r.r.r.r.r.r.+.+.+.=.0 j ",
"0 B [ [ +.+.+.f.f.g.g.g.u.v.u.u.C.Z.F.F.T.E.Q.Q.Q.Q.!.!.!.(.(.(.(.(.(.(.!.Q.Q.Q.Q.Q.Q.E.E.E.E.Y.F.C.C.u.y.y.r.r.K 7 , > = > 1 B B ",
"[ +.+.i.f.y.g.g.g.j.M.v.v.V.F.F.F.F.F.Y.T.E.E.E.E.E.Q.Q.!.!.!.!.!.!.!.!.Q.Q.Q.Q.E.E.E.T.E.T.F.F.F.F.F.F.F.F.S.S.S.S.I.S.S.S.I.l.q.",
"B B [ [ K K K +.r.r.g.j.j.u.u.v.u.u.u.v.u.C.S.F.F.F.G.G.G.G.G.E.E.E.G.G.G.G.G.F.F.F.F.F.C.v.v.C.F.F.S.C.C.v.v.v.v.v.v.M.l.k.f.q.[ ",
"0 B [ +.+.+.+.y.f.g.g.g.M.V.V.C.F.F.F.F.F.G.G.G.J.E.E.E.E.E.J.G.G.J.J.J.J.J.E.J.E.E.Q.E.E.T.F.F.C.v.v.v.g.y.r.g.g.f.+.+.+.} } +.+.",
"[ +.+.q.i.i.y.f.g.g.j.v.V.S.Y.F.F.F.F.F.F.F.F.F.G.J.J.E.Q.K.Q.Q.!.!.Q.Q.J.J.G.T.G.F.F.F.F.F.S.S.S.C.C.v.u.y.r.+.+.+.+.+.[ [ B B 0 ",
"* * * ; > > > > > > > < < 1 1 j b 0 8 k P t.e.y.u.v.Z.F.G.E.Q.Q.!.!.!.!.!.Q.(.Q.Q.Q.E.J.G.G.F.F.F.F.F.V.C.v.u.y.y.f.r.+.+.[ B j j ",
"$ % % ; ; ; > > > , , < 1 1 1 1 1 5 5 5 1 7 7 7 7 7 7 7 7 0 b K K b K K =.=.K K K K K K 9 9 P P r.r.r.r.r.r.r.r.r.r.r.r.r.i.r.q.q.",
"S.I.Y.Y.Y.Y.Y.R.J.E.E.E.E.^._._._._._.'.'.].].].].|.|.|.|.|.|. X X|.}.[.'._./.^.R.Y.S.v.g.>.+.[ b M j 5 5 5 1 1 < , > * % % % % % ",
"[ +.+.f.i.f.g.g.v.v.V.C.S.F.F.F.F.F.G.J.E.Q.Q.!.!.!.!.).).).{.{.{.{.{.).).).).).`.`.).).`._._._._._._._.^.E.E.H.F.S.v.f.>.I ! M 5 ",
"+.r.r.f.g.g.g.v.v.M.S.S.F.F.F.F.G.G.G.F.E.E.J.J.J.J.J.J.E.Q.Q.K.!.!.(.).).).!.!.!.Q.Q.J.J.G.G.F.F.F.F.F.Z.C.C.u.j.j.j.M.S.S.I.I.M.",
"[ [ [ +.+.q.q.+.r.y.r.y.y.y.y.y.y.u.v.S.F.F.J.E.E.Q.Q.!.).).).).).(.!.J.F.G.G.G.J.G.F.F.F.F.C.C.v.u.y.y.r.+.r.r.y.+.+.+.K j 7 j j ",
"j b [ } +.r.g.g.j.v.v.S.F.F.F.F.F.G.G.G.J.G.G.E.Y.F.F.F.F.F.G.J.Q.(.).).).(.Q.Q.Q.E.E.E.E.E.T.T.Y.F.F.F.F.F.F.V.C.v.v.g.g.g.r.r.q.",
"+.+.i.f.f.g.u.v.v.C.S.F.F.F.F.F.F.E.T.T.E.F.R.W.W.W.W.~./.^.^._._._.`.].).).).(.Q.Q.Q.Q.J.E.G.G.F.F.F.V.C.v.u.y.y.i.+.+.+.+.[ [ b ",
"0 b b [ [ [ =.+.+.r.y.y.g.g.v.v.v.C.C.F.F.F.T.E.E._._.(.(._.(.`.).(.!.Q.J.G.G.G.F.F.F.F.S.C.C.v.u.u.u.y.g.g.y.y.f.f.r.q.q.2.=.[ B ",
"[ [ +.r.r.y.y.y.g.v.v.v.S.V.F.F.F.F.F.Y.T.T.E.E.E.E.E.Q.Q.Q.E.J.J.G.J.J.Q.Q.Q.E.E.E.E.G.T.G.F.F.F.F.F.F.C.C.C.M.v.M.g.f.f.+.[ [ b ",
"[ [ q.q.w.f.f.y.g.j.v.M.V.S.S.F.F.F.F.Y.G.G.E.E.E.Q.Q.E.Q.Q.Q.!.(.(.(.).Q.(.(.Q.Q.J.G.G.T.Y.Y.F.C.u.y.r.e.e.r.+.+.[ [ [ [ [ [ B 0 ",
"0 b K K K } +.r.r.r.r.y.y.y.u.v.v.v.C.C.C.F.F.F.F.F.F.F.F.F.F.G.G.E.E.G.T.T.G.F.F.u.C.S.C.C.C.C.C.S.S.S.S.V.v.v.v.g.g.g.g.q.q.} } ",
"=.2.q.i.f.g.g.j.j.M.M.S.S.F.F.F.F.F.G.E.E.E.E.E.Q.!.!.!.(.(._.Q.J.E.E.J.J.E.T.J.E.Q.Q.Q.E.E.E.E.T.G.F.F.F.S.C.C.v.g.g.i.i.q.+.[ } ",
"[ } +.+.r.y.y.y.y.g.v.v.C.C.F.F.F.F.Y.Y.Y.F.F.F.F.F.F.F.F.S.S.S.C.C.u.u.y.r.r.+.P 0 0 7 1 1 1 < < > > > > ; ; * * % % % % $ $ $ # ",
"* ; > > > > > > > > , > , , < , , 1 , , , , 1 1 7 7 7 7 7 M b n b I I I >.>.X.>.>.>.>.s.s.s.s.f.j.j.j.A.A.A.S.S.S.S.S.S.S.S.S.S.A.",
"7 M B =.w.f.l.l.M.S.I.I.Y.Y.R.E.E.E.E.E._._._.(.(.(._._.(._._._._.`.(.(.(.(.`._.Q.E.E.E.E.E.G.G.F.F.F.F.C.C.v.v.j.k.g.f.f.f.q.q.=.",
"K } +.+.+.r.y.y.g.g.u.v.v.C.S.S.V.F.F.F.F.F.F.Y.F.F.G.E.E.E.E.G.F.F.F.F.F.Z.F.F.S.S.C.C.C.v.v.v.u.y.y.y.g.y.r.e.+.[ K g 0 0 j j j ",
"[ [ [ +.+.q.+.[ [ o.+.o.y.y.v.S.F.F.F.F.F.F.G.G.T.Y.F.S.S.u.u.C.F.F.F.F.F.F.Y.F.F.F.F.V.C.C.M.v.v.j.g.y.+.+.>.r.+.+.} [ [ b 0 0 b ",
"j j 0 0 7 j K q.q.f.f.l.l.g.r.P r.f.y.y.y.y.g.v.y.y.F.F.F.F.F.F.G.E.E.E.R.T.T.T.F.F.F.F.F.F.F.F.F.S.V.C.v.g.g.g.f.f.i.q.q.[ =.[ K ",
"0 b [ =.[ K [ +.y.g.M.g.j.v.v.v.C.v.v.v.v.v.S.F.F.F.F.G.T.Y.Y.Y.Y.F.G.G.T.G.F.G.F.F.F.F.Y.F.S.C.v.g.y.y.y.q.[ K K b 0 0 j j j 5 5 ",
"b b [ [ +.b 5 M f.k.g.g.g.u.v.v.C.S.F.F.F.F.F.F.F.F.F.F.G.G.F.F.G.F.F.F.C.C.C.C.v.v.v.v.j.j.j.f.+.+.r.r.+.+.r.r.i.y.+.+.+.+.+.2.<.",
"B B [ [ +.f.f.f.w.f.f.r.+.+.+.+.+.y.y.y.g.g.g.g.u.v.v.v.v.C.C.v.C.v.v.u.v.v.V.V.v.v.M.v.v.u.v.v.v.v.V.v.M.g.f.q.[ B b j 5 5 3 , > ",
"5 5 5 5 5 1 5 j 0 [ [ [ +.r.f.g.v.v.v.v.v.v.C.C.v.v.u.u.y.y.y.u.C.C.C.C.C.S.S.M.j.g.f.+.[ 0 j j 1 < > : - * % % % $ $ $ # # # @ @ ",
"j B [ [ +.+.q.+.q.q.+.+.} } } +.+.r.r.y.g.g.j.j.v.g.y.+.o.I b b K b b b B I I >.y.f.j.A.A.A.A.A.j.j.j.g.g.f.f.f.f.f.w.w.q.q.=.[ [ ",
"g r 5 < > , < 1 j [ +.2.2.=.K B B b I +.y.j.S.S.Y.Y.R.R.R.R.R.R.R.E.E.E.F.F.F.F.F.F.S.C.v.v.v.v.u.g.j.M.g.y.r.+.+.[ b 0 7 j 5 5 5 ",
"; 4 4 M B <.=.I +.f.f.j.S.S.F.S.S.F.F.F.S.V.V.C.C.C.v.v.v.C.C.C.C.C.C.C.C.C.v.C.v.v.v.v.v.v.g.y.r.} q.2.=.B 2.<.2.<.<.r 5 5 5 5 j ",
"w.w.w.k.f.f.g.g.f.q.+.+.+.+.i.i.r.f.g.g.g.u.v.M.v.C.v.S.C.C.v.v.v.v.v.C.V.C.C.v.v.j.y.+.P K K +.+.+.f.w.q.w.w.w.w.w.w.q.[ B B r 5 ",
"<.,.B j j j 0 b B [ [ +.+.i.i.f.f.f.f.f.f.y.f.g.g.g.g.g.g.g.u.u.v.j.g.g.y.f.r.+.K K +.f.f.i.+.+.+.[ B r r 5 5 5 5 5 5 5 j j r r 5 ",
"3 3 5 5 5 q j j j j j j b b K [ [ [ [ [ [ [ K K [ } +.+.+.r.+.+.+.+.+.+.K +.f.g.u.g.g.g.f.+.=.b j j j j 5 5 M j M j j j j j M B 5 ",
", , 1 1 3 5 5 5 5 5 5 1 1 q q j j j 0 [ +.} +.+.r.r.r.+.r.+.} +.+.r.g.g.g.g.f.i.f.r.r.r.+.+.i.q.q.r.q.q.q.w.w.w.=.=.B r j 3 2 , > ",
"3 3 3 3 5 5 r r r 0 g b b B B [ [ [ [ } | } } q.q.+.+.=.+.+.+.} } [ K K K K K K K K [ b b B 0 b B g 0 j j j j 5 5 5 3 5 3 3 3 3 3 ",
"> > > , , < 3 j j 0 [ [ =.+.+.+.+.q.q.i.i.i.f.f.g.g.f.f.f.g.g.y.y.y.r.r.r.r.i.i.i.i.+.+.r.r.q.q.+.+.+.=.[ [ [ [ B B M B j j M 5 5 ",
"5 5 5 5 5 5 j j j j j j j 0 0 b [ [ [ q.i.i.i.f.f.f.f.f.g.g.g.g.g.g.g.g.g.g.g.f.f.f.i.i.f.f.w.q.+.+.=.=.[ [ B g j 5 1 3 3 3 4 4 2 ",
"> > > > , 2 2 < , 3 3 3 3 1 5 5 5 j r r 0 B g g B B [ [ [ K K 0 0 0 0 b b b K [ k 0 0 0 B j q q j j j 5 5 5 3 3 , , , , , < , , 3 ",
"> > 2 4 3 5 5 r r B <.<.2.2.<.=.[ [ [ [ B b B B K K [ [ [ [ K K [ b b B B b b 0 0 0 B b 0 0 j j j j j j j j j r h M r 5 3 4 > ; & ",
"O . . . X X X X + + + @ @ @ # # $ $ $ % % * * > > > > > > , , , , , 2 2 2 , , , 4 3 > > > > > ; ; ; % % $ $ # @ @ @ X X X .       "
};
