/* XPM */
static char *fead8c93bbbe42bfb36885a62aab868coxRxIbhuxZIZf41v[] = {
/* columns rows colors chars-per-pixel */
"65 65 245 2 ",
"   c #191919",
".  c #2A0C05",
"X  c #270D06",
"o  c #2B1209",
"O  c #371506",
"+  c #32150D",
"@  c #36251B",
"#  c #2E211C",
"$  c #232323",
"%  c #282827",
"&  c #233131",
"*  c #322E2A",
"=  c #1D2427",
"-  c #4F1D05",
";  c #681E00",
":  c #5C2303",
">  c #552C1B",
",  c #55311E",
"<  c #59321E",
"1  c #4D2C1E",
"2  c #642303",
"3  c #6C2401",
"4  c #6B2806",
"5  c #732502",
"6  c #762B06",
"7  c #7B2D06",
"8  c #7A2E0A",
"9  c #762D0A",
"0  c #7A310B",
"q  c #77310C",
"w  c #6B351D",
"e  c #77381C",
"r  c #702E15",
"t  c #5C3521",
"y  c #573929",
"u  c #49372D",
"i  c #643A25",
"p  c #6A3D26",
"a  c #6D3E29",
"s  c #623A27",
"d  c #783E23",
"f  c #6D412A",
"g  c #74442C",
"h  c #7A462C",
"j  c #7B492E",
"k  c #76472A",
"l  c #754630",
"z  c #764931",
"x  c #7D4B32",
"c  c #794730",
"v  c #7C5338",
"b  c #654D3A",
"n  c #4D4537",
"m  c #3C4E56",
"M  c #3C5358",
"N  c #394F49",
"B  c #3A5A64",
"V  c #39736D",
"C  c #387A78",
"Z  c #376B6E",
"A  c #35655C",
"S  c #4A5251",
"D  c #685348",
"F  c #7D5A47",
"G  c #705E56",
"H  c #4A6359",
"J  c #6C6554",
"K  c #465C66",
"L  c #4C7877",
"P  c #516F6F",
"I  c #65726D",
"U  c #797966",
"Y  c #6C7472",
"T  c #83340D",
"R  c #8A370F",
"E  c #8C3C15",
"W  c #8B3D1B",
"Q  c #863A16",
"!  c #923E15",
"~  c #923F1A",
"^  c #9B3F14",
"/  c #863D21",
"(  c #8D411E",
")  c #884019",
"_  c #944115",
"`  c #994013",
"'  c #9B451D",
"]  c #9F481B",
"[  c #93421C",
"{  c #A0481C",
"}  c #A2471C",
"|  c #B1501E",
" . c #8B4422",
".. c #834A2C",
"X. c #874629",
"o. c #954D2C",
"O. c #9A4B2B",
"+. c #984823",
"@. c #98512D",
"#. c #824E32",
"$. c #8C4F32",
"%. c #855134",
"&. c #8B5335",
"*. c #83533A",
"=. c #8D5639",
"-. c #8D593B",
";. c #8C5938",
":. c #915635",
">. c #9C5532",
",. c #935937",
"<. c #915739",
"1. c #935A3A",
"2. c #995D3B",
"3. c #9E5935",
"4. c #964B33",
"5. c #AA4E27",
"6. c #AD5223",
"7. c #A1522E",
"8. c #AD522C",
"9. c #B25224",
"0. c #B1572F",
"q. c #A45534",
"w. c #AB5B39",
"e. c #A85935",
"r. c #B45D3A",
"t. c #B55B34",
"y. c #B04E27",
"u. c #9A613D",
"i. c #96613D",
"p. c #A6673D",
"a. c #B5623D",
"s. c #BB643D",
"d. c #B4693B",
"f. c #C9673C",
"g. c #D56A36",
"h. c #D46A39",
"j. c #D96C39",
"k. c #DD723D",
"l. c #E5753C",
"z. c #8A5C45",
"x. c #935B41",
"c. c #9A6343",
"v. c #8A6751",
"b. c #A86743",
"n. c #B46443",
"m. c #B96645",
"M. c #BC6945",
"N. c #BB6749",
"B. c #B66949",
"V. c #BD6B4A",
"C. c #B56747",
"Z. c #B9755A",
"A. c #B9704C",
"S. c #817D66",
"D. c #C26A45",
"F. c #CC6C45",
"G. c #C26C49",
"H. c #CC6E4A",
"J. c #C46643",
"K. c #D36E45",
"L. c #D16E49",
"P. c #CE7146",
"I. c #CD714A",
"U. c #C77048",
"Y. c #D37145",
"T. c #D2724A",
"R. c #DA7346",
"E. c #CD7A56",
"W. c #E47542",
"Q. c #EB7D45",
"!. c #EB7E4A",
"~. c #E67B46",
"^. c #F67E48",
"/. c #F27F45",
"(. c #35827D",
"). c #5C877A",
"_. c #44847E",
"`. c #7A846D",
"'. c #688979",
"]. c #748C79",
"[. c #81886F",
"{. c #B58C76",
"}. c #EB814C",
"|. c #E8824A",
" X c #F3844D",
".X c #F8844A",
"XX c #F48551",
"oX c #E78756",
"OX c #C8937B",
"+X c #C98464",
"@X c #CF825E",
"#X c #2E7F82",
"$X c #507A84",
"%X c #378988",
"&X c #358F91",
"*X c #598786",
"=X c #539195",
"-X c #68848A",
";X c #6C8D94",
":X c #658A93",
">X c #728D99",
",X c #6C949C",
"<X c #699398",
"1X c #71939B",
"2X c #71959B",
"3X c #708E89",
"4X c #6C9CA3",
"5X c #6B98A3",
"6X c #739BA4",
"7X c #769BA6",
"8X c #5BBBB4",
"9X c #59BBB9",
"0X c #57ADAE",
"qX c #6AA3AC",
"wX c #65A6AD",
"eX c #74A3AA",
"rX c #65ABB3",
"tX c #69AAB4",
"yX c #65B7B9",
"uX c #70AFB6",
"iX c #5F9FA9",
"pX c #58C3BC",
"aX c #61C2B9",
"sX c #5DBDC2",
"dX c #43BAC0",
"fX c #64BBC4",
"gX c #3BC6C5",
"hX c #4DC9CA",
"jX c #5BC4C5",
"kX c #57C8C8",
"lX c #5BCCD1",
"zX c #4CD8D8",
"xX c #5BD2D5",
"cX c #56D6D9",
"vX c #55D0CD",
"bX c #65C3C8",
"nX c #63CDD6",
"mX c #5BDBE2",
"MX c #4CE6E5",
"NX c #54E8E8",
"BX c #4CF3F2",
"VX c #56F6F7",
"CX c #51EEF2",
"ZX c #54E0DE",
"AX c #84888B",
/* pixels */
"&.&.&.&.%.%.%.%.#.#.#.x x x x x j j j x j j x #.x v v %.%.*.-.*.v %.#.x j h j h h j g j h h h k h h k g k g k g g g g f f f f f f ",
"l z c c x x #.#.#.#.%.&.&.&.&.&.&.<.1.1.1.1.,.,.2.2.2.u.c.h e e e d X.X.<.c.2.2.2.2.2.2.2.2.2.,.,.,.1.1.1.1.=.=.=.=.=.=.&.%.%.%.#.",
"c z c x x #.#.#.#.#.#.%.%.%.&.&.&.&.&.&.&.&.=.=.;.=.-.<.U C V V V V L L J x.=.&.;.%.%.#.#.#.#.x x x x x j j h h h h h h h h g g l ",
"g g g g g h h h h j j j j x x x x x #.#.#.%.&.&.&.z._.C 0XNXcXxXxXxXlXcXzX_.(.L =.&.-.;.%.&.&.&.&.&.%.#.#.#.#.#.#.x x x j c c c z ",
"c c x x x #.#.#.#.#.#.#.#.&.&.&.&.;.;.;.;.<.X.v H %XcXcXcXlXrX;X,X,X5XyXcXcXzXhXZ J X.h 1.=.&.&.&.=.=.%.#.#.x x x c j h h g g g g ",
"c c c c c x x #.#.#.#.#.#.#.#.#.#.#.%.&.e b A &XCXjX1X1X;XyXVX7XeX7XfXVX,X>X1X5XcXMXC N d X.=.%.#.#.x j #.#.#.#.%.%.%.#.#.#.x x x ",
"h j c x x x x h h k k h x #.&.&.&.1.<.v.L &XmXmXvXrX5X6X7XiX&XK K K Z &X4X4X6X5X9XxXmXbXC I -.&.%.#.#.#.#.#.#.#.x x x x x c x x x ",
"x #.#.%.%.#.#.%.%.%.%.;.;.1.,.<.1.2.z.0XBXfX>X;XrXcXwXK P S o X o o . % K K P fXxX5X;X5XZXzXL =.<.&.&.&.&.&.%.x #.#.#.#.x c z l g ",
"c c x x x #.#.#.%.&.&.;.;.;.=.-.1.F =XxXxXrX>XeX:X$XC O + - 4 4 5 4 4 : O o @ &XL ,X6X<XbXxXhXL :.2.1.1.<.<.&.&.;.;.&.&.%.%.#.#.x ",
"#.#.#.%.%.%.&.&.&.&.&.;.;.=.-.$.*.=XkX1XrXnXrXK m o O 3 3 T ' W E W W Q 5 3 2 . # K L bXlX5X4XhXI $.&.;.=.&.&.&.%.#.#.#.#.#.x x x ",
"a f f f g f g g g g h h h h h J =XyX2X,X1XrX(.. - 4 6 [ Q ] !.m.M.m.V.w.T ' ! 5 2 O # &X7X,X;X4X9XP z a f p p i i i i t t t < , , ",
"%.%.%.%.;.;.;.;.;.;.;.;.;.1.d *XMXwX<X,X<Xm O 6 7 Q  .I.0.] Q.m.m.m.V.q._ Q.Y.! Q 6 3 + $X5X5X>XbXgXD <.&.=.;.&.%.%.%.%.#.#.x x c ",
"=.-.1.1.1.1.1.2.u.u.u.u.u.p.F =XmXlXuX:Xm @ q ' +.n.n.H.0.' Q.m.m.m.V.q.! W.Y.F.r.( E 4 @ P 6XyXcXdXL c.&.&.;.,.,.1.1.1.=.=.=.=.-.",
"#.#.#.%.#.x &.;.&.&.&.&.1.X.V lX>XyXlXN O : _ .XF.m.m.H.0.' Q.m.M.m.V.q.! W.F.H.F.L.F.7 : @ $XcX5XtXhX* &.=.&.#.#.#.#.#.x x x x c ",
"#.#.#.#.#.;.&.%.&.&.&.&.<.v &XfX;X7XB . Q 8 _ .XH.D.D.T.8.} !.V.M.D.V.q._ W.H.F.K.T.F.8 ' 2   :X5XwXkXZ -.2.,.,.1.1.&.&.;.;.=.%.%.",
"j x #.#.#.%.&.&.&.&.&.=.$.L cX;X,X:Xm - ( o._ .XH.H.D.I.7.{ !.V.F.F.D.q._ W.G.M.K.Y.J.Q R.4 # P 5X<XqXzXS <.;.&.&.&.%.%.#.#.#.#.x ",
"#.#.#.#.#.%.#.%.&.&.,.1.v.%XcX8XtXK o 9 O.O.` XXD.F.D.T.>.] !.G.Y.H.D.q._ W.G.M.K.Y.r.R W.E 2 $ ,XtXyXzXH 2.1.=.=.&.;.;.&.&.%.%.#.",
"%.;.&.&.&.&.&.&.<.<.,.:.*XkXrXNXsXm . ( V.O._  XD.H.F.T.7.} !.G.Y.H.V.q._ W.H.N.L.H.a.T /.r.4 + *XcXcXtXhXb 2.1.x.-.=.=.;.&.%.%.%.",
"%.=.=.-.%.&.&.&.&.&.1.#.%XcX>X7XK O 6 O.A.O._  XM.H.P.I.7.{ Q.G.R.H.V.q._ W.H.m.J.I.a.T /.n.W : $ :X,X4XhXS c.1.1.1.1.=.&.&.&.%.%.",
"z z x x x x #.#.#.$.&...%XcX;X6XK o ( N.M.O._  Xn.D.F.G.q.] Q.G.R.H.V.q._ W.H.n.D.I.s.T Q.G.n.2   :X2X7XhXn =.%.#.#.x j h h h g f ",
"> , , , < t t t t t i i %XjX;X:XS O ) M.M.O._  Xn.J.F.V.q.{ !.M.Y.F.H.q._ W.H.n.M.T.f.R Q.D.n.4 # L ;X6XsXJ b.i.i.i.2.1.;.;.;.;.%.",
"j x %.%.;.;.;.1.1.u.<.U kXrXuXZ + 8 +.N.M.O._  Xn.D.F.G.q.] !.D.K.D.I.q._ W.H.n.M.T.f.R Q.D.n.Q : & iXtXfX9Xz.2.u.u.2.2.,.,.1.1.<.",
"&.&.=.<.1.1.2.2.2.u.>.`.NXMXVX%X. 9.!.B.M.O._  Xn.m.m.G.>.' Q.P.F.D.Y.q._ W.H.n.M.L.f.R Q.G.m.m.; & hXCXBXhXz.2.2.,.,.1.<.=.=.&.;.",
"&.&.&.&.&.&.=.1.<.1.o.'.kX1X7XM . 9.}.M.G.O.` XXm.V.V.G.q.{ .XP.D.F.T.e._ W.U.m.D.T.f.R  XH.V.m.2 $ -X2XwXjXv :.&.<.<.&.&.&.;.#.#.",
"#.%.&.&.&.&.&.1.1.2.o.].kX,XeXK O ] F.e.w. .R K.e.w.e.w.+.! h.r.e.w.r.O.Q f.w.e.e.w.q.T f.w.w.q.2 * :X,XtXpX*.:.&...h g a g j %.%.",
"&.&.&.<.1.,.,.,.,.2.>.3XkX1X<XG R ! _ ! ! E E _ _ ! ! ! E ! ^ ! E ! _ E E _ ! ! ! ! E E _ ! ! ! R h Y ;XqXpX-.u.u.u.c.u.u.u.c.2.=.",
"%.%.&.&.&.&.&.&.<.1.o.].cXyXI y..X!.Q.oXoXQ.!.!.!.}.oX!.!.!.!.Q.|.oX!.!.!.!.Q.!.oX|.Q.Q.!.|.oX!. Xj...<XbXpX;.2.2.2.2.2.2.1.1.=.&.",
"#.%.&.&.&.&.&.,.1.1.@.].MXNX*X| }.V.J.{.{.D.D.G.V.Z.{.V.G.G.G.J.Z.{.V.D.D.G.D.Z.{.V.M.G.D.Z.{.V.V.w.k 9XVXkX%.,.1.1.&.&.&.&.&.&.&.",
"&.&.&.=.<.<.,.,.,.2.>.].kXqXI 8.R.n.n.b.b.a.n.n.n.n.b.n.n.a.n.n.n.C.n.n.a.n.n.n.C.n.a.n.a.n.C.a.d.e.c -XyX9X&.&.;.&.&.&.&.&.%.%.#.",
"a a a f g g g g g g e ).jX,X,XG 9 q q 8 0 q 0 q q 0 8 0 q q 0 0 0 0 q q 0 0 0 0 0 0 0 0 q 0 7 q 7 a -X;XrXpX&.,.,.1.<.&.&.&.%.#.#.",
"i p p f f f g g g g d '.jX;X6XS . 6 7 9 6 6 5 T 6 6 6 6 6 6 7 9 6 6 6 6 5 7 6 6 6 6 6 5 7 6 6 7 : % -X1XqX9X%.,.;.<.<.<.<.<.<.=.=.",
"u.c.b.b.b.b.p.p.p.b.d.[.vXwXuXB X 5.R.a.m.o.! }.f.m.n.m.@.' W.J.n.n.M.0.! K.M.a.n.n.w.T R.s.D.r.2 $ =XqXfX8Xk c g h g a p p p p a ",
"&.&.=.1.<.1.,.,.2.2.q.`.MXMXVX%X. 9.!.V.D.o._ .XK.H.N.G.q.] ^.P.D.V.H.t._ W.F.m.V.M.a.R }.F.I.f.2 & hXNXCXkXp.b.p.u.2.,.&.&.%.%.x ",
"<.<.<.,.,.,.,.2.2.u.q.`.kXwXuXB . 6.Q.C.B.o.`  XD.H.m.G.7.] Q.P.F.V.F.t._ l.H.n.m.m.a.T ^.Y.T.F.2 $ =XwXsXpX,.2.2.2.2.2.u.u.c.c.2.",
"&.&.&.&.&.=.=.&.<.1.@.`.sX,X7Xm X |  XF D 4._  XM.H.N.G.7.{ !.D.H.M.T.t._ W.H.m.D.M.n.T ^.Y.D.F.2 $ -X1XrX8Xo.1.,.&.&.&.&.#...#.#.",
"#.%.&.&.&.<.,.,.2.2.3.[.jX,X7XM X 9.d.Y AXu ^  XM.K.F.V.q.} ~.D.H.D.T.e._ W.G.M.F.V.n.T ^.Y.G.F.2 $ -X1XrXyX>.u.2.2.2.,.,.,.,.<.=.",
"&.&.<.1.1.,.2.2.2.u.q.[.jXqXuXB . 9.d.Y AXu ^  XC.F.H.G.q.] ~.M.T.K.Y.q._ W.G.M.H.V.n.T ^.Y.G.F.2 $ =XqXfXyX>.,.,.<.&.&.&.&.&.&.%.",
"#.%.%.&.&.&.;.&.&.1.>.U MXMXVX#X. | !.F G .._  Xn.D.K.I.7.{ !.C.F.K.Y.q._ W.G.M.H.V.n.T ^.Y.D.F.3 & hXNXBXaX@.1.1.1.<.=.=.=.;.&.%.",
"&.&.&.<.<.,.,.,.,.2.>.`.jXqXuXB . 6..XF D O._  Xn.m.D.T.7.] !.n.D.K.K.q._ W.G.M.H.V.n.T ^.Y.T.f.2 $ <XqXsXyX>.u.2.2.,.1.1.&.&.&.%.",
"&.&.=.=.;.1.1.,.,.2.3.`.9X<X7Xm . 6..XF D o.`  Xn.m.D.T.>.] !.m.D.K.Y.q._ W.G.M.K.V.a.T /.Y.K.s.2 $ -X>XrX8Xo.<.&.&.&.&.&.&.&.%.#.",
"#.%.&.&.&.&.&.<.<.,.@.U 9X,XeXM . 6..XF D o.`  Xn.m.D.T.q.] !.m.D.K.Y.q._ W.G.M.H.V.a.R Q.F.H.s.2 $ -X2XrXyX>.u.2.,.,.,.,.<.=.&.&.",
";.=.=.<.1.,.,.2.2.u.3.S.jX4XeXM . 6..XF D o.^  Xn.m.D.T.8.{ !.m.D.K.Y.q._ W.G.M.K.V.a.R Q.F.L.s.2 $ :X4XrXyX>.u.2.,.,.<.<.=.&.&.&.",
"&.&.&.&.<.,.,.:.,.2.>.S.MXBXVX%X. 6..XF D 4._ .Xn.m.m.I.0.{ !.m.D.K.T.q._ W.H.H.K.H.a.T Q.H.K.f.2 & zXBXVX9Xw f a p p p p i i i i ",
"a f g g g g g k k h k J jX4XuXB . 6.d.I AXu _ XXm.M.m.H.0.{ !.m.D.K.Y.q._ W.H.H.K.T.a.T Q.H.Y.F.2 $ =X7XyXyX,.u.u.u.u.u.u.u.c.u.i.",
"..%.%.;.;.1.2.2.2.c.2.[.yX>X7Xm X 9.d.Y AXu `  Xn.M.m.H.0.{ !.m.G.K.Y.q._ W.H.F.K.H.a.T Q.F.I.s.2 $ -X>XtX8X>.2.2.1.,.1.1.1.=.&.;.",
"&.&.&.&.&.<.,.,.,.2.>.U pX,XeXM . y.~.F G .._  Xn.M.m.H.0.{ !.m.M.D.H.q._ W.F.F.F.I.a.T Q.F.F.s.2 $ *X,XtX8Xo.<.&.&.&.#.#.#.#.#.#.",
"&.&.&.&.&.=.&.&.&.&.o.U jX5XeXM X 6.}.C.b.7._ XXn.M.m.H.0.{ !.m.m.m.V.q._ W.R.F.D.H.a.T Q.D.M.s.2 $ :X6XrX8Xo.1.=.&.&.&.&.%.#.#.%.",
"#.#.#.#...#.&.=.=.1.:.U NXMXVX#X. 6.!.M.V.O._  Xn.m.m.H.0.{ Q.m.m.m.V.q._ W.R.M.D.H.a.T Q.M.m.m.; & hXNXCXpX:.,.1.1.<.=.=.&.;.&.&.",
"#.%.&.;.&.&.&.&.,.2.>.`.vXyXbXZ X 6.!.B.V.O.`  Xn.M.m.H.0.} Q.m.M.m.V.q.! l.R.M.D.K.f.R Q.D.V.s.2 % iXuXjX9X#.&.%.%.#.#.#.#.#.x x ",
"%.%.&.&.&.%.x %.1.2.o.].jX;X7Xm X 6.|.V.G.o._ XXm.M.D.T.7.] !.m.M.M.G.q.~ W.R.H.V.F.f.R |.D.V.n.2 $ -X1XwX9X&.<.<.,.&.&.&.&.&.=.=.",
"%.%.&.&.&.1.1.1.;.1.o.'.jX,X6XJ 2 Q ' W ( Q R +.( W ~ [ Q Q ' ( W W ( E T ' +.[ ( ( ~ 8 ' ~ W W 6 t -X,XrX8X&.=.;.%.%.#.x x c h g ",
"x x x x x j x #.#.;.X.'.jX6XI q.l.g.g.h.g.g.j.g.g.g.h.g.j.j.g.j.g.h.g.j.j.g.h.h.g.h.j.j.h.h.g.g.k.f.v -XtX0Xi p p i i i i i i t t ",
"#.%.&.&.&.&.=.&.=.;.X.'.MXMX*X|  XT.P.+XOXT.Y.T.T.+XOXI.T.T.T.Y.@XOXT.I.Y.T.Y.E.OXT.P.I.Y.E.OXE.T.s.k 9XCXpX;.1.1.1.;.;.=.=.;.&.%.",
"#.#.x h h h h j #.=.X.).xXuXI 9.~.C.m.A.Z.m.m.N.m.B.Z.m.B.m.B.m.A.Z.B.B.B.B.m.B.Z.B.C.B.C.V.Z.B.m.w.k <XnXpX%.<.&.&.%.#...#.x x c ",
"f z z %.%.*.;.&.&.1.X.).kX1X-Xz.' W W E E ) W / W Q Q E W W W W W E ) W E W E E E W W E W W E W E X.Y 3XqX8X#.=.=.*.*.#.x x x x #.",
"-.;.-.1.1.1.,.1.1.1.X.).lX<XeXK O 5 5 4 3 3 3 5 3 3 3 3 3 3 3 4 3 3 3 3 3 4 3 3 3 3 3 3 3 3 3 5 ; @ :X1XtX9X=.x.-.-.-.=.&.%.%.#.x ",
"*.*.%.#.#.#.#.%.%.=.d ).lX,XeXM . { h.t.r. .E K.e.r.t.w.+._ f.e.r.r.w.O.E f.r.r.w.r.q.T f.w.w.e.2 = :X2XrX9Xz x x x x x #.#.#.#.x ",
"c c x x x #.#.#.#.%.w ).NXzXNXC . 9.}.H.T.o.` XXm.H.P.G.q.] Q.G.T.T.H.q.~ W.U.I.D.T.n.T  XD.V.m.; & hXcXNXpXz %.x #.#.#.#.#.%.%.x ",
"h h j j c x x x x %.w L cX9XbXZ . 6.!.G.T.o._ XXn.D.H.G.>.} !.D.K.F.K.q._ W.G.D.H.H.a.T Q.D.V.s.2 % 0XfXlX8X$.;.;.;.%.#.#.c l h g ",
"c c c c x x #.#.#.=.w _.jX;X7Xm . 9.!.H.R.7._ XXM.F.D.G.7.] ~.D.H.G.I.q.! W.G.M.L.G.a.T Q.D.m.s.2 $ *X>XqX0Xh x x x x x c c c c c ",
"g g g h h h c #.#.1.> C nX1XeXM . 9.!.M.Y.8.` XXD.H.m.G.q.] Q.L.K.G.T.r._ W.G.m.D.V.a.R /.D.V.m.2 $ :X6XrX8X#.&.%.%.%.%.#.#.%.x c ",
"x x x x x x #.#.#.=.< C sX:X6Xm X 5.~.a.M.O.E  XJ.M.a.M.O.' Q.K.J.m.F.t.! k.D.n.n.m.r.0 Q.M.m.a.2 @ Y 3X;X<X#.%.#.x j c c c z z l ",
"g g g h h l c c c g v.Y N * u * + w o. .X.w > O. . . . .w > +. .) W ( e > [ ( )  . .Q > +.)  ./ > t s y y b v c h h h l h g h h c ",
"g g l c c x x #.%.#.c.z.a a a h c j X.......h ......X.X.j j ..X.......j h j ........j g j ......x g h g g h %.#.#.%.#.x c z g f p ",
"1 > > > , , , , t t , < s p a p p p p p a f g g g g h h h h z z z z z c c c z z c c h h l h g g f f f a a p i t t t , , , > 1 1 1 "
};
