/* XPM */
static char *cf25ed80652247d2bb248c45f0e27cdfb8nUmlpjZSMyqrmc[] = {
/* columns rows colors chars-per-pixel */
"65 65 251 2 ",
"   c #4D2C1E",
".  c #522E1E",
"X  c #55311E",
"o  c #59321F",
"O  c #5C3421",
"+  c #563220",
"@  c #4E2C20",
"#  c #643A24",
"$  c #6A3D26",
"%  c #6D3F29",
"&  c #623924",
"*  c #713F28",
"=  c #7C591F",
"-  c #6E412A",
";  c #6E4026",
":  c #74442C",
">  c #79472D",
",  c #7B492E",
"<  c #714327",
"1  c #764630",
"2  c #764831",
"3  c #7D4B32",
"4  c #794730",
"5  c #7F5036",
"6  c #7A5324",
"7  c #99461A",
"8  c #9A5A1A",
"9  c #9C4D0C",
"0  c #A54A07",
"q  c #B84700",
"w  c #BC5401",
"e  c #BD5B00",
"r  c #B9560A",
"t  c #A74D16",
"y  c #A75617",
"u  c #B95616",
"i  c #A85800",
"p  c #976619",
"a  c #976E16",
"s  c #AC6508",
"d  c #BD6200",
"f  c #BC6E00",
"g  c #B86708",
"h  c #AD6F14",
"j  c #824D2F",
"k  c #884F2D",
"l  c #8C562B",
"z  c #955529",
"x  c #854E32",
"c  c #814E35",
"v  c #824E32",
"b  c #894F31",
"n  c #865135",
"m  c #855134",
"M  c #8A5235",
"N  c #8D5536",
"B  c #8B5335",
"V  c #8D5A35",
"C  c #855239",
"Z  c #8E5638",
"A  c #8D5639",
"S  c #8D593B",
"D  c #845A35",
"F  c #915636",
"G  c #935936",
"H  c #995B36",
"J  c #915738",
"K  c #945A3A",
"L  c #995D3B",
"P  c #954722",
"I  c #A55A27",
"U  c #A05D3C",
"Y  c #99662A",
"T  c #96613D",
"R  c #9B623D",
"E  c #976534",
"W  c #9A752A",
"Q  c #A46B27",
"!  c #A87529",
"~  c #A1643D",
"^  c #A66737",
"/  c #A77637",
"(  c #B57932",
")  c #C24400",
"_  c #D14900",
"`  c #CA5402",
"'  c #C35B01",
"]  c #CC5D02",
"[  c #C95A0A",
"{  c #D55705",
"}  c #C55715",
"|  c #C26502",
" . c #CC6303",
".. c #C56C02",
"X. c #CA6708",
"o. c #D36302",
"O. c #D36B0A",
"+. c #D96806",
"@. c #C57401",
"#. c #C77903",
"$. c #D67500",
"%. c #DB7E05",
"&. c #D6790A",
"*. c #D36A18",
"=. c #CE6313",
"-. c #E46A0C",
";. c #E77905",
":. c #F87D0A",
">. c #F47111",
",. c #DD6F27",
"<. c #FF7E23",
"1. c #995F40",
"2. c #935B40",
"3. c #A15F40",
"4. c #9C6342",
"5. c #976542",
"6. c #A36542",
"7. c #A46A46",
"8. c #A86B48",
"9. c #A87444",
"0. c #B68315",
"q. c #B18933",
"w. c #B7912D",
"e. c #CC8607",
"r. c #D98605",
"t. c #D89607",
"y. c #D99714",
"u. c #CD8B12",
"i. c #EC8301",
"p. c #EC8B02",
"a. c #E78707",
"s. c #F48404",
"d. c #FC850B",
"f. c #F58B0B",
"g. c #FA8C0B",
"h. c #F38607",
"j. c #EC9C00",
"k. c #E59608",
"l. c #F59C04",
"z. c #FD9F01",
"x. c #FC9E0B",
"c. c #F39205",
"v. c #E48A17",
"b. c #F78813",
"n. c #EA9518",
"m. c #F69916",
"M. c #DCA611",
"N. c #EDA401",
"B. c #EAA80A",
"V. c #F4A501",
"C. c #FCA501",
"Z. c #F4AB01",
"A. c #FCAB02",
"S. c #FDA40A",
"D. c #FDAD0B",
"F. c #F6AA09",
"G. c #EEB506",
"H. c #F5B402",
"J. c #FCB403",
"K. c #F6BB03",
"L. c #FDBD02",
"P. c #F5B50A",
"I. c #FDB40C",
"U. c #F5BB0B",
"Y. c #FCBB0C",
"T. c #E8A716",
"R. c #FCA513",
"E. c #FDAC14",
"W. c #FDA31B",
"Q. c #FEAB1B",
"!. c #F6A818",
"~. c #EAB616",
"^. c #F4B414",
"/. c #FEB311",
"(. c #FEBB13",
"). c #FEB31B",
"_. c #FEBB1B",
"`. c #F4BA16",
"'. c #C59330",
"]. c #D3AC2F",
"[. c #FEAC24",
"{. c #FBA827",
"}. c #E9B823",
"|. c #FFB324",
" X c #FFB42A",
".X c #FFBD25",
"XX c #FAB439",
"oX c #EBB530",
"OX c #F6C403",
"+X c #FDC303",
"@X c #F6CB01",
"#X c #FCCC02",
"$X c #FEC40A",
"%X c #FECC0B",
"&X c #F5C40A",
"*X c #F6D302",
"=X c #FCD302",
"-X c #FDDA03",
";X c #FED40B",
":X c #FCD90C",
">X c #F6D709",
",X c #FEC214",
"<X c #FDCD14",
"1X c #FFC31C",
"2X c #FECC1B",
"3X c #F3C810",
"4X c #FED213",
"5X c #FED21B",
"6X c #FCDA17",
"7X c #EDC827",
"8X c #FDC825",
"9X c #FEDB24",
"0X c #FDD829",
"qX c #F4C735",
"wX c #FADA39",
"eX c #ECC53A",
"rX c #FFE228",
"tX c #FEE335",
"yX c #F6E33C",
"uX c #FCE43C",
"iX c #FCEB3E",
"pX c #F8E636",
"aX c #FBE016",
"sX c #B18D46",
"dX c #D5B04A",
"fX c #F4BE5A",
"gX c #E9B850",
"hX c #FBDC44",
"jX c #FBDB4B",
"kX c #F8D944",
"lX c #F2CE54",
"zX c #FEDD53",
"xX c #FDDE5A",
"cX c #F8D752",
"vX c #E5CB56",
"bX c #F5E344",
"nX c #FCE344",
"mX c #FEEA43",
"MX c #FDE44B",
"NX c #FDEA4C",
"BX c #F6E44A",
"VX c #FDE453",
"CX c #FDEB55",
"ZX c #FEE45B",
"AX c #FFEB5C",
"SX c #F4E656",
"DX c #FEF05C",
"FX c #FDDD65",
"GX c #E9CD69",
"HX c #FFE86A",
"JX c #FCE476",
/* pixels */
"N N N M M m m m c c v 3 3 , , 3 3 3 , 3 , > 3 c 3 5 5 m m 5 5 3 > > > > > > > > > > > > > > > : > > : : : : : : : : : - - - - - - ",
"1 2 4 4 3 3 v v v x m M M N N N J J K K K K K K K K L L L L L L L L L L L L L L L L L L L L L K K K K K K K A A A A C C M m m m c ",
"4 2 4 3 3 c c c c c c m m m M M M M M M N N A A A A A A A A A A F F F A A A N N M m x v v v v 3 3 3 3 3 > > > > > > > > > > : : 1 ",
": : : : : > > > > > > > > 3 3 3 3 3 v v c c x x M M N N N N M M M M M x x x x m m m M M M M M M M M m c x v v v v 3 3 3 , 4 4 4 2 ",
"4 4 3 3 3 v v v x x x x x M M M M M M N N S A A N m x x x M N A A K F N N N N N N A N M M M M M M A C m x v 3 3 3 4 > > > : : : : ",
"4 4 4 4 4 3 3 c c v c v c v v v v v x m m m m M M M M M M M M M M M B N N N N N M M B M B M M x v v 3 , v v v v m m m c c c 3 3 3 ",
"> > 4 3 3 3 3 > > : > > 3 x M B N F K K J K K K K K K K L L L L L L L K K J N N A N N B B B M M x x v v v v v v 3 3 3 3 , 4 3 3 3 ",
"3 c c m m x x m m m n N V K G F K K K K K K G K G H L K K K N m M M N N N J K F F J J N N N N N N N B B M N m 3 v c v v 3 4 2 1 : ",
"4 4 3 3 3 3 v v m M M N N N N A N N N N N N M b A M k G 8.8.~ E E ^ ^ 9.8.H G 4.4.H L L K K K K K K J J J F N N N N M M m m v v 3 ",
"c c c m m m m M M M M N N A S A J J K K G N 1.K G W ! w.'.dXgXfXfXfXgXdX'.( ! 9.l R 1.N F F F J N N N N M M M m m x x v v v 3 3 3 ",
"% - - - - - : : : : > > > > > > > > > > 3 T l / w.dXcXVXAXDXCXNXNXCXCXDXDXAXxXdXw./ 6 S > < : : : : % % % $ $ # # # & O O O o X . ",
"m m m m N N N N N V S S S S S K K G G 5.= a ].eXhXCXMXMXnXbXyXuXmXuXwXwXnXMXMXAXxXvXdXW D 5.F K G V A N N A N M m m m m v v 3 3 4 ",
"A S K K K K K L R R R R R R R R R 7.E a ].7X9X9X0XwXnXMXMXMXMXnXnXnXMXMXnXbXbXwXhXzXHXGXsXE R ~ H H G G N N V G G K K K A A A A S ",
"v v x m v 3 M N M B B N N J J N 4./ h 7X6X:X>X6XtXuXuXnXVXxXxXzXVXVXzXVXMXiXpXuXnXhXhXVXAXvXQ V K b N N N N M x v v v v 3 3 3 3 4 ",
"v c v v x N N m M M N N N N N S ! 0.0X4X=X-X:X6X0XiXmXnXjXzXVXMXnXnXMXMXkXyXiXiXyXbXNXNXnXVXFXq.T 6.G L K K K K K S N M N N A m m ",
", 3 v v x m M M N N N N A N T W u.wX5X%X:X=X*XaXrXtXwXMXNXNXNXmXiXmXmXNXNXbXwXyXmXmXBXbXMXjXHXHXq.E 4.N N N M M M M m m x x v v 3 ",
"v x x v v m x m M N G K K 4.Y w.0X@X#X;X;X-X*X>X9XmXCXVXhXqX}.T.T.T.}.qXhXVXCXMXbXwXbXNXVXCXkXjXHXq.l 4.K K J A A N N N M M m m c ",
"m N M M M M B B F F K K L ^ 0.0X@X-X=X=X=X-X-X:X0XhXoXy.@.f ..| d | ..f @.y.XXzXMXnXuXbXMXBXBXnXjXFXa G 1.K K K 2.S A A A M m m m ",
"n A A S m M M B N A A N V a 8X4X=X#X#X;X=X=X-X;X~.u...O.r.k.m.{.{.{.m.a.&.O.X.u.oXMXuXpXyXNXBXhXMXZXlXa 5.5.L K K K K A M M M m m ",
"2 2 3 3 3 3 c c c M b 4.p }.4X#X=X=X=X#X#X:X+Xt.#.e.n.)._.). X{.v.v.{..X.X!.n.#.@.y.wXmXpXiXbXMXMXjXAX].E M m m v v 3 > > > > : - ",
". . X X o O O O o & O 6 w.0X@X@X=X=X=X#X4XY.r.r.m.[.,XK.K.I.|.&.q w a./.P.U.1X Xn.@.u.wXmXuXyXbXkXjXnXZX/ 5.R R T T K K S S V N m ",
"> 3 m m N S S K K K 8.p eX<X@X=X=X-X=X4X(.r.%.Q.Q.Q.E././.). Xr.O.v.m.)._.(.D.E.|.{.#.y.wXuX0XyXBXMXnXZXGXl 7.R R R L L K K K K J ",
"N N A J K K L L L ~ l '.8X&X@X=X=X=X;X,Xr.r.[.R.S.S.Q.|.[.[.m. .O.b.h.;.;.n.!.A./. XXX#.t.wXtXiXNXCXBXZXJXsXV H L K K K J A A B N ",
"M M M M M B A K N 4.Y ].%X$X=X=X*X-X4Xk.r.E.S.S.J.C.R. Xm.o.) _ >.<.<.-.]  .a.$XJ.E. X{.e.M.mXuXyXNXSXZXHXdXl L N F F N N N N x v ",
"x m M M N N N K K K q.^.#X#X=X=X=X;XG.t.R.D.C.J.Z.I.).n.q q -.:.d.:.>.:.b.h.x.K.K.$XI.).!.u.qXNXMXCXSXVXVXGXsXS N j > : * : > m m ",
"M N N J G G K K L l '.2X+X#X#X@X=X%Xt.k.D.A.J.A.J.I.W.e w b.f.i.z.S.m.m.f.a.E.U.K.J.L.A.).y.}.VXhXNXVXAXCXFXsXV R R 4.R R R 4.L A ",
"m m M M M M M B K / y.5X#X=X@X#X%XY.t.D.S.A.A.A.Z./.b.q s.h.p.(.,XY.,X1X(.I.(.Y.Y.J.I.I./.).t.kXMXMXVXCXSXHX'.E 4.L L L L K K A M ",
"x m M N N N N F L ( T.<X@X=X@X#X%XJ.j.A.S.S.A.A.Z.D.>.{ d.i.c._./.F.P.P.Y.Y.Y.U.Y.I.I././.(.t.qXMXMXVXCXSXHX].9.L G N N N B B N N ",
"M N N A J J G G K ! `.%X@X@X=X#X<XZ.V.S.S.S.A.A.Z.D.h.o.g.f.i.c.x.|. X)./.I.P.U.P.I.I././._.B.}.MXMXMXVXSXAXgX9.A N N N M M m m x ",
"% % % - : : : : : Q .X%X@X@X=X#X%XN.A.S.S.C.A.A.A.D.x.$.p.g.;.s.;.+.b.W.|._./.P.P.I.I././._.^.~.MXnXMXMXBXVXlX/ G K J N N M m v v ",
"# $ $ - - : : : - Q 8X#X@X@X#X#X$XZ.A.A.A.C.A.A.A.S.E.l.i.i.g.d.:.;.o.+.a.R._.I.P.I.I.I./.(.`.~.nXnXnXMXyXnXcXQ N F F F F J F A A ",
"R 4.6.6.6.6.6.7.~ ! 1X#X@X@XOX%X+XJ.A.A.C.C.A.A.A.A.F./.S.c.i.:.d.b.b.h.+.;.R.I.J.I.I.I.I./.^.8XuXnXuXnXtXmXjXQ : > : % $ $ $ $ % ",
"M N N K J K K K G ! _.#X@X@X@X#X+XJ.Z.A.C.C.A.A.A.A.C.S.I.I.F.c.i.i.h.g.d.s.s.I.J.I.A.I./.I.G.8XtXuXuXtXtXiXkXp R R L K N M n m 3 ",
"N F F K K K K L K ! ^.+XOX@X#X#X+XJ.Z.A.C.C.C.C.A.C.S.C.A.Z.I.Y.F.l.p.;.d.d.s.D.J.Y.A.I.I.I.P.2XtXtXtXrX9XtXqX8 F K K L R R 4.4.L ",
"M M B N N A A N K ( B.$XOXOXOX+X+XL.A.Z.C.C.C.C.C.C.R.S.C.V.A.J.I./.S.h.d.:.s.C.J.A.J.I.A.H.U.5XrXrXrX6X6X9X}.8 N F N N M v j v v ",
"v m M B N F K K 4./ t.2XOXOXOX+X$XL.A.V.C.C.C.C.C.C.x.x.E.D.V.V.V.R.W.i.s.:.s.S.J.V.A.A.Z.H.K.4X6X6X:X:X>X9XM.8 L L L K K K F F A ",
"N N J K K K H H 4.^ e.8XU.OX+X+X+XY.J.V.C.C.C.C.C.S.W.;.a.x.Q.Q.[.{.f.o.s.d.i.I.J.V.A.A.Z.H.K.;X;X:X=X-X>XrXe.Y K F N N N N M M m ",
"x m m M M M N N K b f _.`.+X+X+X+X$XJ.A.V.C.C.C.C.S.f.w o.o.+.-.-.+.) ` g.s.p.(.J.A.A.A.A.H.%X;X=X-X-X-X>X5Xf 9.R F F A A A N M m ",
"M M N F F F G G L z s T.1XL.+X+X+X$X$XJ.V.C.C.C.C.C.%.w h.;.-.{ _ { +.:.f.i.).I.V.A.C.A.Z.K.;X:X=X-X=X-X:X`.i R 4.H K K K N M M m ",
"M M A A S K K G K 4.Y u..XY.$X+X+X&X%X&XZ.z.z.C.C.A.%. .;.f.b.h.b.b.g.s.p.E.).Z.A.C.z.C.J.+X:X-X-X-X=X:X2Xa.8 b N M M M M M M m x ",
"x m M M M B N F F L z g Q.(.L.L.+XOXOX<X,XV.C.z.l.V.R.m.W.f.f.h.g.i.c.R._./.V.V.S.C.z.A.$X;X=X=X-X-X-X;X/.| ^ 4.G K K K K J A B B ",
"N A A J K K K K K L R y y._.$X+X+X+X+XK.,X,XN.j.C.z.l.x.Q.Q. Xg.i.p. XE.C.j.A.C.C.V.H.OX%X;X=X-X-X=X6X2Xa.i z 6.H K K J J A N B B ",
"M B N N F G G G K G 6.8 f B.(.Y.K.L.L.L.&X5X0XG.j.x.C.V.l.l.E.$.$.p.Q.C.S.Z.V.z.C.H.&X:X=X=X=X-X*X4X9XB.f y m # % $ $ $ $ # # # & ",
"% - : : : : : : : : : K 9 %.D.(.K.+XL.L.K.3X0X8X^.S.j.V.V.V.D.k.k.C.(.V.V.Z.V.C.J.%X>X*X-X-X=X@X:X9X`.#.h z 4.T R R R R R R R R T ",
"j m m N S K L L L R R 7.z e a.).(.K.L.L.L.L.&X2X1XY.H.Z.N.N.N.I./.I.Z.N.N.H.H.L.+X#X=X=X=X-X-X@X5X8X%.O.8 7.H L K K K K K K A N N ",
"M B N N N F G G K K H L R 0 X.r.|.I.H.L.L.J.L.L.K.$X$XL.J.J.Z.Z.Z.Z.Z.J.K.$X%X%X#X#X#X=X=X-X@X<X8Xr.O.u H G F B N M M c x x v v v ",
"M M M N N A N M M B N B K ^ 0 | %.|.(.J.L.L.L.L.+XOXL.L.+X+XL.L.L.L.+X$X%X$X+X#X@X+X#X#X=X=X%X1Xr. .=.y 1.N G F N N B M M m x x m ",
"v v x x j v M A A K K L L 4.z u [ +.|.(.J.L.J.L.L.L.L.L.L.L.L.L.+X+X+X$X$X+X+XOX#X%X#X@X%X%X_.;.] ,.9 H L K K K K K J A A M N M M ",
"x m M N M M M N G K L K K H R P u [ X.!.^.P.I.J.J.L.L.L.L.L.L.L.+X+X+X+X+X+X+X$XL.L.&X<X2XB.$.] ,.t b K G A M M M m x x v v v 3 3 ",
"m m M M N m 3 m K K K K K L L F 7 } w d k.T.B.F.(.J.L.L.L.L.L.L.L.+XL.L.+X+X+XY.(.1X8X^.r...O.*.7 G L N N N F F J G N N N N N A C ",
"m m M M N K K K S K K F N N N K k 7 r [ &.n.k.T._./.J.L.L.L.L.L.L.L.L.L.+X+XL.,X1X`.t.@. .O.=.t H 4.H L L K K A M m m v 3 3 4 > : ",
"3 3 3 3 3 , 3 v x M M M N F K K L L I u r X.#.f $.m.E.I./.(.(.Y.Y.(.(.,X,XY.I.k.r.f d X.*.} t M c : : < ; % $ $ $ # # # & & & O O ",
"v m M M N N A N A A N N B B B N N F L F 7 t u =.` ` | @.&.v.n.m.m.m.n.v.&.@...] `  .*.u I H 4.R K L K K K K K K K K S S A A N M M ",
"c c 3 > > > > > v M N A A N M m m m M N 4.z t u } [ e e e ' ' ' ' ' w w e d |  .*.u t z 6.4.K L K K K L K G F N N M m x j v 3 3 3 ",
"- 2 2 m m C N M N K K K R R ~ R R ~ ~ ~ L 7.F z I 9 r e | O.O. .] ] o.O.O.X.g y I I z 7.L H K G F M A A N m A C A C C c 3 3 3 3 v ",
"S S S K K K K K K A N N N N J J F K K K K G L 7.H ~ ^ y t t t u u u u t 0 t I 7.b 4.L M N M M N N N K K A S S S S S S A M m m c 3 ",
"C C m v v v x m m M M N N J J K K K K K K G G F K L L G L 8.8.6.L 3.7.8.R F F A M b N K K J N N N M m c c 3 3 3 3 3 3 3 v v c c 3 ",
"4 4 3 3 3 v v v v v v v m m M M M M M M M M M M M M N N N F N N N N N N M F K K H K K K K N N m v v v v 3 3 m v m v v v v v m m 3 ",
"> > > > 4 3 3 3 3 3 3 , , v v v v v x M N N N N F F F N F F B N N F K K K K K J K F F F N N J A A F A A A S S S N N m c v 4 2 > : ",
"4 4 4 4 3 3 c c c x c m m m m M M M M B A B N A A N N N N N N B B M M M M M M M M M M m m m x m m c x v v v v 3 3 3 4 4 4 4 4 4 4 ",
": : : > > > 4 v v x M M N N N N N A A J J J K K K K K K K K G G G G F F F F J J J J N N F F A A N N N N M M M M m m m m v v m 3 3 ",
"3 3 3 3 3 3 v v v v v v v x x m M M M A J J J K K K K K K K K K K K K K K K K K K K J J K K S A N N N N M M m c v 3 > 4 4 4 2 2 1 ",
": : : > > 1 1 > > 4 4 4 4 > 3 3 3 v c c x m m m m m M M M M M x x x x m m m M M b x x x m v v v v v v 3 3 3 4 4 > > > > > 1 > > 4 ",
": : 1 4 4 3 3 c c m C C A A C N M M M M m m m m M M M M M M M M M m m m m m m x x x m m x x v v v v v v v v v c C m c 3 4 2 : - # ",
"@ . . . X X X X + O O O O O & & # # # $ $ % % : : : : : : > > > > > 1 1 1 > > > 2 2 > : : : : - - - $ $ # # & O O O X X X .       "
};
