/* XPM */
static char *enimy_move_down1712282157[] = {
/* columns rows colors chars-per-pixel */
"80 80 253 2 ",
"   c #010401",
".  c #010C02",
"X  c #030D0A",
"o  c #0B0C09",
"O  c #011403",
"+  c #011B04",
"@  c #03140B",
"#  c #0B130D",
"$  c #011A0B",
"%  c #0A1606",
"&  c #0D1B13",
"*  c #081911",
"=  c #1B1D1B",
"-  c #141816",
";  c #12110E",
":  c #02230C",
">  c #002606",
",  c #042213",
"<  c #0B2214",
"1  c #042B14",
"2  c #0D2619",
"3  c #0C2B18",
"4  c #13241B",
"5  c #17271A",
"6  c #07361A",
"7  c #17331A",
"8  c #00310E",
"9  c #252D1D",
"0  c #1D2B23",
"q  c #182922",
"w  c #0A3A23",
"e  c #1C3424",
"r  c #1C3B2A",
"t  c #163825",
"y  c #272927",
"u  c #24332D",
"i  c #27382A",
"p  c #33382C",
"a  c #2B3C33",
"s  c #333332",
"d  c #393B39",
"f  c #372F31",
"g  c #281F19",
"h  c #4D2C1C",
"j  c #532F1C",
"k  c #58321F",
"l  c #5D3521",
"z  c #5B3624",
"x  c #613622",
"c  c #653A25",
"v  c #6B3D26",
"b  c #6B3E29",
"n  c #633D29",
"m  c #703F28",
"M  c #0E4525",
"N  c #18462B",
"B  c #1A4B33",
"V  c #1B5535",
"C  c #15512D",
"Z  c #28422D",
"A  c #244333",
"S  c #2A4838",
"D  c #3C433E",
"F  c #33483A",
"G  c #28553A",
"H  c #325636",
"J  c #2F6538",
"K  c #175729",
"L  c #424E3C",
"P  c #6D4027",
"I  c #6E412A",
"U  c #73442C",
"Y  c #79462D",
"T  c #77482E",
"R  c #7C4A2E",
"E  c #704127",
"W  c #744631",
"Q  c #764932",
"!  c #7D4B32",
"~  c #7C4B34",
"^  c #7A4D35",
"/  c #413F40",
"(  c #3C4D43",
")  c #384944",
"_  c #295842",
"`  c #3E5549",
"'  c #365746",
"]  c #296745",
"[  c #39644B",
"{  c #2A754B",
"}  c #3A7455",
"|  c #3B6756",
" . c #137542",
".. c #454A47",
"X. c #46564B",
"o. c #455B51",
"O. c #4D5B53",
"+. c #565A57",
"@. c #534F4C",
"#. c #665750",
"$. c #436453",
"%. c #4A6757",
"&. c #56665C",
"*. c #47745B",
"=. c #516E52",
"-. c #645E65",
";. c #5B6A63",
":. c #4B7863",
">. c #5B7C6B",
",. c #577765",
"<. c #4D6B61",
"1. c #646B67",
"2. c #65766B",
"3. c #6C7872",
"4. c #757977",
"5. c #74756F",
"6. c #60685D",
"7. c #824C2E",
"8. c #894F2E",
"9. c #834E32",
"0. c #874F35",
"q. c #855134",
"w. c #8B5335",
"e. c #855239",
"r. c #8D5639",
"t. c #8D593B",
"y. c #8E5937",
"u. c #915636",
"i. c #945937",
"p. c #9A5B37",
"a. c #915739",
"s. c #945A3A",
"d. c #9A5D3A",
"f. c #8A502E",
"g. c #A05F3A",
"h. c #96613B",
"j. c #9D613C",
"k. c #9D673D",
"l. c #A3633D",
"z. c #A9663E",
"x. c #AC693F",
"c. c #A06B3F",
"v. c #B06D3F",
"b. c #945D41",
"n. c #8B5A42",
"m. c #9D6441",
"M. c #986549",
"N. c #956C54",
"B. c #A46541",
"V. c #A96741",
"C. c #A46A43",
"Z. c #AB6B42",
"A. c #A46948",
"S. c #B36D42",
"D. c #AB7146",
"F. c #B87145",
"G. c #A67355",
"H. c #B47D5A",
"J. c #A27B64",
"K. c #907976",
"L. c #298554",
"P. c #359761",
"I. c #249459",
"U. c #58855D",
"Y. c #4A895C",
"T. c #4B8665",
"R. c #59866A",
"E. c #5C8972",
"W. c #599777",
"Q. c #4D986A",
"!. c #678669",
"~. c #678876",
"^. c #77877B",
"/. c #65947B",
"(. c #639A7C",
"). c #69957A",
"_. c #76947D",
"`. c #5AA379",
"'. c #65A77D",
"]. c #AF8B75",
"[. c #85827D",
"{. c #7B8C85",
"}. c #7C8580",
"|. c #6D9D84",
" X c #689A82",
".X c #739383",
"XX c #749C85",
"oX c #799987",
"OX c #6D8F81",
"+X c #5AAC82",
"@X c #6BA385",
"#X c #6DA58A",
"$X c #67A987",
"%X c #73A48B",
"&X c #7BA38C",
"*X c #73AA8C",
"=X c #76A689",
"-X c #7BA492",
";X c #77AC93",
":X c #79B696",
">X c #6FB48A",
",X c #6EC797",
"<X c #7AE8B2",
"1X c #7ED4A5",
"2X c #858A87",
"3X c #85958A",
"4X c #8A9A92",
"5X c #989A99",
"6X c #928F8B",
"7X c #A99385",
"8X c #AF9B8D",
"9X c #87A897",
"0X c #95A89A",
"qX c #87AD92",
"wX c #ADA69C",
"eX c #B3A598",
"rX c #9BA9A2",
"tX c #97B7A6",
"yX c #8EB9A5",
"uX c #A6A8A6",
"iX c #B2ABA9",
"pX c #ABB4AB",
"aX c #B1B3AA",
"sX c #ABB8B3",
"dX c #B6B8B6",
"fX c #A79DA5",
"gX c #8BD7AD",
"hX c #99D8B5",
"jX c #91CDAB",
"kX c #A7DABB",
"lX c #B1CCB4",
"zX c #8CE8B9",
"xX c #96E7BC",
"cX c #89F2BB",
"vX c #A3E4BD",
"bX c #C5E0BF",
"nX c #CFBCC0",
"mX c #AEDAC2",
"MX c #9BEDC1",
"NX c #97F4C4",
"BX c #87F8C3",
"VX c #A7E8C4",
"CX c #B5E7CA",
"ZX c #A8F5CA",
"AX c #B2F5D2",
"SX c #D7D7D6",
"DX c #CBD2CF",
"FX c #E8DCDD",
"GX c #CEE8D1",
"HX c #FCFDFC",
"JX c #F8F8F7",
"KX c #EDF1ED",
"LX c #E5DCE1",
/* pixels */
"i.i.i.u.w.w.w.0.e.9.9.~ ~ ~ ~ ~ Y T T Y T T T T U U U U ! Q ! Q Q ^ ~ ^ ^ Q Q W U U U E U E E E E E E U I I I I I P P P I P b P v v I I b b b b n b c b b b n n ",
"W Q Q Q ~ ~ ~ 9.9.0.0.0.0.w.w.w.u.r.u.u.i.s.s.a.p.p.h.p.d.i.h.p.h.m.h.j.m.d.h.h.j.d.d.d.d.j.d.d.j.j.d.d.d.d.j.d.d.d.p.p.b.s.s.a.s.a.i.u.a.r.r.r.r.0.w.e.0.e.0.0.",
"Q Q Q 7.9.~ ~ 9.~ ~ ~ 9.9.q.0.0.w.q.w.0.q.w.q.w.w.w.e.w.r.r.y.y.t.t.t.a.a.y.r.r.u.r.y.r.u.r.y.r.y.y.r.w.w.w.w.r.w.w.w.w.q.w.e.q.q.0.q.9.9.9.~ q.~ ~ ~ 9.Q ~ ~ Q ",
"Q Q Q ~ ~ ~ ^ ^ 9.e.9.e.0.0.q.0.0.w.0.f.w.w.r.w.w.r.u.y.r.r.r.r.r.a.a.a.u.a.a.a.a.i.u.y.a.a.r.r.w.q.q.8.9.7.7.R ! ! ~ ~ T ~ R T R U U U U U U U U U W U I U W I ",
"m m b m m m m m m U Y U W U T T Q ! Q Q ~ ~ ~ 9.! ! ^ 7.9.q.q.q.w.u.r.r.w.0.0.7.q.q.9.9.7.7.7.7.7.q.q.w.w.t.r.r.r.w.w.w.w.w.w.w.w.0.9.0.0.0.e.9.9.9.9.R ~ R ~ ~ ",
"~ ~ 9.~ ~ 9.9.0.0.0.0.0.w.0.w.w.f.w.w.u.w.w.w.r.y.a.s.a.a.y.w.w.0.7.8.7.w.y.a.s.s.a.a.a.i.a.s.a.a.i.a.r.r.w.0.w.0.w.w.w.r.w.e.q.0.~ R Y R T W U W m U U m m U v ",
"~ ~ ~ ~ ~ ~ 9.9.9.~ 9.~ ~ 5.f @.~ 9.9.9.7.7.9.9.q.9.9.8.0.q.q.q.0.8.w.0.8.0.w.q.q.q.w.e.q.q.0.7.q.q.q.0.q.q.q.0.0.9.9.7.fXf s y N.! 9.0.0.q.q.q.0.9.~ ~ ~ ~ 9.~ ",
"U U U Y Q Y Q Q R ~ ! ~ 9.@.  = 5.0.9.w.0.0.r.a.r.r.y.w.r.a.i.y.a.i.s.s.s.s.d.s.d.s.p.s.p.p.s.s.i.s.a.s.i.a.s.a.u.r.0.rXy   = 5X7.7.~ ~ 9.9.0.w.0.9.9.9.9.~ ~ ~ ",
"! ~ ! 9.9.9.9.0.9.Y U U U iX)   o 4.n.0.a.a.a.a.s.a.a.s.s.s.i.p.s.s.d.s.p.p.i.p.p.p.a.y.w.w.w.w.0.0.0.0.9.0.0.0.0.0.fXy   ; ; 0.0.0.9.9.! R Q Q U Y Y Y Q 9.~ ~ ",
"9.~ 9.9.q.0.7.9.9.q.e.y.y.h.2Xo X X 4.n.b.a.a.a.s.s.p.i.i.p.p.i.d.p.d.a.r.r.8.7.q.w.w.r.y.i.a.s.s.d.s.d.s.d.a.i.a.wX- 4 s # -.r.w.r.y.9.R q.q.q.q.q.9.~ Q Q U U ",
"Q Q ~ R ! ! 9.9.9.9.q.0.0.0.6X  X =   }.a.a.w.w.r.r.w.w.q.8.8.q.w.w.w.y.i.d.d.h.h.p.p.p.d.d.d.d.d.b.d.s.d.i.s.s.iX# & +.s ) w.t.r.u.w.y.y.w.q.w.w.q.0.9.9.9.9.~ ",
"~ 9.! R ! 9.! 9.9.9.q.q.9.0.5Xo = 3./ X 5.0.w.a.w.y.y.a.p.p.p.p.p.d.d.d.p.d.d.p.d.j.d.j.d.d.d.h.d.d.d.d.d.d.d.rX# & ;.s o d s.r.y.r.r.w.r.w.w.q.w.q.0.0.0.9.~ 9.",
"9.9.9.9.q.9.q.9.w.q.w.w.0.w.w.2X; {.{.y - 1.r.r.r.w.y.r.y.r.y.w.w.w.w.w.w.w.w.w.w.w.f.q.q.8.q.8.9.7.7.7.9.R uX0 & 4.4XF   ..U U U U U I P U P P v v v n n c c n ",
"x x x x x x c c c c c n c b m K.* q 2X}.y # 3.m U E U U U U U T T T T T R R ! T T R R R ! ! R R 7.~ R T ! 0Xu * %.4X..& D uXU U I I P P n n n n c l l l z z j j ",
"m.m.m.m.A.A.m.A.B.C.C.C.D.C.C.iXX X u {.2.  q 3.Z.C.x.Z.Z.x.Z.Z.x.x.v.C.x.c.x.V.c.z.V.B.x.c.z.B.l.z.c.z.0Xu   F 4X+.&   3.j.d.d.j.h.d.h.d.p.s.d.d.p.p.s.d.s.b.s.",
"e.0.e.e.q.e.w.w.w.w.t.y.y.i.i.7X  *   O.2.u * @ 3XD.h.j.p.l.g.g.j.j.k.l.l.l.l.j.l.l.l.l.k.l.l.d.j.l.d.wX4   4 F OX*   . &.u.r.w.f.8.e.q.y.r.t.w.e.e.w.e.q.e.e.e.",
"0.0.0.q.w.9.Q 0.r.a.r.r.a.a.s.iX. @ q %.{.3.$ 4 X ^.p.a.a.s.a.a.a.u.u.w.w.w.w.0.w.w.w.w.u.w.w.w.r.f.w.& + O [ /.3.u O   2.w.r.i.i.a.r.0.7.7.7.9.7.9.R R ~ ^ ! Q ",
"~ 9.9.0.9.9.w.a.e.9.0.0.q.q.7.wXX $ 4Xo.' 9X>.2 & 2Xi.p.d.d.d.l.l.l.l.B.z.B.z.l.l.l.l.l.g.z.g.l.l.j.eX& : *.%X~.7 0Xa   ;.p.p.i.s.s.i.i.i.r.r.r.w.0.q.w.w.q.q.q.",
"9.9.9.7.9.9.q.q.w.w.u.u.a.a.aXy $ O 9X,.S OX9X>.2 0 4.l.l.B.l.B.l.l.z.B.B.B.V.B.l.z.B.B.z.l.l.l.l.eXF 2 $.~.=X,.6 lXi . 5.h.p.s.s.s.s.a.a.r.r.r.w.w.r.w.w.w.q.q.",
"~ ~ ~ 7.9.q.q.q.w.0.w.w.w.q.5.  2 !.kX9X*.| 9X-Xi   & 6Xi.i.i.i.a.p.p.a.p.a.p.a.p.p.p.p.p.i.a.i.iX) . , _._.).[ ).CXS   &.w.w.e.w.0.w.w.0.0.0.7.9.7.9.9.! 7.R ~ ",
"q.q.0.9.9.7.9.9.0.0.f.u.s.s.4XO 3 kXCXvXW.w *./.$.7   5 l.B.l.z.z.z.B.z.z.z.z.V.V.V.V.B.B.B.V.V.K.  q _ _.,.1 N VXvXG . ^.l.j.d.s.s.s.s.a.a.a.r.r.r.w.w.w.w.e.q.",
"e.t.w.a.w.u.r.u.u.u.i.i.i.A.3.. *.jXgXZX:XC 6 /.&XA O a aXB.l.l.l.l.d.d.g.g.d.p.p.p.d.d.B.V.V.].+.  2 ).=XN + T.ZXjX} 7 @.].m.m.M.d.s.s.b.b.b.n.y.r.w.w.e.e.w.q.",
"! q.0.^ e.! 7.7.9.0.0.0.e.+.  ' hXvXvXZXxX$XM (.=X' $ X # d.p.d.g.g.g.l.l.l.l.l.B.B.B.d.p.d.p.1.  o 5 .XXXG Y.vXgXAXvX*.O ..J.w.a.s.t.s.r.t.r.r.w.0.9.9.9.~ R R ",
"e.e.t.t.t.t.t.a.n.a.s.p.) . X S vXgXxXzXZX,X6 #X@X/.o.  y G.z.z.V.V.V.V.V.V.V.S.V.Z.B.g.l.l.z.d   y oXoX).K { MXzXgXVXVX,.@ s j.m.m.b.b.d.b.s.d.s.t.r.r.r.w.w.r.",
"z z n n c c b b b m m L 4   o.tXvXvXcXcXcXxX>XJ T.yX*.. - G.0.w.f.u.r.w.w.w.r.w.u.u.w.u.f.u.w.@.  0 4X_.V W.1XzXcXZXxXAX=X. % d N.Y Y ~ Y m U U P P v n n n c z ",
"z k k k l l l l x #.@.o X . 2 ,.Y.Q.I.,XZXZXyX8 T.*X$.. = M.0.sX2Xa.t.p.j.k.k.c.B.A.Z.8X6XZ.D.O.. S oX).6 `.NXcXzXP.L.T.V O O   +.4.uXD.Z.D.D.A.D.C.A.B.k.m.j.h.",
"T q.q.w.w.t.s.b.m.8X+.+.  ) %.' J  . .P.,XxXhXC T.*X$.  ; H.Z.4./ Z.v.S.S.Z.v.S.S.V.S.5Xy v.x...  G ^._.8 `.NX<X`.L.L.L.{ *...#   X y fXb.p.d.a.i.a.u.r.r.w.w.w.",
"w.w.w.y.r.a.s.s.a.s.d.s.a 2.DXmXxXcX<XP.Q.ZXkX> T.qX*.  - V.Z.;./ V.S.Z.S.S.v.S.S.S.S.fXy ].S.@.  S 9XXX6 `.zX,X .BXzXzXZXCXrX; = s s +.d.d.a.s.a.y.a.a.r.r.w.w.",
"w.r.w.r.u.a.i.s.d.s.s.d.X.X <.CXZXxX<XBXzXgXyXM } :X%.  f ].3.  +.p.p.p.p.p.p.p.d.p.p.5Xo - m.O.O t 0X~.w W.ZXzXzXMXZXMXhX#X4 * eXd.d.d.d.d.s.p.s.a.a.u.a.y.w.w.",
"0.7.0.7.0.0.0.0.e.w.w.r.t.) $ <.vXxXBXBXNX>XG O :.#X| d nXJX-.X z S.v.v.S.S.S.S.S.S.S.5X  = SXKX2.a 4X).6 6 W.zXzXBXBXZX#X2 4   wX0.0.8.7.7.0.8.0.7.9.9.! 9.R R ",
"q.w.w.r.r.a.s.s.d.d.d.d.j.pX%.B CXzXcX<XNX:X@ $ T.:.6 s FXK.;   q 4.F.v.v.F.F.v.F.F.5X..  o / SX}.@ _ ).B @ | AXNXBXNXZXE.q uXsXd.g.g.d.p.i.q.R U E v U R q.t.r.",
"w.w.r.u.u.i.s.i.a.s.s.a.d.d.3X2 (.xXcXcXMX:X1 G  X' X y FXg ; ..+.y F.v.F.v.F.F.F.F.-.= 4.    dX^.X 2 {.` 6 :.VXzXxXNX$XS a B.b.l.g.d.d.h.j.B.C.C.Z.C.V.A.m.s.w.",
"0.q.q.q.0.0.7.0.8.w.w.r.u.i.}.  3 `.gXzXxXyX6 _.0X( 2 3.LXs   6XdX= l.l.l.z.z.V.A.H./ -.SX  o iXuXA 2 -X.XV ] >XzXgXgXG : 3.l.l.g.g.d.d.d.d.p.i.p.s.a.s.y.t.w.w.",
"q.q.w.u.i.i.i.i.p.s.d.d.d.d.uX5 + 8 :XvXZX$X7 ;.^.D 1.JXKX= = 5XdX..iXS.S.V.x.S.S./   2XDXd X dXHX5Xu ,.=XM + ] ZXVXM + ^.s.u.u.i.u.i.i.p.d.s.s.a.s.a.a.u.u.r.w.",
"9.9.q.q.0.0.0.w.w.w.w.r.u.w.i.uX> 8 :XVX`.6 8 oXF ; ;.HXLXu 6XKXJXSXd ].z.z.z.z.A.) 4.HXJXSXy iXHXpX  q .X] > K ZXjXV + =.z.l.l.d.p.i.u.r.w.w.w.8.q.q.q.q.w.w.r.",
"w.r.r.r.a.a.i.d.i.s.d.d.d.d.uX5 7 =XkXAXQ.> 6 /.i . ;.KXJXs fXHXHXDXX u iXF.F.F.) X -XHXKXJXf fXHXpX  O !./.V V xXvXjXG >.i.i.i.i.i.i.u.w.u.u.u.i.i.r.r.q.q.9.R ",
"c c c c c v x c c v v v v v 5X  > kXCXVXW.M *.E.S   &.HXKXg h dXHXSX4   ) <.<.| @ . 9XHXDX-.; fXHXaX@ % !.XX} V jXAXmX9X~.3Xk.d.l.d.p.p.i.i.y.y.w.w.w.w.0.7.0.7.",
"l x x c n n v v P I I P b 7X..q R.kXCXlXE.M  X;XM . X.JXFX6Xy / 3X{.  ' S r _ B _ $ o.4X1.o -.SXHXuX  @ ^..X' G CXhXVXAX>.< 4Xd.d.p.d.d.d.d.d.p.i.s.i.i.u.r.r.r.",
"B.B.B.B.A.B.B.C.C.x.v.Z.8X..  a tXCXCXkXoXN W.W.w 7 5XJXHXJX@.  .   S >.#X X X$X;X_ $     y FXJXHXsX. @ .X4X' N :XmXmXlX2.@ o uXv v v P b v I I U E U U Y Y R 7.",
"w.r.r.a.s.s.d.p.p.d.h.j.@.- - @ 1 tXtXlX>.6  XW.M R.KXKXHXJX@.. % 4 ~.XX#X$X$X+X$X%X[ &   ; SXJXHXrX@ @ !.9X[ > 1 yXhX` O   = y eXD.D.C.k.j.s.w.7.T P v c c k k ",
"r.w.u.y.a.s.s.s.p.p.h.d.d.j.4.@ + : Z + 2 t W.;XV $ ;.KXJXKX#.  Z [._.'.>X>X'.`.'.'.[.J O 5 SXJXKXtX  1 ~.qX$.O @ 2 ,   X d B.B.l.g.l.g.l.j.k.l.c.V.Z.V.Z.C.C.l.",
"w.r.r.u.a.s.i.s.p.d.p.m.j.d.j.aX0X3   .   < yX%Xw O e ( @.FX+.  i !.H U.>X'.Q.>XY.K U.U.O % DXJXyXw @ 3 2.9XX.$ . X   2.eX].l.l.g.l.g.d.s.s.a.a.i.a.y.r.t.a.r.w.",
"w.w.w.w.w.r.a.r.t.w.r.r.a.u.i.u.y.9X2Xa . 4 _ E.:.:.F     6.6XL 7 !.!.J U.>X>X>XJ U.].J 5 [.{.<.r $ %.$._.%.S . $ }.4Xi.i.u.u.u.w.w.w.u.u.u.u.i.r.r.w.7.0.7.0.9.",
"7.7.q.w.w.w.u.i.a.p.p.d.d.d.l.j.l.z.l.sXs   4 ~.9X;X,.A H   ^.&.Z [.GXU.J U.U.J J lXlX=.i {.@ q N *.9X9X3Xa   0 3.Z.B.z.z.z.l.l.g.B.d.d.d.d.d.i.p.i.i.i.i.r.r.w.",
"w.w.u.a.i.a.i.s.d.s.d.d.d.j.d.B.l.l.l.l.pXy . ;.2.R.XX-XXXS O . 9 [.lXKX=.K U.7 bXbX8XL . : 2 E.9X)..X%.3.a # 1.V.z.z.z.l.z.z.l.g.l.d.d.d.d.d.s.i.s.i.i.u.w.u.r.",
"r.r.w.w.a.a.a.s.a.s.s.d.d.j.d.g.g.l.l.B.B.eXy O & $.-X X).&Xe < % K U.lXJ H U.7 lX].p o   . OXoX-X9X~.& O   4.z.V.l.g.g.d.p.d.s.d.s.i.u.r.w.w.w.w.q.q.q.q.9.7.9.",
"7.0.0.0.0.0.0.w.w.w.r.u.u.u.i.i.i.i.i.p.d.d.G.=   o.-XW.;XXXr O 7 + i 3 > J 6.% 9 g o o % @ -X-XE.~.* @ o 2Xd.g.p.d.s.d.p.p.p.i.d.s.d.d.p.p.d.d.d.s.a.a.r.r.w.w.",
"w.w.r.u.i.a.i.i.p.p.p.d.d.d.d.g.B.g.l.B.V.V.Z.eXi 5 r G =X@Xr A =.X.+ + Z _.[.=.% % L L   1 E.-X,.$ O X 6XV.S.z.V.V.z.z.l.l.l.l.l.d.d.h.d.d.b.s.s.s.y.w.w.0.0.0.",
"w.w.r.r.a.a.s.s.s.s.s.p.h.d.d.B.l.l.l.l.z.z.z.V.z   X @ ` H w ' #X X] : Z 6.[.L % Z ^.%.. : A $.e   O . H.x.Z.Z.V.A.B.d.p.p.u.f.w.f.u.w.w.u.e.w.0.0.0.w.w.0.0.0.",
"0.9.9.0.q.q.q.w.w.w.r.r.r.u.u.u.i.u.i.i.a.s.s.d.{.y . X   . X G $X$X X6 + Z X.O > =.=X*.: $ O . .   5 @.p.d.d.p.p.p.p.p.d.g.b.l.j.j.d.d.p.p.d.s.s.s.a.a.r.w.w.w.",
"w.w.r.r.a.a.s.a.i.s.p.d.d.g.d.d.l.l.l.l.l.z.z.z.z.5.. o $ < 1 F ;X$X'.6 t 8 : 3 + !.qX[ + + , t % . p Z.z.x.c.z.V.z.l.l.B.l.l.g.l.d.p.d.p.p.p.s.i.a.i.a.r.r.w.w.",
"w.w.r.r.y.a.a.a.p.s.s.h.d.b.d.d.d.g.l.l.l.c.l.B.x.3.  y 3X}.0 + w $X@X6 [ ).).E.t !.&X[ O N <.4XX.  5 V.Z.Z.z.x.z.B.z.l.l.l.l.l.d.d.d.i.i.i.y.r.r.w.e.w.q.q.9.q.",
"w.w.w.w.u.i.y.a.p.i.d.d.d.d.g.d.l.l.l.l.l.B.B.C.l.2.  < .X_.F O _  X=XW.] w M M *./.&X*., >. X9XD   p 7.Y Y U U U E P v v c c c n c c c c z l l l z l k l z k j ",
"v c v P v v I P v v v v I v v m v v v v v v v v 3Xt t | oX3X!.F t /.&X*XT.{ { } '.%X&X*.w OX-XOXF % - ..i.i.h.i.h.h.h.j.d.m.k.B.m.k.k.c.C.C.B.C.B.B.C.A.m.B.A.C.",
"R R q.q.w.y.t.d.p.h.d.m.k.m.C.C.B.C.C.Z.F.Z.D.F.F . G #X&XoX&.p 5 ,.).(.$X>X>X+X@X|.,.A 1 | .XoX=.Z & o v.x.x.c.z.z.l.l.B.g.d.d.d.d.p.p.s.a.s.s.a.a.y.r.w.r.w.w.",
"w.w.r.w.r.i.u.a.s.a.s.s.d.d.d.p.d.d.B.B.j.B.l.l.' + C  X-X9XF % % : =.).@X+X$X X@XE.t $ * * >.-X;X%.O O 3Xx.z.l.l.l.l.l.d.l.g.g.d.h.p.d.i.p.a.a.a.t.t.r.w.w.w.e.",
"q.w.w.w.w.w.w.y.a.i.s.i.p.p.d.d.d.j.j.j.j.l.l.l._ , ]  X(.).Z 9 F % + *.(.*X>X@X|.t $ u ' @ :.-X#X:.1 O @ uXs.a.i.u.u.u.u.u.u.u.i.u.w.f.w.w.q.7.7.7.Y 7.7.Y R R ",
"f.w.w.w.w.r.y.y.w.w.q.q.w.w.w.w.r.i.d.l.d.g.A.F + B W.:XW.V O 7 L p + 3 *.@X|./.w @ r ` _ * q |  X;XT.$ @ {.B.B.l.j.l.j.j.d.d.i.u.w.u.s.s.i.a.a.w.a.u.w.w.w.w.w.",
"! 9.9.7.7.7.7.7.w.r.s.d.s.b.h.d.p.i.w.w.w.i.u.e $ } #XW.B > O t L #.Z O 1 t 6 r * r o.` u , , w } +X#X>.w F 5XB.l.l.j.l.g.d.d.d.d.d.p.p.i.u.a.u.a.r.r.w.w.w.w.0.",
"9.q.q.w.w.r.r.w.r.u.a.a.b.d.p.p.d.d.d.d.l.p.O.4 A /.*X(.} ] M > Z =.=.F , . @ @ e ` ' 2 , @ [ *.T.*X%X X,   u 5Xj.j.j.d.d.d.d.d.d.i.w.0.w.0.0.0.9.9.9.R 9.R 9.~ ",
"f.q.w.w.w.w.~ T Q 9.y.d.s.s.a.p.d.d.d.d.A.+.X . >.tXXX/.;X*X} G A Z e %.p D &.5 o.a @ , _ ' ).=X@X;X%X-X%.&   d m.j.p.u.u.w.w.8.w.w.w.w.w.u.w.w.w.w.w.0.w.e.e.e.",
"q.f.q.w.w.r.s.a.y.y.a.a.s.s.p.s.i.i.s.d.uXi o   O.2.>.oX&X*X'.@X*.N . u D uXSX&.X.$ $ $.XX;X/.%X#XE.$..X4.s o @.w.a.u.i.i.p.d.d.p.s.i.i.i.a.a.r.u.w.w.w.w.w.q.q.",
"q.q.q.e.w.w.w.w.r.r.r.i.a.r.w.q.w.w.w.w.w.wXo 5 ;   F _.E.(.>X`.>XT.r   d iX].+.. q | %X#X*X(.(.XX>.$   = g ; @.j.p.d.d.d.d.d.i.i.u.r.w.0.0.7.! ! U Y U U v n c ",
"! ^ ^ R R R ~ R R 9.9.0.q.q.w.r.u.a.s.p.d.d.d.G.D .   & t R.%X;X#XXX!.& 2Xp.g.].q ;..X.X/. X*XG 1 : O & eX0.7.7.R R Y U v v v v x v x x x x x x x x x l x l l l ",
"q.q.q.q.e.w.w.w.y.w.y.r.r.i.i.i.d.i.s.d.d.d.d.p.].dX^.. O N >.|.>.S .Xq 3XR ! R u ;.%.' -XOX| O , %.mXeXp.h.h.h.M.h.h.m.j.h.j.h.h.h.p.h.s.s.s.s.a.s.y.y.r.r.w.w.",
"q.q.e.q.w.8.f.q.w.w.q.w.w.q.9.Q Y Y Y Y U T R R ! ].^.q . + B >.&.@ X.# rXZ.Z.C.q 0 q ) .X_ $ r ` 3.rXj.j.j.h.d.d.d.h.p.s.a.s.a.s.u.i.a.w.r.w.t.w.w.w.q.e.9.9.~ ",
"Q ^ Q I P n P n P U R w.y.h.m.m.C.B.B.B.C.B.B.B.C.^.X.( r O . S %.%     5Xd.l.A.=   X t ` * * F ` o.( ].d.d.d.p.p.p.s.p.s.a.p.j.s.y.r.w.w.t.q.~ R T U R Q Y ~ ~ ",
"n W ^ t.m.m.m.C.l.j.h.a.a.a.r.i.a.s.a.a.p.i.s.p.2.o.X.o.( r @       s = 5Xd.d.d.y y q   . @ ' %.F o.o.O.p.d.p.s.p.a.y.w.w.0.e.^ q.q.e.e.e.e.t.e.y.e.q.e.0.0.9.9.",
"M.b.t.r.e.e.q.w.q.w.y.w.w.r.r.r.i.a.a.a.s.s.s.s.}.` X.o.&.X.u   . = d.y fXd.d.p.- fX[.    y O.O.o.&.o.;.7Xw.8.9.7.q.w.w.r.s.b.s.y.b.t.M.n.n.y.t.y.e.8.q.^ q.q.~ ",
"e.^ 9.0.q.q.q.q.w.w.w.w.w.w.w.r.u.a.u.u.i.a.i.s.;.4XsXX.O.aXd.^.  s d.s 5Xd.p.p.f iX4.  f ].b.4.S >.uX` J.y.s.s.s.a.i.i.r.y.w.e.e.q.! ! q.^ ^ e.! q.q.! q.q.~ 9.",
"~ ~ 7.! ! ! R 9.R ! R q.7.q.9.q.q.w.w.w.w.w.w.w.n.n.pX..&.7.0.5.f iXw.7XJ.u.u.u.iXn.J.-.s 9.w.b.4.{.p.sXi.i.y.y.w.9.Q T U U I U U I I W U U T T T R ! ! q.q.w.^ ",
"Y Q Q ! ~ ~ 9.9.q.R q.! q.7.9.7.9.7.9.0.0.0.0.w.a.b.s.4.;.d.i.7X5Xp.i.a.u.u.r.w.n.b.b.G.6Xb.d.a.rX.Xs.p.p.s.i.s.a.d.p.p.d.j.d.m.m.j.j.m.j.h.h.a.i.y.f.q.! Q T Q ",
"Y m Y Q U Y Q Q R Q 9.! ~ ~ 7.7.! 9.7.9.9.9.7.0.0.0.0.0.uX0.0.w.w.w.w.w.f.w.r.w.w.u.u.u.w.u.u.w.sXuXM.w.w.w.w.0.0.0.7.0.~ 9.! ! Q Q R ! T R Q T Q W U W Q W U U ",
"~ ~ ~ 9.~ 9.9.9.0.0.0.0.q.w.0.w.0.r.0.r.w.r.r.r.a.a.a.a.a.a.a.a.a.t.r.r.r.a.w.w.w.w.0.0.w.0.0.0.e.w.0.w.0.0.0.w.q.w.w.w.w.w.w.w.w.w.q.w.q.q.q.q.9.9.9.9.^ ~ ! ! ",
"b b b b m W m W Y ~ ~ 7.9.0.w.w.w.w.w.w.w.w.a.r.a.a.a.a.a.a.a.s.a.s.s.a.i.i.i.p.i.i.i.i.i.i.i.a.a.y.a.a.u.u.u.u.r.y.r.w.w.w.w.w.w.q.w.q.0.9.q.9.~ q.! ! ^ e.~ Q ",
"9.0.0.0.0.0.e.e.q.0.0.w.w.0.0.0.0.w.w.w.r.w.w.r.a.a.u.w.i.a.a.a.t.a.s.a.s.a.a.i.i.u.i.a.i.i.a.a.a.i.u.r.a.w.r.r.a.r.w.w.w.w.w.q.q.w.8.q.q.q.9.! ! 9.9.~ ^ Q ^ W ",
"I I m m m m m m U U W U Q Y U Y Y Y Y ~ ~ 9.0.q.w.w.r.a.r.a.r.a.a.a.u.u.u.u.u.a.a.u.u.u.i.y.a.u.a.r.a.w.u.u.r.t.w.w.w.w.w.w.w.w.q.q.q.~ ~ Y U U U U U U W I I Q ",
"W ^ 7.#.9.9.e.^ 9.9.9.9.9.0.e.e.q.q.q.0.0.9.9.! ~ 7.R ! ! ! ! ! ~ 9.9.9.7.7.R ! 7.Y Y 7.R ! R 9.R 9.~ Y Y 9.R ! Y Y Y T Q Y Q T T T Y T ~ ~ q.^ ~ ! ! ! ! Q W W ",
"b n b b m m W Q Q ~ 9.~ ~ 9.e.e.q.q.q.q.0.w.w.w.w.w.w.u.w.u.r.u.a.u.w.a.w.w.r.t.r.t.u.w.w.w.e.w.w.w.0.w.w.w.w.r.w.e.w.q.w.q.0.0.0.9.9.9.9.9.~ ~ ! Q U I I P z z ",
"h h h h h h h h h h h j j j j j k c k k x l l l x x c c c c v c b b v b b m m b W I m m U I U U U I W U v b b b b b n b c c c l x l l k k j j h h h h h h h h h "
};
