/* XPM */
static char *enimy_move_left1712282157[] = {
/* columns rows colors chars-per-pixel */
"80 80 255 2 ",
"   c #010400",
".  c #000B01",
"X  c #0A0A08",
"o  c #001303",
"O  c #001A03",
"+  c #02140A",
"@  c #0B140C",
"#  c #021C0B",
"$  c #0A190B",
"%  c #0B1B12",
"&  c #151A16",
"*  c #11140A",
"=  c #02220C",
"-  c #002707",
";  c #042312",
":  c #0B2315",
">  c #032C14",
",  c #0B2A18",
"<  c #152B1C",
"1  c #18251B",
"2  c #033719",
"3  c #14331D",
"4  c #00360E",
"5  c #21251F",
"6  c #1B2C22",
"7  c #0C3923",
"8  c #183725",
"9  c #252926",
"0  c #25372A",
"q  c #2A3B31",
"w  c #373B36",
"e  c #31352E",
"r  c #231C1D",
"t  c #4D2C1C",
"y  c #532F1C",
"u  c #58321F",
"i  c #5D3521",
"p  c #5B3624",
"a  c #623722",
"s  c #653A25",
"d  c #6B3D26",
"f  c #6B3E29",
"g  c #633D29",
"h  c #703F28",
"j  c #05441A",
"k  c #084925",
"l  c #15462A",
"z  c #185835",
"x  c #0D4F2D",
"c  c #26472D",
"v  c #284836",
"b  c #35463B",
"n  c #29573C",
"m  c #37553C",
"M  c #186439",
"N  c #136937",
"B  c #22653E",
"V  c #6E412A",
"C  c #6E4027",
"Z  c #73442C",
"A  c #79462D",
"S  c #7C4A2E",
"D  c #76472D",
"F  c #764932",
"G  c #7D4B32",
"H  c #764731",
"J  c #7A4E36",
"K  c #43453D",
"L  c #394B42",
"P  c #2B5942",
"I  c #3B5245",
"U  c #3C5549",
"Y  c #3C5B4C",
"T  c #365645",
"R  c #3E5E50",
"E  c #296647",
"W  c #38654B",
"Q  c #3C6752",
"!  c #397956",
"~  c #2C764D",
"^  c #1C7445",
"/  c #454C46",
"(  c #44534B",
")  c #435B4D",
"_  c #48564A",
"`  c #455D51",
"'  c #4A5D53",
"]  c #4D5653",
"[  c #545B56",
"{  c #504F4F",
"}  c #715449",
"|  c #4A6354",
" . c #476857",
".. c #56675B",
"X. c #47775C",
"o. c #55745C",
"O. c #41624C",
"+. c #586B62",
"@. c #4B7963",
"#. c #5A7867",
"$. c #666B67",
"%. c #66776B",
"&. c #697972",
"*. c #777977",
"=. c #72776E",
"-. c #443D42",
";. c #824C2E",
":. c #894F2E",
">. c #834E32",
",. c #864F36",
"<. c #855134",
"1. c #8B5335",
"2. c #855339",
"3. c #8D5639",
"4. c #8D593B",
"5. c #8E5937",
"6. c #915636",
"7. c #945937",
"8. c #915739",
"9. c #945A3A",
"0. c #9A5D3A",
"q. c #995B37",
"w. c #8C512E",
"e. c #9C613D",
"r. c #98633B",
"t. c #A3633D",
"y. c #A8663E",
"u. c #945E41",
"i. c #865B47",
"p. c #9D6442",
"a. c #976449",
"s. c #9B6C53",
"d. c #9A725A",
"f. c #A36641",
"g. c #A46A44",
"h. c #A96B43",
"j. c #A86843",
"k. c #AD7348",
"l. c #A77554",
"z. c #907C70",
"x. c #A77C64",
"c. c #358A5A",
"v. c #3D8C62",
"b. c #3BAD77",
"n. c #44855E",
"m. c #498969",
"M. c #57876B",
"N. c #4A9A74",
"B. c #589878",
"V. c #4F926E",
"C. c #64866B",
"Z. c #688A76",
"A. c #77877B",
"S. c #63947C",
"D. c #68987B",
"F. c #74957B",
"G. c #4BA77A",
"H. c #54A47C",
"J. c #5AA27E",
"K. c #54A97B",
"L. c #45B37E",
"P. c #63A37D",
"I. c #AC8A76",
"U. c #B2896F",
"Y. c #82847F",
"T. c #7B8B83",
"R. c #699B82",
"E. c #789984",
"W. c #5DA482",
"Q. c #5BAB83",
"!. c #58AB84",
"~. c #49B382",
"^. c #5CB385",
"/. c #57B487",
"(. c #4CB488",
"). c #62A484",
"_. c #63AB85",
"`. c #64AC8A",
"'. c #6BAB8B",
"]. c #6AA587",
"[. c #73A38B",
"{. c #77A88B",
"}. c #63B38B",
"|. c #67B68C",
" X c #76AA92",
".X c #6AB893",
"XX c #78B695",
"oX c #70B18F",
"OX c #5E9F82",
"+X c #78C89B",
"@X c #6BC897",
"#X c #79D8A8",
"$X c #55F9AF",
"%X c #78E5AD",
"&X c #78EDB3",
"*X c #69FAB5",
"=X c #78F7B9",
"-X c #67EDAC",
";X c #54C58F",
":X c #7BFBC2",
">X c #888B87",
",X c #85978A",
"<X c #989997",
"1X c #8E9791",
"2X c #AD9A90",
"3X c #87A895",
"4X c #96A59A",
"5X c #85B295",
"6X c #B8A697",
"7X c #9BA9A3",
"8X c #92B8A4",
"9X c #A9A9A6",
"0X c #B6B9B7",
"qX c #ADB5AC",
"wX c #A59CA1",
"eX c #C2A797",
"rX c #C7B7AB",
"tX c #CABCB3",
"yX c #87D8AB",
"uX c #8DD0AC",
"iX c #B9C4BD",
"pX c #A8CBB5",
"aX c #87EAB8",
"sX c #97E8BA",
"dX c #86F5BC",
"fX c #93F1BE",
"gX c #88E0AE",
"hX c #A3EABE",
"jX c #81CD9F",
"kX c #CAC5B9",
"lX c #BBC8C2",
"zX c #BDD2C8",
"xX c #ABDDC2",
"cX c #89FAC4",
"vX c #97F7C4",
"bX c #93EDC2",
"nX c #A8E8C5",
"mX c #A7F6C7",
"MX c #B2F7D2",
"NX c #C6CAC7",
"BX c #C7D3CB",
"VX c #CCD9D3",
"CX c #D3DBD5",
"ZX c #D6D7D5",
"AX c #D2D1CC",
"SX c #D6E3DB",
"DX c #C7E5D3",
"FX c #D7E6E2",
"GX c #F4F2EE",
"HX c #F4FDFB",
"JX c #FDFDFC",
"KX c #F8F8F5",
"LX c #EBF2ED",
"PX c #E1E1DD",
"IX c #C7BEC3",
/* pixels */
"7.7.6.6.3.3.,.,.,.,.J >.G G F G A D S S D D D D D D Z D G F F G F J G J J F F V Z Z C Z Z C C Z C C Z C Z V Z Z f V f V V V C f C d V f f f f f g f f s f f s g ",
"H F F F G H G >.>.>.,.,.,.1.1.6.6.6.1.7.8.8.9.9.7.9.0.7.0.p.e.9.p.r.0.e.e.r.p.p.e.e.e.0.t.0.e.e.e.0.0.e.0.0.9.0.0.0.0.q.9.9.9.8.8.7.7.6.8.8.8.1.3.2.1.,.2.,.2.,.",
"F H G S G >.G G G J >.>.>.,.,.,.<.<.<.<.1.1.1.1.5.1.5.x.1.3.3.4.4.4.d.8.1.a.3.4.1.8.4.3.6.6.5.1.5.1.6.1.,.1.1.1.1.1.s.<.1.1.<.<.,.>.,.>.>.>.G G J G G >.H G H J ",
"H G H G G G J 2.>.>.2.>.,.,.<.,.w.1.1.1.<.1.1.1.1.1.1.1.4.1.8.9.3.6.a.6.1.tXNX8.8.0.6.3.1.8.3.1.1.1.<.:.>.>.>.G 2.G G G S F S S A A Z Z Z Z D D h H Z Z H f H V ",
"f Z f h h h h h h Z D D D A D D S F F F G G G G S G G ;.;.I.>.1.1.d.CXVXVX9X<X>.>.<.>.>.S ;.S I.;.<.<.1.5.4.6.3.3.3.d.3.1.1.2.<.<.<.<.>.,.>.>.>.,.>.>.G G G >.G ",
"G G G G >.,.>.>.>.,.,.<.<.,.1.1.1.1.6.1.1.1.4.1.5.8.a.4.I.1.1.x.s.VX*.( [ ,Xa.u.4.q.q.8.U.CX8.U.I.6XkXkXI.1.,.I.I.s.GXa.1.1.1.<.>.S ;.G S G F D H Z Z h h h f h ",
"H G H G J G >.>.>.>.>.G G G >.>.>.;.>.;.>.>.>.>.<.<.;.<.;.<.0XpX' %.[ b 9X<.4.<.>.<.<.1.CXw 1 9 6 8 9 9 9 9 9 9 e 9 e 9 *.G >.d.G >.>.>.>.,.<.<.>.>.G G G G G G ",
"Z H H A H H H H A G S ;.;.>.>.>.;.<.<.<.<.<.3.8.1.5.x.s.s.7X%...( U | 9X2X9.9.9.q.q.4X/ L   . o b  .#.' 1         X *.qXZX>.2.>.;.>.G >.>.>.<.<.>.,.>.>.>.J G G ",
"G G G >.,.>.>.>.G F D Z Z D S G <.1.1.1.8.9.9.8.8.8.SX3X7X` L ( ] ' / CXq.q.SXA.A.%.b   O I O.Y C.3X3XI % &   9 *.wXZX,.:.,.,.,.<.<.>.>.S G G F H F A A H >.J G ",
"G G >.>.>.<.>.,.<.<.1.5.5.5.9.r.e.9.6.q.9.q.9.u.q.BX4X` L | | I ] [ A.LXBXqXY..   < 3 3 O.E.3XC. .X.) ( X   -.*.u.u.8.9.8.6.6.6.1.1.8.<.S <.<.<.<.>.>.>.H H H Z ",
"F G G S G >.G >.>.>.>.<.<.<.<.1.<.<.3.4.4.3.1.8.6XE.I _ U U I ) b %.iXVX_ . 1 : 3 F.E.F.M.M.V.n k 2 I A.e X >Xq.8.9.9.8.8.6.1.6.4.6.1.5.5.1.2.<.<.<.>.<.>.>.G G ",
"G G G S >.G >.>.>.<.<.<.<.<.<.<.2.4.1.1.1.1.d.kX,X' I `  .) | Y ) b 0 o $ m ,X3XZ.C.{.W j k z Q.nXxXuX8   <Xq.q.8.8.9.8.8.8.8.8.8.1.6.1.1.1.1.1.1.<.<.>.,.>.<.G ",
">.,.,.G <.<.<.<.<.<.2.2.<.1.<.4.1.a.1.1.I.1.FXF.) |  .L I ) ) ) b O o ; | Z.[.{.S.n k v.+X@X@XgXsXnX8Xo X 0XS S ;.S A A A A A Z D Z C C C Z V C d d s d g d a a ",
"a a a a a a a a s s s d d d V f C C V d V FX,XI ` ' T ` ..m < 0 ; , O. .Z.3XM.l E c.K.+XaXdXdXvXsXjXT = A.rXD S A D Z A Z Z Z h V V V f g g g d a s a u p i p t ",
"p.p.p.f.f.g.p.g.y.y.g.g.g.g.g.g.y.h.y.U.kX3XU U U | Y U | b $ o 8 W D.[.XXB.z - ~ #XaXdX&X&XcX&XsXP.O 3 DXt.t.t.e.e.t.r.e.r.0.0.r.e.0.r.0.9.9.9.0.9.9.0.9.9.u.9.",
",.2.,.2.2.2.1.1.1.5.5.9.5.5.7.7.9.eXq.6XT.( ) ) L T +.b v . ; ; P 5X{.o.M.X.z c.gX%XcXdX=X=X-X:XfXoXO ; BX0.e.0.e.0.0.q.7.q.1.1.w.<.<.1.1.5.4.1.1.1.<.2.<.2.2.2.",
">.,.,.<.<.,.A ,.8.8.8.8.8.8.q.8.q.p.q.7X` U Y ) I | | c . 8 O O.F.F.C.c j V.fXdX*X=X*X*X*X*X-XdXfXP.l - 7Xa.2.,.<.<.1.<.w.1.6.6.3.8.3.<.>.A >.>.;.;.>.S G G S F ",
"J >.>.>.<.>.1.8.<.,.<.>.<.<.<.<.,.u.0XT.T +.Y b | ) b < o o.Z.D.n.j j pXhXjXfXgX=X*X-X*X=X-X-XdXsXDX{.4 7 7X0.0.0.0.0.0.0.7.q.7.q.8.8.q.q.8.4.1.,.<.<.1.4.1.<.<.",
">.>.>.;.;.>.<.<.1.1.6.7.8.q.9.0.8.0.4X..(  .I U | q o O # A.5XX.j 4 +XyXhXhXhXhXvXdXdXdXdXfXhXhXhXmXhX5X2 , L &.t.e.0.0.9.0.q.q.q.q.q.8.3.8.8.6.1.1.1.1.1.<.<.<.",
"G G G >.<.<.<.<.<.1.,.<.<.<.<.<.1.<.%.L ' L U ` q $ : ..| F.o.> j P.hXhXhXsXgXhXsXmXfX@Xc.B ! X.~ N m.mX Xm.z ; +.$.$.IX6.1.1.<.1.1.<.,.>.>.<.>.;.>.>.>.G S G G ",
">.<.,.>.>.;.>.>.:.,.,.6.8.q.9.9.a.0X+.U ` U ` 0 + . q ,X| ) 3 2 V.hXfX^.K.N.K.P.K.K.K.c.~ c.X.B ~ B v.aXvXMXXX@.( X   } wXwX<XU.q.9.9.9.u.9.4.3.4.1.3.<.1.1.1.2.",
"2.4.1.6.1.6.6.6.6.6.7.7.q.0.0.0.eX] U ' R ` T # . : ) #.O - 8 E.hXhXjXN k N N M M j N N.yXMXMXhXfXdXdXvXaXyXxXxXlXr X       @ CXa.9.9.u.u.u.9.4.4.8.8.<.2.1.1.<.",
"G <.2.J 2.>.;.>.>.>.,.,.2.<.1.1.6X$.U ` R R v # o L ,XZ.= = M.nXfX|.j @XhXsXgXfXaXaXgXfXvXaX%X&XdXdXdXaXbXMXxXpX4X&   * r & w s.9.9.8.9.1.4.4.4.1.>.>.>.>.>.S S ",
"2.4.4.4.4.3.3.3.u.8.9.q.q.q.q.0.s.tX%.L U Q Y , o T 3XZ.> - 8XnXhXgXj j P.hXfXaX-XdXdX&X=X*X*X*X=XfXdXsXbXnXE.< 6 @ X Y.U.ZXtXf.p.p.u.u.9.u.9.9.9.4.8.3.3.1.<.1.",
"p p p d a s f f h h h h Z Z A A H ;.%.b  .R P P + > R Z.@.2 l ).hXhXP.x P.hXfXfXdXdX=X=X*X*X$X$X=XdXbXuX! m $ 0 qXqXiXAX;.;.;.A ;.S S S A D Z Z C V f d g d a i ",
"u i i u i i p p i i a a a p a a } 0XzXC.P R L P L , # Q 3XQ 2 l P.hXhXP.n.c.K.dXdX-X-X=X*X*X*X$X*XbXgX! =   b 0Xk.l.U.k.y.U.y.y.k.k.k.k.h.h.k.g.g.g.p.g.p.p.r.r.",
"S <.J 5.3.8.9.u.p.e.p.f.f.f.g.f.g.g.U.lX .Y | Y Y 8 + , W D.X.- c P.MXhXN.N ~ K.|.#X=XdX*X-X=X*X&X#Xm.4 . K wXj.g.t.h.t.t.t.y.t.e.0.0.0.9.q.9.q.9.9.7.1.1.3.1.3.",
"<.1.1.1.3.8.9.9.4.8.q.q.u.ZXAXIXNXBXzXLXlX#.U m  .8 # + - Z.5XX.j j 5XgXgXfX+Xj - @XfX&X&X=X=XdXcX/.O O   9Xj.j.t.t.h.f.t.r.t.t.0.0.0.q.0.9.9.9.9.9.8.8.3.1.1.1.",
"1.1.6.1.8.8.8.9.q.9.u.q.9.[ X & X & @ 1XHXzX' ' ' _ 6 O = o.{.,XC.4 j jXhXhXsXjXj j N.fXbXcXvX#XbX!.7 ; . 9X9.9.q.q.7.q.q.q.r.r.t.0.0.q.0.0.q.0.7.7.6.3.4.1.1.1.",
"<.<.<.>.>.<.<.,.<.1.1.1.[ X   X X     wXGXHXSX..b [ _ e O 0 o.F.C.n.j @XhXfXsXhXyXoXc.j ^ gXmXbX%XbXW.; + <Xh.h.y.j.t.t.q.q.q.w.w.w.1.w.w.;.;.;.>.>.;.>.<.G S S ",
">.<.1.1.8.8.8.q.9.0X[ { X *.=.  r wX2XZXJXHXKXVX=.{ [ ..0 . 3 o.I.+XB n.jXhXfXfXgXmXyXM 4 c.#X:X:XMX#X# . 7Xy.y.g.t.y.t.y.q.t.t.0.0.0.0.0.7.1.S D C d Z S <.8.3.",
"1.6.6.6.7.8.q.8.lX[ X +.*.Y.-.r <XGXJXtX*.>X>X>X9XA._ b ..e o : o.P.Y.4 B +XfXaX%XfXsX#Xc.c.#X:XbXbX#X@.; qXh.h.y.j.y.t.y.t.t.t.t.0.0.0.r.0.t.g.g.g.h.j.g.f.9.1.",
",.<.<.<.,.3.>.>.=.  9 SXJX{   w qX6X6XK   .   . Y.A.b I ) _ 8 O - o.,X! - M #XaX%XcX&X&XcXcX=X:X&X:XgXbXl #.VX0.q.q.e.t.y.y.t.e.t.0.0.0.0.0.9.7.7.9.9.9.3.3.3.3.",
"<.<.1.6.8.a.q.ZX%.. b SXPX$.  * * * - 0 < o . . - o : ..m | | 3 $ - F.P.B 4 k #XaXcX&XcXcX:X#X:XcX:XbXnXn + ] tXy.eX0.q.8.8.7.7.7.p.7.7.q.0.9.q.9.9.q.8.6.7.1.1.",
">.;.>.<.,.1.1.$.  _ SXLXKX|   O $ -  .Z.F.Z., > = . 3  .) ) O.3 o O C.F.V.! 4 x +XbXgXbXbX#XcXbXbX#XxXxX8X| 6 { U.y.y.t.y.y.t.t.0.q.q.6.6.1.1.w.<.<.<.<.<.<.1.1.",
"1.3.3.6.8.8.u.b ..CXKXSX..= - 3 M.D.D.B.P.P.V.@.2 > O , m | ' m 3 - l M.{.D.B 4 l uXnXsXuXE z k 7 v q U pXlX[ + $.ZXq.q.q.7.7.8.q.6.6.6.1.6.6.6.7.7.1.1.<.<.<.G ",
"s s s s a d T.9 *.HXDX#.- n M.X.D.|.P._..X^.`.XXX.X.l # 8 b b | m 0 o c Z.F.F.X.O v  .W n O O #.4X$..   / [ e + % ..U.9X] $.[ ......<Xq.7.q.7.5.1.1.<.<.<.;.>.>.",
"i a a s g rX1   / 4XF.o - W F.P.}.J.}.K.W./.N.^.J.P.V.P ; 0 _ .._ [ $   ..4XE.F.Y # O # o $ . qXJXNXz.$.$.&   o o $ ..q . . . . . . 6 7Xr.9.0.q.q.9.7.7.8.6.8.1.",
"f.f.f.f.t.f.e $ < O . l z M.P.P.N..XW.^.!.!..XN.`.`. XM.= # < e K e * o _ E.D.[.[.v 8 ,   @ w tXJXGXGXKXJX$..   . $ . ; v 2 3 7 8 l O 8 qXBXZ C Z C D D A A ;.;.",
"1.3.8.8.q.x.9 * | o.c Z.P.P.@XP.).W.).W.m.OXQ.Q.`.W.R.B.> # . $ * . $ , > E '.{.B.[. Xo.: & AXJXJXGXGXPXSX{   % % % ,  .S.R.).'.D.[.#.= : . <X1.;.D C d s a u u ",
"1.6.6.u.8.l.1 _ P.Y.C.P.{.P.P.|.XXR.l = 2 x '.).OXOXR.oXM.7 . + O - M.D.B.W.Q.!.W.).OXR.&.1 NXJXJXKXCX9 : # # 6 F.R.D.[.S.B.Q.`.'.D.{.D.C.< $ >Xy.j.h.h.h.h.g.f.",
"1.6.3.q.CX/ . %.6XC.j j x n.P.n.7 c # O # . l  X XOXOXR.8 + O.%.X.B.'.J.`.J.OX`.OXP , 1 6 & ZXGXGXBX0 + # Q @.B.[.[.].[.oX].W.W.P.P.].D.F., % @ A.8.6.8.s.8.1.1.",
"<.<.1.1.kXX . ..C.W P.Y.j n.Y.V.+ o +.>XT.%.% P OXOXR.B.> O M.R.H.}.}.!.}.J.B.n Y %   w >XwXJXwX=...  # P B..X`.B.OX].'. X[.R.XXXXP.S.].{.| : . [ s.<.;.>.>.>.,.",
">.>.<.CXA.o c F.m m DXhXO.n.V.m o   AXJXGXNX+   #. X`.v.z 7 P B.!.G./.^.XXS.Y o .     / 9XwX<Xe   $ n E W././.K..XB.m. . .@. . .W W M.3XE.E.Y : / 7.q.8.6.6.8.a.",
"5.w.5.6X. o o.C.m n.Y.F.5XC.l : b t NXGXKXAXb % Q  X.XOXW.z O B .X/.K.V.M.m O 3 . %     X   6 1 < m [._.K./.N.}.oX! 7 + .   + . O O 3 D.E.E.3X+.| iX7.7.7.6.1.1.",
"w.6X5.8X. 0 F.8 F.Y.m F.C.m $ / HXGXKXKXJXKXNXb + E `.`..XW.z ~ Q.!.J.k - 4 l #.8 : % # + 7 R.[.E.).`.}.K.G.~._.m.7 . & 0 & & 1 : ; O 3 T.E.E.Z.| q CX<.,.>.>.;.",
">.a.w.Y.c V.Y.c - m C.Y.0   %.SXFXHXKXKXGXJXGX..7 E `.`.!.}.W.V.B.J.P.x - M _.'.OXm.N.OXN.OX}.OX^.B.N.K.^.K.'.n.; o   z.ZXAXVXZXCXSX,X  , T.E.4X+.8 VX5.u.6.1.6.",
"5.5.4X6 3 Y.Y.C.o.C.F.c o =.CXJXJXJXJXJXJXPX=.) , 7 ! .X!.OX'.`.P.|.J.v.n.G.}.K.G.}.(./.(.(.L.(.!.!.^.^.H.}.X.2 ; 9XtXZXy.t.f.u.t.e.SX4Xo l #.E. .; b DX<.<.<.>.",
"2.1...  9 T.1X<X&.U w % +.VXHXJXKXKXJXKXHXVXL R < X 7 R n P S.{.P.|.K.|.^.K./.G.K.;XK./.~.b.L.~./.^.'.W.'.].@.. , 2Xf.t.q.7.6.w.w.6.6.BX# + #.3X .+   lX<.<.<.,.",
">.<.<X9 X ] [ $.6 . @ +.LXHXHXHXKXKXJXKXHXVX .+.8 %   X   # v B.P.K.K.K.L.L.K.G.K.K.G.G.;Xb.b.L.~.W.`.B.@.#.q % %.NXq.q.0.0.e.t.e.e.0.BX# O #.3X#.  % 0X3.1.6.1.",
",.3.8.9Xr 9 &   & q L FXHXHXHXHXFXFXFXFXFXqXR L L q     7 7 2 E P.@XK./.|.L././.K.K.K./.~.L.;Xb.G.N.B. X7 + @ =.j.y.t.t.t.t.t.t.t.q.q.zX, + @.,X#.. % zX1.3.1.1.",
",.3.6.8.i.AXq   T.rXtXHXFXHXHX0X' ] R R  .+.R U &   . 8 S.B.J.W.^.P.K.K.K.K.K.K.K.^.^.G.G.L.;Xb./.m.2 M.7 . $.j.y.y.t.t.t.t.t.u.0.r.q.BX1 . | 3X+..   BX<.<.>.G ",
"6.1.6.6.6.6.VXBXAX8.9.eXHX<X$.#.R R R T U U ] / r   e F.{.W.!.~.K./.^.K.K.Q.K.Q.K.|.! B .X;Xb.L.H.! O 7 O . Y.h i.h h 2Xd d s s s a s lX% . ..4X+.. % NXp i i p ",
"s f f d d d J C d Z f ZXqX..-.U R R Q Q R ' ..[ e @ b 3XR.^.(.~.K.K.^.Q.}.}.P.oX'.! j k }.(.G.(.|.B.m.X.3   9 >Xq.r.e.u.0.e.p.t.f.f.p.NX% . +.3X+.: 1XCXg.p.g.f.",
"S >.>.<.1.4.8.9.0.I.u.t.] -.U ' Q l z 7 8 8 P U ..9 , X.V././.;XN.! ~ E V.P.D.D.oX2 - x W.N.}.!.^.B.`.S.@.: . 6 Y.>XU.t.0.t.0.0.0.9.u.NX@ . [ &.b 8 8.1.1.1.1.1.",
"1.1.1.1.1.6.7.8.q.q.8.2X+.&.&.L v , 7 7 l 2 ; 8 n = O 2 _.!.~./.c.k - - Q {.].F.5X3 O n oXQ.}.J.J.`._.B.D.Q c : X   >XtXNXt.t.0.t.9.0.NX@   L L   1 6X1.s.1.1.2.",
"1.1.1.1.1.5.1.7.8.7.0.x.>X0XT.@ < ; OXR.OXB.7 , 7 # % 7 OX(.OX(.`.).> o O.E.C.A.F., O 8 D.oXR.).}.W..XOXW.OXXX@.; , + & *.8.6.6.8.p.1.9XX   X & & b 2X;.;.;.;.;.",
":.1.1.1.1.1.4.5.<.<.<.<.<...  9 Z.Z.R.Z.XX].OXOXm.'.Q + 7 ! !.`.].Z.# # : < : % < + . > 7 Z.R.[.'.W.N..X~.!.W.`.R.Z.: *.u.u.9.q.8.8.1Xr X X X &.I.CXw.1.1.<.<.1.",
"S <.;.>.;.;.;.;.1.3.9.9.u.[   & q 8 7 X. XOXOXOX X8XR.@.@.B Q OX5X#.% o .   . X o %   + + c 8 @.OX)..X(.!.b.@X!.B.7 + 9Xt.q.q.t.q.>Xe     X Y.ZX9.8.1.1.<.1.<.<.",
">.<.2.1.1.1.1.1.8.q.8.8.u.+.        L R. X X.XOX'.`.[. XXX@.OX X X&.6   [ 4X4X>Xq q 0 v c     8 z z ~ !./.!.!._.B.#   >X0.0.0.0.<X&   & <X>XI.,.>.,.>.;.>.>.G G ",
":.<.1.<.1.1.>.A A ,.8.u.q.[ e ] X ( A.#.W @.@.Q  .R  .R  .E. X XF.' & ..NXKXJXHX7XU U U L < 0 . # O - ~ G.^.Q._.W O ] 0X1.6.1.w.>X$.*.Y.1.6.6.1.1.1.1.<.2.<.<.2.",
"<.<.:.5.<.6.q.4.3.6.8.8.l.{ *.0X& >X%.8 + . + + +     % % ..+.&._ .   NXJXJXLXBXzXZ.Q  .` I ( @ o O 2 x V._.P.n O 9 eX7.x.q.0.q.8.q.8.8.8.8.s.1.6.1.1.1.1.1.1.<.",
"<.2.<.2.<.1.1.1.3.3.3.d.u.$.*.0X& $.9 + % , % 6 & r 9 r & + + + +   9 BXKXJXiX| T R Y Y q + % 6 # > l P.].{.W = 3 AX0.0.9.q.q.8.q.8.1.1.,.<.>.G H A A Z Z V f s ",
"G G G S G S S G S >.;.,.,.d.i.0XX 6     | CXVXVXrXAXtXVXZX6   +   6 BXLXLXiX..) Y Y Y v 3 , %.Z.Z.Z.E.{.D.F.|   5 GXd.Z Z h d d s s a a u d.a a a a a i i i i i ",
"<.<.<.<.1.1.1.1.1.1.5.8.s.8.8.0X  *   $.rX9.0.q.r.0.q.9.9.NXlX_ 0 lXLXHX8X+.' R +.U v P @.@.Z.'.R.[.[. XT.E.T.( & t ZXu.I.u.0.0.9.p.r.9.9.9.9.9.8.9.4.7.1.8.1.1.",
">.<.<.2.<.<.w.1.w.1.1.<.<.<.<.AX*.X $.ZXA D D ;.:.1.4.r.r.p.p.NX9XkXLX8X&.U U w ` q % 8 [.XX XOX X[.R.P v q -.e     ] IXq.9.q.8.8.8.7.5.5.1.3.1.1.<.<.<.2.<.G G ",
"G J F V C d f f C Z S 5.9.e.p.p.U.r IXp.g.f.f.f.t.t.e.t.t.e.0.0.0.0.l.+.L +. XT.L X , ` #.Q [.].#.@.P + ] +.U ] [ [ { 9X9.9.9.u.9.5.1.1.4.1.<.G G S D D F G G G ",
"p F J 4.a.p.f.e.t.r.r.8.8.8.5.5.rX{ NX8.8.q.q.q.9.0.0.0.0.0.0.0.0.U.0.T.&.7Xs.LX% X U ` + 8 R.R.v % + L BXu.u.i.9.8.8.5.,.:.2.>.2.2.2.1.2.4.2.4.4.<.<.<.>.>.>.>.",
"a.u.9.1.2.<.<.1.<.5.1.1.1.3.1.6.<.6Xq.8.8.q.q.q.9.q.q.q.0.9.0.0.0.0.0.e.2X0.u.BX1 X & 6 6 E.M.q + . b VX1.1.,.3.a.>.1.1.8.8.u.9.8.u.u.4.u.u.2.4.5.2.<.<.<.>.>.G ",
"2.J 2.,.>.<.<.<.1.1.1.1.1.6.1.6.8.6.8.8.8.8.8.8.9.q.8.q.q.q.0.0.0.q.0.q.q.0.NX9   @ $.$.0 &.0 + &.VXCX1.6.8.9.9.8.7.5.7.8.3.1.2.2.<.J <.G G 2.J G <.<.;.J <.G G ",
"G G G G G G S >.S >.;.>.>.<.>.>.<.,.1.,.1.1.1.1.1.,.,.>.>.>.>.<.<.1.w.6.7.6.IX  X *.x.wXX e %   *.9.7.kX9.9.9.3.2.<.S S D Z Z V V V Z Z V D D D D S S S <.2.2.>.",
"H H F G G G >.>.G <.G G >.>.>.>.;.:.>.:.,.<.<.6.8.8.q.7.7.7.q.q.q.8.7.7.6.6.0X& &.ZXu.wXX     ] NX0.0.9.9.8.8.q.U.9.9.9.0.0.0.p.p.r.e.r.a.r.9.9.7.1.5.<.G S F H ",
"A Z A Z D D A F S S G G ;.;.A ;.G >.;.>.>.>.>.>.,.,.,.<.<.1.<.1.,.1.1.1.1.6.NX*.x.8.w.wXX   w AX1.1.6.1.6.1.<.w.<.<.:.,.>.>.G G G G S F S S D F D F D H H H V D ",
"G G G G G >.>.G ,.,.,.,.<.1.1.,.<.1.,.3.3.1.8.3.8.8.8.8.8.8.8.6.8.8.6.1.6.1.1.3.u.rXw.wX  { NX,.<.<.<.<.<.<.<.1.,.<.1.1.1.1.1.1.1.1.<.1.<.,.<.<.>.G >.G 2.G G G ",
"f f f h h Z H H A >.>.;.<.<.<.1.1.1.1.1.1.1.3.8.3.8.8.8.8.8.q.9.8.8.8.q.8.q.8.8.8.8.8.wX-.AX8.q.8.8.8.q.8.6.6.8.8.8.3.1.1.1.1.1.1.1.<.<.<.,.>.>.>.>.>.G G J G H ",
",.,.,.,.,.,.,.2.<.<.<.<.<.,.1.,.,.1.1.6.1.1.1.1.6.6.6.1.8.8.6.6.8.8.u.8.9.8.8.q.q.8.8.tXAXq.s.8.8.6.6.6.1.6.3.3.3.3.1.1.1.1.1.1.<.<.w.<.<.<.>.,.G >.G G J G F H ",
"V V f h h h h h Z Z h A H A H A A A A G >.>.,.<.1.1.3.8.8.8.3.8.1.8.6.1.6.6.8.8.8.q.8.8.4.3.s.8.4.6.6.1.6.6.1.8.3.1.<.3.<.1.<.<.<.<.<.>.G D Z h Z V D Z V V H H ",
"H F H J J J G J J >.J ,.>.2.2.,.<.<.<.,.,.>.>.>.>.G ;.;.G G G >.>.,.,.;.;.;.;.A A A A A <.G ;.;.S >.>.A G ;.G G A A A A S S G F S S A F F G J >.J G G G G G F J ",
"f g f H H H Z H G G >.G >.J ,.2.<.<.<.<.,.<.1.1.,.1.1.1.1.6.1.1.1.1.1.1.1.1.i.8.8.8.8.6.1.4.1.1.<.<.<.1.1.,.1.1.<.1.1.<.<.<.<.<.>.>.>.>.>.>.J G G F D V V p p p ",
"t t t t t t t t t t t y y y y y i u u a i i a p a a a s s f s f f f h d d i.H h h h h h Z V V Z Z Z H Z f f f f f f g f s s a a a i i u i y t t t t t t t t t t "
};
