/* XPM */
static char *enimy_move_up1712282157[] = {
/* columns rows colors chars-per-pixel */
"80 80 250 2 ",
"   c #010401",
".  c #010B01",
"X  c #050D0A",
"o  c #0A0D0C",
"O  c #001204",
"+  c #001A04",
"@  c #03140A",
"#  c #0A140D",
"$  c #031B0B",
"%  c #0B1C0D",
"&  c #091305",
"*  c #041D11",
"=  c #0C1B13",
"-  c #0C1511",
";  c #131D15",
":  c #151E19",
">  c #171716",
",  c #160E0D",
"<  c #23181B",
"1  c #02250B",
"2  c #042313",
"3  c #0B2315",
"4  c #0A2819",
"5  c #14251A",
"6  c #1B241D",
"7  c #142A1C",
"8  c #152719",
"9  c #06361A",
"0  c #14331E",
"q  c #00320E",
"w  c #1C2D23",
"e  c #162A21",
"r  c #0C3721",
"t  c #143423",
"y  c #1A3727",
"u  c #222C24",
"i  c #272A29",
"p  c #26362B",
"a  c #2D3B33",
"s  c #283930",
"d  c #333C35",
"f  c #383937",
"g  c #32302F",
"h  c #222022",
"j  c #4D2C1C",
"k  c #532F1C",
"l  c #58321F",
"z  c #5D3521",
"x  c #5B3624",
"c  c #423538",
"v  c #613622",
"b  c #653A25",
"n  c #6B3D26",
"m  c #6B3E29",
"M  c #633D29",
"N  c #703F28",
"B  c #074724",
"V  c #17452D",
"C  c #1A4A34",
"Z  c #0E5734",
"A  c #284837",
"S  c #354A3E",
"D  c #39443C",
"F  c #28533E",
"G  c #36513E",
"H  c #23412E",
"J  c #11633A",
"K  c #03401E",
"L  c #6D4027",
"P  c #6E412A",
"I  c #73442C",
"U  c #79462D",
"Y  c #77482E",
"T  c #7C4A2E",
"R  c #704127",
"E  c #744631",
"W  c #764932",
"Q  c #7D4B32",
"!  c #7C4B34",
"~  c #7A4D35",
"^  c #43423E",
"/  c #3E3F41",
"(  c #3C4A43",
")  c #2B5842",
"_  c #3A5846",
"`  c #187849",
"'  c #276949",
"]  c #37664B",
"[  c #396952",
"{  c #3B7455",
"}  c #27764E",
"|  c #464A47",
" . c #45534B",
".. c #4B534D",
"X. c #425B4B",
"o. c #435146",
"O. c #4D5B52",
"+. c #485852",
"@. c #555756",
"#. c #54494F",
"$. c #4C6C5A",
"%. c #476855",
"&. c #58665C",
"*. c #46775B",
"=. c #53755F",
"-. c #43634F",
";. c #5C6A63",
":. c #4A7962",
">. c #587766",
",. c #676966",
"<. c #67766B",
"1. c #6B7A73",
"2. c #797D7B",
"3. c #747975",
"4. c #756F70",
"5. c #5D5B60",
"6. c #824C2E",
"7. c #894F2E",
"8. c #834E32",
"9. c #874F35",
"0. c #855134",
"q. c #8B5335",
"w. c #855239",
"e. c #8D5639",
"r. c #8D593B",
"t. c #8E5A36",
"y. c #915636",
"u. c #945937",
"i. c #9A5B36",
"p. c #915739",
"a. c #945A3A",
"s. c #9A5D3A",
"d. c #A05F3A",
"f. c #96613B",
"g. c #9D613C",
"h. c #9D673D",
"j. c #A3633D",
"k. c #A9663E",
"l. c #AB693F",
"z. c #A06B3F",
"x. c #B06D3F",
"c. c #945D41",
"v. c #895C42",
"b. c #9D6442",
"n. c #996548",
"m. c #9B6F56",
"M. c #A46541",
"N. c #A96741",
"B. c #A46A43",
"V. c #AB6B42",
"C. c #A66B48",
"Z. c #B36D42",
"A. c #AA7246",
"S. c #B67247",
"D. c #AD7959",
"F. c #94796A",
"G. c #A47D66",
"H. c #399065",
"J. c #3EA473",
"K. c #488666",
"L. c #58876C",
"P. c #5A8A74",
"I. c #4C9772",
"U. c #589877",
"Y. c #49926D",
"T. c #688876",
"R. c #7A827E",
"E. c #74837A",
"W. c #649B7D",
"Q. c #67947C",
"!. c #71947E",
"~. c #44AA7A",
"^. c #4BA67A",
"/. c #55A57D",
"(. c #62A17E",
"). c #A98B78",
"_. c #B08A70",
"`. c #81867F",
"'. c #5E9C82",
"]. c #7C8B82",
"[. c #7A8481",
"{. c #639C82",
"}. c #6C9C83",
"|. c #6A9783",
" X c #739B85",
".X c #7C9C8B",
"XX c #769684",
"oX c #4EAF81",
"OX c #5CA581",
"+X c #54AC83",
"@X c #5CAB84",
"#X c #58A983",
"$X c #4DB383",
"%X c #4EB988",
"&X c #57B588",
"*X c #5CBF91",
"=X c #63A483",
"-X c #6BA384",
";X c #64AA85",
":X c #6CA58A",
">X c #64AD8A",
",X c #69AA8A",
"<X c #74A48C",
"1X c #79A28C",
"2X c #74AC8D",
"3X c #77A88A",
"4X c #64B38C",
"5X c #68B58E",
"6X c #7CAC93",
"7X c #77A892",
"8X c #69B893",
"9X c #7AB394",
"0X c #6EAD90",
"qX c #5EC293",
"wX c #828D85",
"eX c #888A8A",
"rX c #819B8C",
"tX c #87938B",
"yX c #889891",
"uX c #969997",
"iX c #928F90",
"pX c #AB9685",
"aX c #B29C8D",
"sX c #85A794",
"dX c #95A19B",
"fX c #9AA39C",
"gX c #84B59B",
"hX c #81A18F",
"jX c #B5A797",
"kX c #B0A394",
"lX c #99ACA2",
"zX c #A7AAA7",
"xX c #A9B3AB",
"cX c #B2B2AC",
"vX c #B1B1A5",
"bX c #ADB7B3",
"nX c #B6BCB9",
"mX c #B5A8AA",
"MX c #C2B6B8",
"NX c #BAC4BB",
"BX c #C4BBC0",
"VX c #BFC4C0",
"CX c #C7C9C6",
"ZX c #D2D7D3",
"AX c #D9E5DC",
"SX c #E7E8E7",
"DX c #FDFEFB",
"FX c #F7F7F4",
"GX c #F1F1EF",
"HX c #E1E2E1",
/* pixels */
"u.u.u.y.e.q.9.9.w.w.8.! ! ! ! ! U U Y Y Y Y I Y Y I I I ! W ! ! ! ~ ~ ~ ~ ! W E R I I I R R R R R R R I P P P P P L n m P P m m L n P P m m m m M n M n n m M M ",
"E W W W U ! 8.! 8.8.8.8.q.q.q.q.q.y.y.u.a.u.a.a.a.i.a.s.s.a.f.a.f.f.s.s.b.a.f.f.g.s.g.s.j.s.g.i.f.g.g.s.s.s.s.s.f.s.s.a.s.a.a.a.p.u.u.y.p.q.p.p.e.w.q.9.9.w.w.9.",
"E E W 6.8.Q Q ! 8.8.! 8.8.9.9.9.w.0.9.q.w.q.0.t.q.q.t.q.e.q.r.r.r.r.r.r.e.r.e.e.y.e.r.y.y.p.e.e.e.e.e.q.q.q.q.q.e.q.q.q.q.q.w.0.0.8.0.8.8.8.~ ! ! ! ! 8.W T W W ",
"! ! W ! ! ! ! w.! 8.w.9.9.w.9.w.7.9.q.q.q.q.q.7.q.q.e.e.t.q.e.q.p.u.p.u.u.u.p.p.y.u.y.r.e.e.e.e.q.q.q.6.9.8.Q 6.T Q Q Q Y T T U U U I I I I U I I E N E E N E E ",
"m m m N N N N N R I I I I I U Y Y W Q W W ! ! ! Q 0.! 8.6.0.7.q.q.e.e.q.q.9.6.7.0.w.8.6.6.T 6.6.6.6.0.q.q.r.q.e.q.y.q.y.q.q.q.w.w.9.9.9.9.9.w.8.8.8.Q Q 6.Q Q W ",
"Q ! Q Q 8.8.8.8.9.9.q.q.9.q.q.q.q.q.q.y.q.y.q.p.e.t.a.p.p.e.e.w.9.7.6.9.q.e.p.a.p.u.u.p.u.p.u.u.a.u.p.r.q.q.q.9.q.9.q.9.q.q.q.w.8.Q T U Y Y U I I E I I N m I m ",
"Q ! ! ! ! ! 8.8.! 8.8.! ! ! 8.8.6.8.Q 6.8.8.8.8.0.6.0.6.0.9.9.0.7.9.q.7.9.0.w.q.q.9.q.q.0.0.9.9.0.0.0.0.w.w.9.9.9.8.8.8.6.8.Q 6.T 8.8.8.9.w.w.9.9.8.! ! 8.! ! Q ",
"I I I Q E W W W T Q T Q 8.4.g @.6.0.9.9.q.9.q.p.q.e.t.e.t.p.t.p.p.u.a.u.a.a.s.u.a.a.a.a.s.a.a.a.u.a.u.p.a.y.u.u.y.q.9.7.zXf f i m.Q 6.Q 6.9.0.0.8.8.9.8.! 8.Q Q ",
"Q ! ! 8.8.8.9.8.Q U Y I I @.  : 2.w.q.p.p.a.i.p.a.p.u.u.u.a.i.i.i.s.s.s.s.i.a.a.s.s.a.y.q.q.q.q.9.9.9.9.8.9.0.0.9.9.9.zXg   > iX9.6.8.8.T Q W W I U Y U W 8.! ! ",
"8.! 8.8.8.8.8.9.w.w.w.t.t.xX^   > 4.p.p.c.a.p.p.a.a.a.u.i.i.a.a.a.a.p.p.t.q.6.7.6.q.q.e.t.u.p.a.a.a.a.i.a.s.u.a.y.u.zXg     , y.e.e.t.0.T 0.q.0.q.8.w.Q W E I I ",
"W W T T Q 8.Q 8.6.9.9.6.9.9.eX,     3.v.q.e.e.q.e.q.e.q.0.6.6.7.q.q.t.y.u.u.s.s.f.i.a.i.i.s.s.s.s.c.s.a.s.a.a.a.a.cXi   X , ,.p.e.e.q.t.e.q.w.0.w.9.9.8.9.9.8.! ",
"Q 8.Q Q Q 8.8.8.8.8.0.0.8.9.eX    o o [.q.e.e.q.y.y.t.i.a.a.g.i.i.s.s.s.s.g.s.f.s.s.s.g.s.s.s.f.s.d.s.s.s.s.s.a.vX; # ,   c p.p.u.e.e.q.q.q.q.q.q.0.0.8.8.8.8.! ",
"8.8.9.! 9.8.w.w.q.0.w.q.q.q.eXo > 2.i X 2.q.q.e.e.q.e.e.t.q.t.q.q.q.q.q.q.q.q.7.q.7.7.q.6.q.7.0.9.7.6.0.8.T 6.xXu % &.d   f R U I I R P P P L P n m n b b m b b ",
"v v v v v v v v b b b b b M m 2.: [.1.i - wXn P R I I R I I Y I Y Y Y Y T T ! T T T T T T T T Q T T T Y T Q xXu . ,.3.^   f I N I P L L L L b M b z b l z l l k ",
"b.b.b.B.B.B.B.b.M.M.C.B.B.B.B.aX- i ].].: > R.V.V.l.V.V.l.l.V.V.l.l.l.V.l.l.l.B.l.B.l.z.B.z.k.M.z.j.z.j.j.dXD O &.R.| u d vXs.s.f.g.s.f.a.a.a.a.a.a.i.a.a.a.c.a.",
"9.8.w.w.w.w.q.q.q.t.r.a.t.u.y.jXo X ;.dX&.. 6 R.f.i.f.h.g.s.j.d.g.g.h.j.j.g.g.j.j.j.j.j.j.j.j.s.j.s.g.s.xXa . d rXwXu   <.u.q.q.7.0.0.w.t.r.q.q.t.q.w.w.w.w.w.w.",
"9.9.9.9.q.8.W 9.q.p.p.e.p.p.u.cX. = 5.].>.e - - uXs.a.a.p.a.a.p.p.p.y.e.p.q.q.q.q.q.q.q.y.q.q.q.y.q.7.bXd . % S ].E.;   ,.y.y.y.y.p.e.q.6.Q 6.8.8.6.T Q W ! Q Y ",
"8.! 8.8.8.8.q.p.w.9.9.9.0.0.0.xX  = X [ .X>.* : # 3.a.s.s.s.d.d.d.k.d.M.j.j.j.j.d.N.d.N.j.j.j.d.j.d.j.6 O + [ rXT.7     @.i.a.u.a.a.u.y.y.y.e.e.q.9.w.q.t.w.w.9.",
"! Q 8.6.8.8.8.q.q.q.q.a.p.p.a.aX# . * * ) sX>.* = yXd.d.j.d.M.j.M.d.M.M.j.N.M.M.N.M.N.d.j.j.j.j.j.j.aX7 . %.1XT.1 $ O & ,.s.s.u.u.a.a.p.p.e.p.e.q.q.q.q.q.q.w.0.",
"! 8.8.8.8.8.0.w.q.9.q.9.q.0.zXa X . +.t C 6X|.|.3 d iXu.a.a.u.a.i.i.i.i.i.p.a.i.i.i.i.s.u.u.i.i.u.i.D + ] 3XsX[ + -.3   > 3.q.q.q.q.q.q.9.9.9.6.8.6.8.6.T 6.T T ",
"8.0.9.8.8.6.8.8.7.9.q.y.p.u.3.. : A [.:.[ { '.7X0 . u uXj.j.k.j.j.M.M.j.N.M.M.N.M.N.N.M.M.M.N.M.cX@.  * Q.6XP.] %. X$.6   f g.g.s.a.a.a.p.e.p.e.r.e.q.q.q.w.w.0.",
"0.r.q.q.q.y.e.y.y.u.u.u.u.i.dX  * |.:X:X) r gX|.-.3 . u M.j.j.j.M.j.j.d.d.d.i.i.i.s.s.s.j.N.N.M.2.  = H :.6X' 9 -X!.hX_   ^ b.f.b.a.a.c.c.c.c.e.r.e.e.q.q.w.q.w.",
"Q 0.w.w.w.! 6.6.8.8.9.w.q.w.1.. y .X0X'.:.J P.:XsXG   p ).i.i.f.i.d.d.j.k.d.d.k.M.M.M.s.s.s.a.b.,.. 7 XX<X'.[ ' -X2X1X%.. u p.e.a.v.p.p.e.e.r.r.q.0.8.8.8.Q T T ",
"w.r.v.r.p.e.e.p.p.a.a.i.s.&.. o.T.U.'.I.4XH.B I.-X-.. . 6 k.k.l.N.N.N.N.Z.N.N.N.V.V.j.d.h.j.V.4.  O 4 }.2X' } OX5X0X1XL.$.* w B.a.b.b.b.c.c.a.c.p.p.e.e.e.q.q.q.",
"x x x L b b n n m N N N @.# . w |.0X(.@X/./.^.(.5X!.X.. - G.7.7.7.y.q.q.e.q.y.y.u.y.q.q.y.y.e.d . t T.Q.-X/./.4X>XU.W.sX-.. $ a v.Q T T T U I R L L n m M b b x ",
"x l l l z z x x v z z ,.;   u >.<X0X/.&X&X^.qX(.(.(.$.O 6 q.q.q.e.p.a.a.f.h.h.h.b.M.B.A.A.V.A.| . s |.:X(.8X^.^.@X5X,X6XQ.-.O   D aXA.A.A.V.A.V.B.C.B.b.M.h.g.a.",
"T Q 0.w.r.r.a.a.b.c.3.    O u $.{ ' } ^.&X~.^.@XY.}.$.& : D.Z.kXzXV.x.V.V.Z.Z.Z.Z.Z.Z.D.zXZ.V. .  A |.<XOX+X/.%X5X} } { %.X.. O o #.mXs.a.s.a.a.a.p.u.e.r.q.e.q.",
"q.q.q.t.e.p.p.a.p.bX| f ; 6 8 t K B J ` H.%X&X&X/.2X%.@ - D.N.2.#.V.Z.Z.Z.Z.V.Z.Z.Z.Z.iXd V.V.o.  A Q.:X5X+X/.~.H.J 9 C V t 7 # o   f ).s.a.a.a.a.t.p.e.e.q.w.t.",
"q.e.q.e.e.y.p.a.s.a.a.s.i o.tXrX(.(./.` ` ~.$X/.,X2X$.@ ; a.p.4.c i.i.d.i.s.s.i.d.i.d.eX6 j.a.%.  V |.(.qX&X^.~.B ^.5X-X XhXE.# o i < @.s.s.a.a.a.u.p.y.a.t.q.q.",
"0.9.9.9.9.9.q.9.q.e.q.q.w . %.hX2X(.@X^.~.%X%XqX;X-X$.  u ).4.  #.x.x.Z.Z.x.Z.x.Z.Z.x.mXo f _.+.@ t gX=X/./.~.%X%XY.2X3X X<.6 8 xXc.9.6.6.6.7.7.8.8.8.8.T Q T T ",
"0.q.q.y.e.p.a.a.a.a.c.s.pXs . _ -XU./.*XqX%XJ.~.5X:X$.y xXDX5.X | x.Z.Z.Z.S.x.S.Z.S.x.zX  - SXZXX.y <X/./.*X~.*XqX/.(.W.=.0 .   xXs.d.s.f.u.q.T U R n I U 0.r.e.",
"q.q.q.q.y.u.u.a.a.a.i.a.s.xX( t 2X5X/.^.J.$XqX&X>X:.t s SXzXh   g iXZ.S.S.x.S.x.Z.Z.aX|   X 1.AXXX9 %.U./.qX~.%X~.4XU.gX$.8 R.`.j.d.s.s.s.g.g.M.C.B.V.B.C.j.a.q.",
"0.6.9.w.9.6.7.9.7.q.q.q.y.a.yX2 :.U.#X@XoX~.&X^.@X) . a SX< o g g f k.k.k.k.k.k.N.N.,.> @.@   NXE.. r U.^.$X%X*X/.&XW.L.p G k.j.d.d.s.s.s.s.i.u.u.a.p.p.e.e.q.q.",
"q.w.q.y.u.a.a.a.a.s.s.s.s.s.wX  q :.>X^.oX*X~.^.;X) 2 ..SXg   iXnX: x.x.x.k.x.x.k.Z.#.5.CXo o cXdX3 2 0X8X~.~.~././.!.0 O D i.y.u.y.a.y.s.s.s.u.a.a.a.p.y.y.e.e.",
"6.8.9.8.9.9.9.9.q.q.e.e.y.y.zX- 4 r H.4XoXoX*X+X-X) +.HXFXg o eXnXa j.k.k.x.k.k.k.|   4.nXi   BXDXdXy '.@X$X~.~.qX(.0 1 O ^ j.j.d.s.i.u.q.q.q.9.7.0.0.0.0.w.e.e.",
"q.e.e.e.y.a.a.i.u.i.a.s.s.s.b.tX. 9 :.@XI.oX8XU.{.) ;.FXHXc 4.GXSXCX| _.Z.Z.Z.S.S.f ,.GXDXBX< mXDXnX4 './.&X^.^./.(.B 1 &.D.y.y.y.y.y.y.y.y.y.y.p.u.q.e.q.0.6.T ",
"b b b b b b b b b b L n P L pX+.2 %.W.4X8X^.^.OX6X) X.FXSXc mXDXDXHX- #.Z.Z.Z.Z.,.h uXFXFXFXc kXFXlX4 3XOX@X4X&XI.3XL.3 p eXj.j.s.s.s.i.u.y.t.e.e.q.q.0.0.0.9.6.",
"z v v b M n m m L P P L P I eX  3 Q.3XU.0X>XOX,X:.0 &.DXGX< #.BXDXCX:   #.iXtX2.    uXDXHXF., mXDXfX4 :.U.OX4X5X(.(.sXG . d s.s.f.f.s.s.s.s.s.i.i.i.u.u.y.e.e.q.",
"M.M.M.M.M.M.N.z.V.V.x.V.S.S.@.: S T. X{.Y.Y.,X-XV . ;.GXSX4., 5.CXlX@ s e y 4 4 y X ;.VX`., c MXDXzX. 2 U.,XI.I.(.Q.!.,.u a kXm L L m L m m P I P I R I U U T 6.",
"q.e.e.p.a.a.s.s.a.s.f.f.c.@.o : E.XX.X<X{ C K.<XF O -.FXDXDXc   @ . r >.7X{.P.7X<XA . X - < CXDXDXcX. @ T.0X{ C (.!.sXT.D . 6 jXS.A.B.B.h.g.t.q.6.Y L n b b l l ",
"e.q.y.p.p.p.a.a.a.f.i.s.@.  o   w XX.X_ 1 V }.Q.t . O.DXGXGX,.  . t P.|.'.0X:X0X0X'./ @ + - ZXDXDXzX. 4 L.-X] + 0 !..XS #   : : _.j.d.j.s.j.h.j.z.V.V.V.V.V.B.j.",
"q.e.e.y.p.a.i.a.i.i.s.g.n.jX,.  5 # s 4 O 4 1X Xt   &.GXFXDX@.  t T.|.'.'.>X'.'.'.<XP.s & u NXDXDXlX. 3 L.lX-.. & 1 w # . s mXcXj.d.d.s.s.a.p.u.y.p.e.e.r.e.e.e.",
"q.q.q.q.q.y.r.e.e.e.e.q.y.u.n.iX].- O . + y T.sXs X w 1.!.DX .X s .X.X X:.J ' >X7X6X7X_ O ; AXdX<.-.O 2 T.rXA % . .   ( eXxXp.e.q.q.q.y.q.u.y.y.y.e.q.6.8.8.9.8.",
"6.6.0.q.q.q.e.u.a.a.i.s.g.s.M.j.j.R.&.6   # T.T.) ( y X 3 1.[.y e ].>.$.V + 9 *.[ >.yX,.% ,.E.D . @ A S T.<.a . O ;.&.jXM.j.j.j.j.j.s.s.s.s.s.u.u.u.u.u.y.e.e.q.",
"q.e.p.y.p.p.a.a.s.a.s.s.s.g.s.j.j.j.j.R.w O 3 tXyXdX>.* e * .X1.f &.$ 7 9 q 9 t 4 &.`.@.u NXg & t F sXsX.Xa @ - ..k.k.N.j.j.j.j.j.s.d.s.s.s.s.a.a.u.u.u.y.q.y.q.",
"q.q.e.q.p.p.p.a.a.u.a.s.s.g.s.j.j.j.j.j.wX# O T..X|.gX6X|.C 4 *   , & <.!.Q.!.T.+ = ..&.  & % =.}.}.T.T.yXp   ..N.k.d.d.s.s.s.s.i.a.a.y.e.e.q.q.q.0.0.w.0.0.8.6.",
"6.9.9.9.9.q.9.q.q.q.q.y.y.y.y.u.u.u.a.a.s.fXO u e ) 7X7X|.>.t X & . . 7 4 0 V 1 $ . ; 8   % <.!.{.9XQ.A 7 X @.s.i.i.s.u.i.i.s.i.s.a.s.s.i.f.s.a.a.a.u.p.p.e.q.q.",
"q.q.q.y.y.u.u.u.i.i.s.s.s.s.g.g.j.j.j.k.j.z.uX@ X +.7X7X7X'.'.t       O V *.] + + O . . % =.T.9X-X'.P.2 . ;.S.N.N.N.k.j.j.j.j.j.j.s.s.s.s.s.s.s.a.p.e.e.0.9.9.9.",
"q.q.e.e.r.p.a.r.u.u.a.a.f.s.g.M.j.j.j.j.j.l.k.tX% t A :. X<X6X[ . % G F U.,XY.{ F G u O 7 !.sX XK.F ) @ &.D.l.V.V.M.j.s.i.u.y.7.7.y.y.e.q.q.q.q.9.q.9.q.q.9.9.9.",
"8.9.8.9.0.0.q.q.q.q.y.q.y.y.y.y.y.y.u.u.p.i.s.s.eXw s = >.$.1.C . 1 W.5X^.^.&X5XW.XXo.. 8 =.P.:.s @ +.%.).s.g.i.i.i.s.s.s.g.d.j.g.g.s.i.i.i.a.a.a.p.p.y.p.q.q.q.",
"q.q.e.q.u.p.a.p.u.s.a.s.s.s.s.s.j.j.j.j.j.j.l.k.k.k.bX: . % . + . A U.4X~.*X%X/.(.1XX.& + + + + # 3.N.V.k.l.z.l.M.k.j.j.j.j.j.j.j.s.g.f.i.s.a.a.p.p.p.p.e.q.q.q.",
"q.q.e.e.r.p.p.p.a.a.a.s.s.s.s.s.s.j.j.j.j.j.j.B.V.N.V.mX8 . 3 + A L./.4X/.&X/.qX,X1XG O $ $ O + 3.N.V.V.l.V.l.l.k.j.k.M.k.j.j.c.s.s.i.a.u.u.u.e.e.q.q.q.w.8.8.0.",
"q.q.q.y.y.y.r.u.u.u.i.s.s.s.d.g.j.j.j.d.j.j.M.M.M.M.M.M.bXe . H Q.(.(.(.(.(././.2X(.L.>.$.+ & E.7.6.6.T U U I R R R N n n n b b b b b b b x v z z z l z z x x k ",
"b m m L n L L L L L m m P m N n n n n n n n N n n n m dXtX= % _ 3XW.gX(.(.(.(.(.9X;X,X9XT.. O 3.zXaXt.t.t.i.u.f.f.f.f.f.f.g.b.j.j.h.h.h.b.B.M.B.M.B.M.C.B.b.B.B.",
"T T 0.0.q.r.a.a.a.f.f.g.b.M.j.M.C.B.B.V.S.V.A.S.vXbXyX_ _ @ . A !.U.gXK.] *.{ ' H.{ Y.U.=.1 & d o.,.cXbXx.l.l.l.k.j.j.j.j.j.g.s.s.g.f.a.a.a.p.p.p.r.r.e.q.q.q.q.",
"q.q.e.q.e.q.u.u.u.u.s.a.a.s.s.f.s.s.M.j.g.M.j.j.2.( ( O.( 5 . X.`.W.K.q q K K K q 1 *.sXT.+ O u o.o.&..._.l.z.j.j.k.j.j.g.j.s.d.s.i.s.i.i.a.p.y.p.r.e.e.q.q.q.w.",
"q.q.q.q.q.e.e.t.u.a.u.u.s.i.i.s.f.j.g.g.j.g.j.j.2._ _ ( @ . . X.gXU.q q *.3X(.U.9 1 { hXL.1 $ & a X.o...f.a.u.u.u.y.y.y.y.y.y.y.u.y.q.7.q.q.9.8.6.6.U 6.6.U T T ",
"0.0.q.q.q.t.q.t.q.q.0.q.q.q.q.q.y.u.s.d.d.d.j.j.[._ ( X 3 @   G L.q q ] U.(.(.(.U.0 ] sXL.1 + 1 + 8 ..&.N.j.j.j.j.j.j.g.g.s.s.u.y.y.y.a.a.u.a.p.q.p.y.q.q.q.q.q.",
"6.6.6.8.6.6.6.6.q.e.p.a.c.a.f.s.a.u.q.q.e.y.u.y.pX.X( * ;.&.3 7 0 & q K.5X4X(.(.-X0 7 p 8 1 %.$.H 3 <.kXj.M.j.j.j.j.g.j.d.s.s.s.u.s.u.s.a.y.a.y.p.q.e.q.q.q.q.9.",
"6.0.w.q.q.q.q.e.y.p.p.a.s.s.a.s.s.i.s.s.s.s.s.s.c.dXe = XXrXp . % & + L.(./.(.5X3X0 . . & 1  XgX_ . +.j.j.j.j.j.g.g.g.s.s.s.s.s.s.a.y.7.9.7.9.9.9.9.8.Q 6.T 8.T ",
"0.0.q.q.q.q.8.U Y 0.p.a.p.a.a.s.s.s.s.s.s.s.s.d.mX+.= ( tX.XX.4     . '.8X/./.5X<X7   . * s P.7X:.w 3 lXM.j.g.g.b.s.u.y.y.q.7.q.q.q.q.q.y.q.y.q.q.q.q.q.q.w.w.0.",
"0.0.q.0.q.q.p.r.r.r.p.p.p.a.a.a.u.i.a.s.s.s.d.d.|   s yXrXXX!.( . O @ U.4X&X4X(.T.y   . s |.'.:X.X>.  ; ).p.y.y.q.u.u.u.u.i.s.i.i.u.u.u.p.p.p.q.q.q.q.q.q.e.w.9.",
"0.w.0.0.q.q.e.e.t.e.r.u.p.y.e.q.9.q.q.q.q.q.e.q.@.  / .XT..X.X_   & 2 :.I.#X8XU.4 @     y 1X:X'..X>.. - b.d.j.s.g.s.s.s.s.s.s.u.u.u.e.q.9.9.8.Q Q I I I I P m M ",
"Q Q Q T T T T T T Q 6.9.0.6.q.e.p.a.a.s.s.s.c.c./ X ( dXsX.X_ $ .   * >.>X4X9XU.4 . X   . t P.0XsX%.. @ ).q.6.6.T T U I R n n n b b v v v v v v v v v z l z z z ",
"0.0.w.w.q.q.q.q.t.q.e.e.e.u.u.u.a.a.a.s.i.f.s.s.D   5 ( S A 2 _ <.  2 T.0XU.{.|.*   O.fX].2 ) C F s   - m.f.f.f.h.f.f.b.g.s.f.f.f.f.f.a.a.a.u.a.p.p.t.e.e.e.q.q.",
"0.0.0.0.w.7.7.q.q.q.q.q.q.9.0.T U U U U Y Y U T fXd . - S @ = ].NX& . F |.<X|.XX7 o.kXV.jX2 2 V y . $ 3.g.f.g.g.a.s.f.s.a.a.p.p.i.u.y.e.u.e.q.q.q.q.q.q.w.8.8.Q ",
"! ~ W P L b L b L R ~ q.r.f.b.b.M.B.j.M.M.M.M.j.M.+.. o.].p . wXjXD 7 . %.6X.X>.- jXd.j.).4 . L._ 3 e nXs.i.s.s.s.i.u.u.a.p.a.b.p.e.e.q.q.q.w.Q Y U Y I W U W W ",
"x Y ~ r.n.b.B.b.j.g.f.p.p.u.e.e.p.a.p.u.i.a.a.i.| X d wX].d . ].i._.3 @ $.1X;.X & pXs.s.aX$ * >.lX$.O w pXs.s.u.a.p.u.q.q.9.q.! w.w.w.q.w.w.r.r.r.q.w.0.9.9.9.8.",
"n.c.p.q.w.w.0.q.0.q.t.q.q.e.e.e.p.p.p.p.a.a.a.a.| d wXwXwX1.u 1.s.s.= O $.rX1.@ ; cXs.s.jXt >..XT.].1.= _.q.7.6.6.6.e.e.p.p.c.p.p.c.v.r.v.v.r.r.r.0.0.0.0.0.Q 0.",
"w.~ w.9.0.0.0.0.q.q.q.q.q.q.q.e.u.p.y.y.y.u.a.u.D @.<.a dXfXg E.i.i.xX7 = %.>..   cXs.i.vX5 E.sX&._ 1.= zXu.a.a.a.p.u.u.y.e.q.w.w.8.9.w.w.Q Q w.Q 8.0.8.Q Q w.~ ",
"! ! Q Q Q Q T 8.T T T 0.6.0.8.0.w.q.q.q.q.q.q.q.f ..<.h yXtXp 3.q.q.q.dXw ( ,.: 4.e.q.9.F.8 T..X( t E.6 _.u.a.t.q.8.T Y I I I I I P Y P I Y Y Y Y T T T 0.0.0.~ ",
"U W W Q Q ! 8.8.0.T 0.Q 0.6.8.6.6.6.8.9.9.9.9.e...u D > `.wXD R.a.a.u.a.yX;.( e u.a.a.s.aX5 E.rX( 7 X.. m.a.a.p.s.a.a.s.s.f.b.f.b.f.f.b.f.f.a.p.u.t.t.0.~ Y Y Y ",
"E I I U E E W W Q Q Q U Q 8.T 6.! 8.8.8.8.6.8.9.@.> . : uX2.- 3.q.q.q.q.q.iX  h q.y.q.y.).e 1.yX .. @ d ).7.9.q.6.9.8.8.8.Q Q Q Q W Q T U U Y Y Y Y I I E E E Y ",
"Q ! ! 8.8.8.8.8.8.9.9.9.9.w.9.q.q.q.9.p.q.e.e.p.p.;.o u p.|   R.p.e.e.q.q.uX- , G.q.9.9.).X : bX].. w q.9.q.9.0.q.q.q.q.q.q.q.q.q.q.q.q.0.0.0.w.0.8.w.! 0.Q ~ T ",
"n n m N N N N N U Q 8.8.9.9.q.q.q.q.q.q.q.q.p.q.q.3.  f y.pX#.1.p.c.a.u.u.a.uX> g G.a.a.).: lXa.E.. g e.y.y.y.p.p.r.e.q.q.q.q.q.7.q.0.0.9.9.w.8.Q 0.Q Q ~ ~ ! W ",
"8.w.w.9.9.9.v.v.q.9.9.9.q.9.9.9.w.q.q.q.q.q.q.e.p.m.iXmXy.p.mXm.p.p.p.p.p.p.a.uXuXi.a.p.p.cXp.p._.uXcXy.e.p.e.e.e.e.q.q.q.q.q.0.0.q.9.0.w.8.8.0.Q 8.8.Q ! ! W E ",
"N N N N N N N N I I I I W I N U I U Y Q Q 8.9.w.w.q.e.p.q.q.p.p.p.y.u.e.y.y.p.p.p.a.p.p.p.p.p.p.q.q.q.p.p.q.q.e.q.q.q.q.q.q.e.q.0.w.w.8.W U I R I P Y P P P E E ",
"W W ~ ~ ~ ~ ! ~ ! 8.9.8.8.w.w.w.9.9.w.9.8.8.8.! 8.6.Q 6.Q 8.8.! ! 8.8.8.6.6.T Q 6.N U 6.T Q T 6.6.T 6.W Q 6.Q Q U U U U Y U W Y Y U U Y Q ! ! ! ! 8.Q ! ! ~ E E ",
"m M m m E E E W ! ! 8.! 8.8.~ w.w.q.9.q.q.q.9.q.9.q.q.q.q.p.q.q.y.y.e.e.q.q.e.e.q.e.p.q.q.e.q.e.9.q.9.q.q.q.9.q.q.w.q.w.w.0.9.6.q.9.8.0.8.9.! ! ! Y E P P L x x ",
"j j j j j j j j j j j k k k l l l l l l z z v v v v v b b n b m n m m m N m m E N E N N P I R R R I E I m m m N m m M m b b b v l z l l l k j k j j j j j j j j "
};
