/* XPM */
static char *enimy_move_right1712282157[] = {
/* columns rows colors chars-per-pixel */
"80 80 256 2 ",
"   c #010401",
".  c #000C01",
"X  c #080808",
"o  c #001303",
"O  c #001B04",
"+  c #02140A",
"@  c #021B0B",
"#  c #0A170C",
"$  c #0C1B12",
"%  c #081A13",
"&  c #151A16",
"*  c #130B0D",
"=  c #01230C",
"-  c #012608",
";  c #00360C",
":  c #0B2213",
">  c #022A12",
",  c #082916",
"<  c #15261B",
"1  c #063619",
"2  c #13341E",
"3  c #21251E",
"4  c #1B2921",
"5  c #0C3723",
"6  c #143324",
"7  c #1B3927",
"8  c #19382D",
"9  c #272928",
"0  c #25372C",
"q  c #2A3D33",
"w  c #353836",
"e  c #323430",
"r  c #271E1F",
"t  c #4D2C1C",
"y  c #532F1C",
"u  c #58321F",
"i  c #5D3521",
"p  c #5B3624",
"a  c #403E3F",
"s  c #623722",
"d  c #653A25",
"f  c #6B3D26",
"g  c #6A3E29",
"h  c #633D29",
"j  c #703F28",
"k  c #01471B",
"l  c #00460D",
"z  c #074625",
"x  c #17472A",
"c  c #095628",
"v  c #194932",
"b  c #135834",
"n  c #284736",
"m  c #36463B",
"M  c #28543A",
"N  c #2E4C37",
"B  c #18663A",
"V  c #16733C",
"C  c #6E412A",
"Z  c #6E4027",
"A  c #73442C",
"S  c #7A462D",
"D  c #7C492E",
"F  c #75462C",
"G  c #764932",
"H  c #7D4B32",
"J  c #764832",
"K  c #7A4D35",
"L  c #41473F",
"P  c #3B4C44",
"I  c #364B43",
"U  c #345444",
"Y  c #3B5344",
"T  c #3C5449",
"R  c #3C5A4C",
"E  c #385C46",
"W  c #2B5845",
"Q  c #2A6747",
"!  c #36654A",
"~  c #26774A",
"^  c #3C7856",
"/  c #337150",
"(  c #177943",
")  c #464A47",
"_  c #44554C",
"`  c #435B4D",
"'  c #47554A",
"]  c #445C52",
"[  c #4B5B53",
"{  c #4B5854",
"}  c #545957",
"|  c #51534E",
" . c #446253",
".. c #496656",
"X. c #54685B",
"o. c #47755A",
"O. c #48694F",
"+. c #5C6B63",
"@. c #5B6964",
"#. c #587865",
"$. c #4D7664",
"%. c #656A67",
"&. c #65776C",
"*. c #6C7973",
"=. c #767977",
"-. c #746F6E",
";. c #635F60",
":. c #443D42",
">. c #834C2E",
",. c #894F2E",
"<. c #834E32",
"1. c #874F35",
"2. c #855134",
"3. c #8B5335",
"4. c #855339",
"5. c #8D5639",
"6. c #8D593B",
"7. c #8E5937",
"8. c #915636",
"9. c #945937",
"0. c #915739",
"q. c #945A3A",
"w. c #9A5E3B",
"e. c #985A37",
"r. c #8A502E",
"t. c #9C613D",
"y. c #99643D",
"u. c #A3633D",
"i. c #A9673F",
"p. c #A05E3A",
"a. c #945D41",
"s. c #835A43",
"d. c #9D6441",
"f. c #9B674A",
"g. c #986C54",
"h. c #956E59",
"j. c #A26542",
"k. c #A46A43",
"l. c #AA6C44",
"z. c #A56847",
"x. c #AD7248",
"c. c #A57356",
"v. c #B27D5B",
"b. c #A27A65",
"n. c #83797C",
"m. c #328855",
"M. c #3C8F65",
"N. c #488866",
"B. c #58856A",
"V. c #48966B",
"C. c #5C8B73",
"Z. c #499A73",
"A. c #589877",
"S. c #529372",
"D. c #65866E",
"F. c #678876",
"G. c #76867B",
"H. c #649C7C",
"J. c #67957B",
"K. c #75947D",
"L. c #4CAC7A",
"P. c #49A777",
"I. c #55A47C",
"U. c #59A67D",
"Y. c #4BB17D",
"T. c #51B07B",
"R. c #63A17E",
"E. c #48815E",
"W. c #A9836C",
"Q. c #B8947B",
"!. c #B18A74",
"~. c #83827D",
"^. c #798783",
"/. c #6C9D83",
"(. c #669B82",
"). c #789987",
"_. c #7B9B90",
"`. c #5BAC84",
"'. c #58A983",
"]. c #53B484",
"[. c #59B587",
"{. c #4DB082",
"}. c #63A382",
"|. c #6CA385",
" X c #62AB84",
".X c #6CAC8A",
"XX c #67AA88",
"oX c #72A58A",
"OX c #77A78A",
"+X c #67B48B",
"@X c #7AAA91",
"#X c #6CB895",
"$X c #77B695",
"%X c #72B28F",
"&X c #74CA99",
"*X c #77DAA5",
"=X c #76E8AD",
"-X c #7BEAB3",
";X c #69F7B5",
":X c #7AF7BA",
">X c #6AECAC",
",X c #5DE5A7",
"<X c #78FFC2",
"1X c #878987",
"2X c #85978A",
"3X c #8B9A93",
"4X c #959A96",
"5X c #96978F",
"6X c #B89985",
"7X c #B09A90",
"8X c #86A894",
"9X c #97A59C",
"0X c #85B498",
"qX c #8CA891",
"wX c #B8A697",
"eX c #9AA9A2",
"rX c #9BB4A4",
"tX c #8EB8A2",
"yX c #A7A9A8",
"uX c #AAB5AC",
"iX c #ADB7B1",
"pX c #B7B7B6",
"aX c #B5B3A9",
"sX c #C2A58F",
"dX c #C6B9B0",
"fX c #87DAAC",
"gX c #90D0AD",
"hX c #B7C4BC",
"jX c #A6CDB6",
"kX c #87E2AD",
"lX c #88E9B6",
"zX c #96E9B9",
"xX c #87F5BA",
"cX c #97F1BD",
"vX c #92E0AC",
"bX c #A1ECBD",
"nX c #82CE9D",
"mX c #CCC5BC",
"MX c #B6D1C4",
"NX c #9AECC3",
"BX c #87FDC5",
"VX c #97F8C6",
"CX c #A6E8C5",
"ZX c #A7F5C8",
"AX c #B2F0D0",
"SX c #C6C8C6",
"DX c #C6D4CC",
"FX c #D4D7D4",
"GX c #CDD3CF",
"HX c #D6E2DC",
"JX c #CDEAD8",
"KX c #DBECE6",
"LX c #E6F4EA",
"PX c #FDFDFC",
"IX c #F5FAF8",
"UX c #ECF3EF",
/* pixels */
"9.9.8.8.0.3.1.1.4.4.1.K K <.H H S s.S S S G F F F F F F H G K H G K H K K G G C j j j j j j j A Z A A Z A Z Z A Z Z Z Z C g g Z Z Z Z g g g g g g g d g g g h g ",
"J J J J J H <.K <.<.1.1.1.1.1.5.8.3.8.8.0.0.9.q.q.q.q.w.w.q.y.q.y.y.c.t.d.y.y.d.p.p.p.p.u.j.w.w.w.w.w.w.w.w.w.a.w.w.e.w.q.a.q.q.0.0.7.0.0.0.0.0.4.4.4.5.1.4.1.1.",
"G G H D <.H H <.<.H <.K <.4.1.4.<.1.1.f.3.4.3.7.3.7.7.3.5.5.6.6.6.6.6.0.6.0.3.5.0.0.0.1.5.5.5.8.3.9.3.3.2.3.3.3.5.2.3.2.3.2.2.2.1.<.<.<.<.<.H H H H H H H J H J ",
"J H J H H K K K H 1.1.<.1.1.1.1.3.3.5.1.3.3.3.r.3.3.3.5.3.8.3.8.5.8.0.8.9.0.5.0.8.8.8.a.5.0.5.b.3.2.2.2.<.<.<.>.H H <.H J H D S S S F A A F A A j J A A g J J C ",
"C g g j j j j j A A S A A A S S J J H H H J K H H <.H <.>.2.2.2.8.r.8.8.2.2.>.FXb.s.H s.S >.S >.2.>.4.3.6.5.3.5.3.8.3.3.3.3.2.3.2.2.1.1.1.2.<.<.1.<.<.H H H H H ",
"H H H <.<.<.<.<.<.1.2.2.2.3.3.2.3.3.3.3.5.5.8.5.3.7.q.0.6.5.3.2.<.1.>.1.3.0.FX1XFXh.6Xb.0.5.6Xa.0.q.0.3.3.3.3.2.3.3.2.5.3.5.3.2.<.D H D D J J J A A C A j j j g ",
"H H H J K H <.H <.H <.H H <.<.<.H <.<.<.>.<.H <.2.2.H 1.2.1.1.1.1.1.r.1.1.1.<.SX=.;.=.yXsX4.<.<.2.2.2.1.2.2.2.1.2.1.>.>.>.D H <.<.<.<.<.1.2.2.2.1.H <.H H H H H ",
"A J A J J J J H D D H D <.H <.1.mX;.e | } ) | | | | ' ) ' ' ' | 1Xc.q.q.q.w.q.q.hX@.:.@.=.eXKXa.e.q.9.0.9.0.q.9.8.3.2.2.2.1.H >.D <.H <.<.<.2.2.<.1.<.<.4.H H H ",
"H H H <.<.<.1.<.H H F A A A A H >.^.=.w X         9 ) m P o   . < *.G.SXy.9.9.9.9.hX*._ P @._.3XDX1.4.4.b.1.1.1.1.1.1.1.2.1.1.1.2.1.<.>.H H H J J S D A H H H H ",
"H <.H <.<.<.<.<.<.2.4.7.7.y.9.y.y.q.8.4X| ) X   X w *.rX2XY 7 n < o o ~.uXyXhX>.,.r.3X{ [ T w T _.MXDXa.w.q.9.q.8.9.9.8.8.8.8.3.3.6.7.2.D 2.2.2.1.2.<.H J J J C ",
"H H H H H <.<.<.<.1.<.2.2.2.2.3.2.5.5.5.0.SXw   . # P #.K.B.8X8XB.6 @ > . . N hXDXSXeX.._ [ ] ] _ P &.MXw.q.q.q.9.q.q.9.9.9.8.5.3.8.3.7.3.3.2.3.2.2.1.1.<.<.H 4.",
"H H H H <.H <.<.<.<.2.2.2.2.2.2.2.5.5.a.3.3.pXa   +.K., @ 1 ^ (.J.C.@XK.E 2 O < : jXIXrXT R ..I T ] T *.GXw.q.q.q.q.q.q.0.0.0.0.0.5.8.3.3.7.3.2.2.2.2.<.<.<.<.H ",
"H 4.H <.1.<.4.2.2.2.3.3.3.3.3.5.5.5.5.3.8.a.2.GX_ : U jXgXjXQ k 1 Q J.R.F.E.B.#., 2 7 m ..R U  .R ] ] T &.MX<.H D S S S S S F A A A A Z Z Z Z Z f f f d d d d s ",
"s s s s s s s s d d d d d f C g f f d f Z f j A I + ! MXCXAX+X X+XV.b B E.R.nXK.#., o - 7 E  .R I R ] q ..=.iXJ S S S S F A j A Z C C h C C h d d d i i p p y y ",
"d.d.j.d.k.d.k.z.k.k.k.k.x.k.k.k.x.k.l.k.l.l.l.l.eX6 x oXgXfXZXZXcXkXM.m./ ! E.K.OXM N n > , n E $.W  .$.] I &.hXy.u.t.y.y.y.w.w.y.y.q.y.q.q.q.q.q.q.q.q.q.y.q.a.",
"1.4.4.1.5.3.2.2.3.3.6.7.7.7.9.7.9.9.q.e.e.w.q.w.e.).. v gXNXVX-XlXlX*XcXU.k ; N.J.0XqXo.7 @ . 7 I I ] I ] ` _ &.GXwXe.e.e.9.3.3.r.,.3.4.7.7.5.3.6.3.4.3.4.4.4.4.",
"1.1.1.1.2.<.H <.5.5.5.5.0.0.e.q.e.q.q.q.q.w.9.9.e.&.O x NXVX=X;X;XBXxXxXlXP.l b H.A.R.K.D.0 @ @ 8 P T ] ] R ]  .] MX4.1.<.3.3.8.0.0.3.2.<.>.>.<.<.>.<.D H H D S ",
"<.K <.<.1.<.5.5.5.1.1.1.1.1.2.2.3.2.3.3.3.3.9.3.9.D.O x fXVX=X;X:X>X>XxXxXcXkXnXc l E.J.J.K.o - + 8 _ R N U  .R X.#.HXj.q.e.q.q.q.e.q.9.8.8.6.5.1.2.2.3.7.2.4.2.",
"H <.<.<.>.<.<.1.3.2.8.9.0.9.q.q.e.q.w.w.y.y.w.t.#., M gXcXNXBX=X;XBX=X=XcXcXcXvXnXnXo.k ! K.#.&.q @ 8 { ..E  .] T P FXa.e.e.w.e.e.q.q.q.0.5.0.3.3.3.3.3.3.4.2.2.",
"H H <.<.2.2.2.2.1.3.3.1.2.2.2.3.3.3.3.3.3.DXF.#.2 v $XAXvXkXZXBXBXVXkX=XlXcXzXvXbXbXgXM - M qXqX_     0 ` Y R ] ] ..^.MX3.3.5.r.3.2.3.2.1.1.1.>.<.>.<.<.<.D H D ",
"H 2.2.2.<.>.1.<.1.1.r.8.q.q.a.a.e.e.iX3XqX#.> b Q $XgXS.I.V.Z.P.M.P.-XZXcXbXbXbXbXjXZXnXM O ! K.#.' m O 9 N ` R R ] P pXw.w.w.w.q.q.q.q.q.0.0.0.6.3.3.3.3.3.4.2.",
"4.6.5.8.3.3.3.8.0.0.9.q.q.q.z.pXSXpX)   = M W gXNXAX&Xb B c c B V m.Y.&XT.&X%XnX%XnX0XbXvX! - m +.G.&.o # x T R I T [ eXFXp.d.d.d.q.a.q.d.a.a.6.6.6.5.3.4.4.3.4.",
"2.H 4.K 4.H >.1.1.>.1.3.1.1.4X* X *     $.MXgXNXNXfXvXvXzXvXzXlXxX&XV k c c k b c c R.bXAXjXx - : n %.2 o @ 0 R X.T T P 3X5.6.a.0.a.6.6.4.6.6.4.5.<.<.1.<.<.D D ",
"6.6.6.6.0.5.5.5.0.q.0.q.w.w.4X  * *   + T CXMXNXAXNXzXlXcXVXVX-X-XkX*X=XkXkXkX&XvX&X/ E.jXbXgXM o n qX&.< o 7 U T ] ..I 4Xk.w.d.t.d.a.d.q.a.q.q.0.0.3.5.3.3.3.3.",
"p p h h d d f g j j j j F S wXdXdXaXr   , 7 ! CXCXzXZXlXNX-X>X:X:XxXxXxXcXxXcXcXcXV.l m.bXjXJXE O q _.K.2 o 6  .R R W _.KXUXh.J >.D D S S F F A Z Z f f h d p i ",
"y u u u u i i i i i s s u d s d s s yX=.3XX.. O.O.%XCXNX-X<X<X;X:XxX=X=XxXkXcXvXcXl B R.DXbXD.7 2 #.F.N @ , U R ] W R hXIXQ.x.x.x.x.x.x.x.x.x.k.x.k.f.k.k.y.t.y.",
"D H 2.3.5.6.a.q.t.t.d.j.j.k.k.z.l.l.l.x.x.HX}   o M $XNX<X;X;X;X>XxXxXxXxXxXkXT.T.m.&XJXbXF.7 : #.).M : 6 U ..E ] ] ^.MX6Xj.t.u.p.w.w.c.9.9.q.e.9.8.8.3.3.3.3.5.",
"3.3.3.7.5.0.q.q.0.q.q.q.w.w.w.u.t.p.u.u.u.u.j.| @ @ Q [.BX;X,X;X>X>X:XxX*X&XL.V c &XcXnXR.; 2 B.D.` @ + n U R  .I #.HXa.p.u.HXa.w.w.w.w.q.w.q.q.0.6.0.0.5.5.7.3.",
"3.3.3.0.5.0.9.q.w.q.w.e.w.w.w.w.p.j.u.u.u.u.j.FXn . - b xXBX<X;XcX=XxXxXm.l ( nXvXbXbXA.1 l B.~...@ . , ' O.Y [ &.FXPXSXGXp.u.j.p.w.z.w.w.e.e.9.q.9.8.0.6.3.3.3.",
"2.2.>.1.1.2.2.1.2.5.5.3.3.8.5.5.8.3.r.8.8.0.v.u.) . @ b *X-X<X<X:XcXvXm.l V nXbXbXbXV.; k H.K.qXm . @ P O.' { G.HXIX| r e r w 9 MXr.1.,.>.,.1.1.>.1.>.<.2.H D D ",
"2.2.3.8.8.0.q.q.q.w.a.w.w.w.w.p.p.u.u.i.u.i.i.z.[ . v $XlX-XBX<X&X( ( V.P.nXcXvXbXbX/ c E.qXK.M : : m +.) m G.GXIXIXw X *   * X w pXw.e.e.9.2.D S f f A D 2.0.5.",
"3.3.8.8.8.0.q.q.q.e.q.9.w.w.e.w.w.p.t.t.u.u.u.sX` o M ZXNXBX:X#XV l m.vXvXcXcXvXbXR.E.E.0XD.O., # L ' ' [ G.FXPXPXIX5Xn.:.* * -.& w -.yXy.t.u.k.k.l.l.k.k.j.q.3.",
"2.2.2.2.1.1.>.1.r.3.3.8.0.q.e.9.e.8.e.8.9.9.!.IXW 5 '.NXlXBXlXP.V m.lXxXxXxX=XVXU.x O.~.&XE.- o m ' ' | G.9XmXuXaXaXIXIXdXL * wX-.:.9 9 yXw.q.9.q.q.0.0.6.5.5.3.",
"2.3.3.3.9.9.q.9.q.w.w.w.w.p.a.t.u.u.i.i.j.j.z.AXW ^ NXfXlXkXBXVXcXkXlXxX=X-XcX+Xc ; B.~.E ; - N ' } ) O.hXX.. . . & 5XFXFX5X& X 9XPXyX  9 GXe.q.q.e.q.0.0.8.3.3.",
"<.<.2.2.1.2.2.3.3.3.3.3.8.8.8.9.e.0.e.e.e.e.GXU , (.AX-XNXNXlXNXcXcX=XVXcXvX&Xk l ! qXE.O # N ' ` n Y o < O O : O . 0 : # 9 . . aXIX5X# & SX3.,.2.2.2.2.2.3.3.3.",
"2.5.0.3.8.9.q.q.q.9.q.w.w.w.u.p.j.j.z.j.z.GXw + C.jXCXAXCXNXNXNXlXxXfXNXNX+Xc ; B.R.K.E - - Y O.O.R  .O . o - ; D.E.#.x O @ . # hXLXHXqXX r SX8.9.9.3.3.2.2.<.H ",
"d d d d d d d d d f Z f j j j j j J j S dX) * *.MX_. ./ W B / Q ].NXZXzXA.x ; o.K.0Xo.2 - 2 P O.M W 2 O - N o.B..X.XR.N.o.M @ o N hXIXLX2X3 yX8.3.3.2.2.r.2.2.<.",
"s s s d h Z f f Z C Z 1X1X2X4XqX1X5Xh.SX|   4 @.*.q X 5 B.C.5 @ z N.A.S.z - o.OXD.B.x O 0 ` ] ! v - > M v B.tXR.A.+X`.'.%XA.E M O ' rXLXLX3 ;.FXe.w.9.8.8.8.3.3.",
"u.j.j.j.u.k.i.i.i.Q.4X: . . .   + o qXm   <   X w w I @.KXIX{   + O O O k o.%XR.OX0 . 2 ` O.Y U v - z B.OXoXR.R.I.+X+X XR.A.H.oXx o N uXhX$   -.A A A F S S D >.",
"5.5.0.0.e.e.9.t.dX4X$ , < 1 @ 1 , O + $   + X X iXPXIXUXIXPX%.  . o 6 > / %XR.OXK.2 o 3 m [ m < o M oXH.R.|.A.+X`.I.I.+XXXU..X|.M ; ; O : o . ~.>.A Z f d d u u ",
"3.8.8.0.f.0.c.+.4 < 4 F.).A.A.C.J.B.5 . @ @ . + uXPXIXUXPXPXUXn.  4 G.).C.A.%XE.z 1 , O # # 3 . . x (.(..X'.XXXXH.H.H.@XH.R.+X XH.H.O.l ~.< . n.u.l.l.l.l.l.z.j.",
"3.3.3.Q.q.q.X.$ 8 D.B.J.H.(.(.$X/.C.C.B.C...@ . L a n.PXPXIXPXn.r -.2X).tXOX X.X^ N.C.N o . . . n C.@X}.'.'.XXM.v x v O.OX0XA.V.R.0XK.E.~.D.# ~.7.0.a.5.5.6.c.3.",
"3.3.h.3.a.%.: . I @X@XoX|.$XA.|.@X/.@XoXoXJ.^  .@ . 3 1XUXPXPX1X* ) e q D.qXR.$X XI.+XA.O.#.| 3 7 $.XX}.XX#XV.5 . . o < ! o.A.%XO.x M E.~.nXu e 1X9.3.,.<.>.1.<.",
"4.2.2.3.uX< o < F./._./.(.$X(.A./.0X/.|.(.A.$X).! , . & 5X5XGXpXX.} . . N X.E.R. XZ.[..XR.K.eXw   x (.(.'.'.z 8 +.%.;.e o 2 %XR.l M E O.O.~.x o ) e.9.f.0.3.8.3.",
"3.3.5.0.MX: 2 #.).).@XB.#.C.F.B.#.F.#.J..X}.%XA.OX! x = @ @ 2XDXMX9X<   o . - B.$X[.+X XR.B.B.2 2 Q oX}.S.W X T mXi.i.-.  < C.J.M D.JXvX< D.' O m pXe.9.8.8.8.3.",
"3.3.6X8.uXx D.8X(.@X$.> = = @ o @ O > Q A.#X'.U.U.XXH.B.> = 5 @ > = . . # = : 1 A.A.Z.T.+XR.5 ; Q N.(.gXoXv % ] i.u.u.-.& o > D.%X~.jXQ.0 o.~.L o L FX2.2.2.<.H ",
"2.W.<.rX0 F.).).).#., O o . . . # # . > / A.I.T.`.+XA.}.A.H.V./ = o @ + o x O.O 1 z E.R.R. Xc / '.XX'.(.v % *.sXp.!.e.e.FX9X< - O.~.O.' rXE #.'   < f.9.0.3.3.3.",
"3.2.6.2X< ).F.0X#., + rXiXiXpXaXyXaX0 . > B `.`.].'.`.Z. XI.+XZ.^ $.o.^ B.C.R.E.; - Q %XR.U.M.I.'.'.#X(., q 4Xi.i.i.i.u.i.i.3X: 3 D.D.O.O.O +.G.P < 7.7.1.1.1.<.",
"3.3.uXm % )._.$.4 < eXw.t.w.t.d.u.u.9X^.@.o W '.'.{.{.{.].].].].U.T.U.T.+XT.[.T.~ ~ N. X.XA.XX@X(.'.#XW 5 I @.hXz.f.t.p.w.e.8.5X< 4 X.^.+.I @.eX@.< *.FX4.3.1.3.",
"<.2.@.. 8 ^._.8 X R 8.3.3.8.8.8.9.9.q.9.^.+ 8 (.#X'.{.#XY.Y.Y.Y.T.&XT.T.Y.P.].].].].`.}.}.oX(.N.^ $.! % . 8 I ^.b.q.w.p.w.w.p.a.G.9 < #.X.3XeX3X@.    MX5.c.2.3.",
"2.3.@.  6 F._.v X X.a.w.w.w.w.p.u.p.u.u.yXq   #.$.Z.'.#X].{.Y.Y.T.T.Y.Y.Y.Y.].P.Y.&X[.U.`.}.^ v o = + + % I } G.v.i.u.j.i.i.u.p.u.2X% . . @.=.%.{ X w DX3.3.3.3.",
"5.5.G.. 6 _._.n . [ 7Xw.w.w.w.w.6Xp.u.u.k.pX4 + 8 $.'.Z.{.{.].].T.T.Y.T.T.Y.].P.P.P.P.I.'.V.b 1 - @ X % e _ } G.PXsXQ.x.6Xc.t.t.w.w.9X% + # % < % 9 GXh.1.1.1.1.",
"2.3.*.. 6 ).(.8 . @.e.c.w.w.w.u.p.p.j.u.j.v.pX4 % W ^ b {.Z.{.].T.P.P.[.[.L.'.].].[.`.[.#X'.M.M.B._ # o < w L } *.%.@.*.%.4Xd d d s h.SXSX&   %.HXGXi i i u u u ",
"f g &.  8 (.^.n . ] Z Z g s.f f f A f f j j s.9 X 4 z 5 {.{.{.{.&XV.m.V.`.U.I.I.P.'.I.I.{.[.[.[.OXG.' . . e L X.] ] R [ q _ qX1XdXu.y.y.k.iXeXGXj.f.z.z.j.k.z.k.",
"D K eXI 8 _._.8 . P c.y.t.c.j.k.j.l.l.l.l.dX~.+ X 8 Q Q '.{.{.P.+XM.z c Z.+X`.A.#XXX[.'.'.].].'.R.2XG.: < L ' [ I T E ..] T _ w 4XGXw.w.q.0.q.q.0.5.5.8.5.2.3.2.",
"3.c.3.eXX &.^.8   { 9.e.w.w.w.w.p.p.i.GXpX1X  % 5 $.#X#X'.'.'.'.XXN.; > o.OX@X|.(.N.M.V.M.{.{.'.R.D.B.O n O.O.M n M n n R ] P [ P 9Xw.e.q.q.0.8.0.a.5.4.4.5.3.2.",
"3.5.1.3X  + *.9   } e.e.e.e.e.j.p.FXsX_ + & , 1 N.S.I.'.`.U.U.+X$XC.= @ o.J.).8XK.z O - B I.#X'..Xo.O O v ! 5 = > 5 , , 8 W P *.) 4X9.3.3.1.1.<.>.>.D >.D >.D >.",
"3.1.3.4X& 4 X   X } 1.1.1.b.r.0.FXw & & o 5 B.'.+X[.'.'.XX+XR.H./.B.> . $.8XF.F.OXx - v A.'.'.'.+X/ - - ; > 1 x (./.C.W , % 9 MX=.pX9.q.q.9.0.q.5.0.5.3.3.3.2.3.",
"H >.<.6XyXiX9 X * X ;.a.sXw.a.a.q.pX< q C.C.}.#X{.{.'.[.+X|.K.@X#.6 + + : 0 0 0 q . . M oXoX}.XXQ z z ^ N.o.N.A..X|.@X).&.] % 4 iXsXq.q.9.9.9.9.8.5.3.3.2.3.2.2.",
"<.1.1.4.4.4.yX9 X   * -.6Xw.q.w.w.q.) 7 $.(.'.'.'.{.{.'..XH.o.Y 8 + . . $ .   . . . @ n J.@X/./ Q Q ^ |..X|.|.}.(.(.W v U I % X pX0.8.3.3.1.<.<.<.<.>.<.>.<.<.H ",
"1.,.2.3.3.3.<.4X;.) X X -.GXa.0.q.y.e   U |.U.`.Z.].Z./ Q ! 7   + 4 6 & 4 ) &.%.&.< . m _.).J.! A./.@X@X@X|.(.@X(._.R , %     & pX1.3.3.3.8.3.3.3.3.3.3.2.2.4.2.",
"1.2.2.3.1.5.0.0.a.dX:.:.w SXe.0.z.e.%.o 8 K..XR.[.A.~ 5 - o . # 0 T _ _ X.iXPXLXLXD.$ 0 D.2XtX8XF.#.#.$.D.#.o.F.C.$./. .% < ) * aXq.9.0.9.0.0.5.3.3.3.3.4.5.3.2.",
"2.2.4.3.1.5.SX0.1.5.5.0.a.b.a.1.2.3.3.G.@ 1 C.A.U.Q > O O : 0 | P @.] @.uXHXKXPXPXIX&.  9 &.8X*.T 2 , + @ @ @ @ , % @._.:.:.GX9 iX9.3.3.3.<.>.H H A S A A Z g s ",
"H H H D >.S >.j >.<.1.5.1.1.3.0.9.q.q.mX2Xo x H.oXH.^ 1 O O # % 8 q ] ] ] +.3XLXLXIX*.. $ % & < #   & + . o : o . + + @.%.9 SX9 pXd s s s s s s s s s i p i i i ",
"2.2.2.2.5.3.3.3.3.7.7.9.7.0.9.9.e.9.6XIXrX@ @ /.(.}.(.N.^ N.B.x o 6 E ..I I X.1XLXIXGX&.  X X   %.iXpXiXpXiXiXpX4X#   3 & w w.SXW.w.y.q.q.q.q.q.q.7.6.9.9.5.5.5.",
"<.<.2.2.2.2.r.3.3.r.2.2.2.2.<.H H S J iX8 % #.J.oXoX%X(.$XA.|.A.o.N N n $...q @.4XKXPXFX%.X *.^.GXa.u.u.a.p.w.w.w.1X9     w 9.9.9.0.3.8.9.3.3.5.3.3.2.2.4.<.<.J ",
"H K G A C d f f Z F H 3.0.y.d.d.j.i.uXI   < ] N o.R o./.0X/.(.H.OX_.o 7 _ +.' ' _ 1XSXp.FX=.j.p.j.p.p.u.w.e.w.e.w.f.1X& r 1Xq.a.q.5.5.5.6.6.2.H D S F F J S H H ",
"p G K s.d.d.d.k.u.y.y.q.0.0.7.7.9.6X%.& e 0 0 w m , 7 J.$.OX$XF.#.#.n o : X.G.%.| } yXp.p.!.w.w.p.a.w.0.w.w.w.e.e.q.q.;.%.<.4.H 2.1.4.4.4.4.4.6.6.4.2.2.1.<.<.<.",
"f.a.0.4.4.2.2.2.2.3.3.3.3.5.9.3.8.0.f.9.9.9.q.dXQ.G.@ O = C.)...2 4 &.< . &.e.6X} ;.pXq.w.w.w.w.e.y.q.q.5.3.2.,.>.,.2.%.-.0.g.q.0.a.6.a.a.q.6.6.7.2.2.2.2.2.H H ",
"4.K 4.1.2.2.2.2.3.3.3.3.3.3.3.3.8.8.0.8.0.q.q.9.q.FX=.o + : ..)._ . < .   -.e.w.GXdXw.w.w.w.q.8.3.2.,.3.8.0.q.q.q.0.9.wXdX8.3.4.4.K 2.H H K 4.K H >.2.2.K H 2.H ",
"H H H H J H <.H H >.D <.2.1.2.2.1.3.3.3.3.3.0.1.2.2.1.yX9X: 2 X.G.# 9X9   4 ~.0.3.5.3.a.<.1.3.8.e.w.q.e.9.e.0.6.3.2.S S G A A C A C C G C G F F D D H H 2.4.4.2.",
"J J H H H <.<.<.H 2.H <.2.D >.<.<.<.<.<.1.1.3.5.9.6Xq.q.!.0 . 0 e m FX4X9 X e 0.8.0.q.w.q.w.e.w.q.q.q.q.q.q.0.e.q.w.q.q.w.y.t.t.t.d.y.d.y.q.y.q.7.7.3.2.H D F J ",
"S j J S A J S G S H H D <.H >.>.H <.>.<.<.<.<.1.1.1.6.1.!.*.@ +   e wX3.4Xr w 8.8.3.3.5.8.3.3.8.3.3.3.3.3.3.3.3.,.1.1.<.<.H H H H H D D S S S F G S F G J J A F ",
"H H H H H <.2.<.2.4.1.3.2.2.2.2.3.5.1.3.3.0.3.5.0.8.0.0.6.FX*.% X 9 6X5.5.4X-.1.r.1.3.3.2.3.1.2.2.3.,.3.2.2.1.2.3.1.2.3.3.3.3.3.4.3.3.4.2.2.4.2.2.K 2.H 4.K H H ",
"g g g j g A j J S J H >.<.1.1.3.3.3.5.3.3.5.5.8.0.0.0.0.0.5.KX^.& r IXa.0.8.6X8.q.e.9.9.9.9.q.8.q.0.9.0.8.8.8.8.8.5.0.3.3.7.3.3.2.3.2.2.1.1.4.2.H 2.H H K K J J ",
"4.4.1.1.4.1.1.1.2.1.5.2.1.1.3.3.1.3.3.3.3.3.3.3.3.0.8.8.6X5.5.!.n.9 g.q.!.a.0.0.e.0.9.9.9.9.0.0.0.3.8.0.0.3.5.5.0.6.3.3.3.3.2.3.3.3.2.,.2.2.H <.2.H <.H H J H J ",
"g j j j g j j J A A j J H j A S A S S H H 1.<.4.3.5.5.8.5.0.5.0.!.yXg.3.3.8.0.0.8.e.0.8.7.0.0.0.0.0.0.3.8.8.5.5.5.5.3.5.2.2.3.2.,.4.4.H H A A Z Z C J C C C J J ",
"J J K K 1.K K K 4.<.K <.1.1.4.1.1.2.2.1.1.<.<.<.H >.H H H H H H <.<.<.<.<.>.D >.>.j S >.D H D >.>.H D S D <.D S S F S S D D J S F F F S H H 2.K K H H H H H G G ",
"g g g g g J J J H H H <.4.<.4.4.2.2.2.2.3.3.3.2.3.2.3.8.5.3.3.8.8.8.3.0.3.f.4.0.5.5.5.3.5.5.3.3.2.2.2.5.5.3.3.5.2.2.3.3.2.2.2.1.2.2.<.<.1.<.H H H G F C C h p p ",
"t t t t t t t t t t t t t y t u u i u i u i s s s s d d d d f f g g g g g g A C C A j j C A C A A A G A g g g g g g g d h d d s d u i u p y t t y t t t t t t t "
};
