/* XPM */
static char *move_left__1_1712245354[] = {
/* columns rows colors chars-per-pixel */
"65 65 240 2 ",
"   c None",
".  c #180D12",
"X  c #290C05",
"o  c #360B02",
"O  c #3A1408",
"+  c #281816",
"@  c #3A1C16",
"#  c #26130F",
"$  c #37221B",
"%  c #1B1B26",
"&  c #291D23",
"*  c #1D2330",
"=  c #23232C",
"-  c #382926",
";  c #2B2C34",
":  c #282A36",
">  c #2C333C",
",  c #293037",
"<  c #34343B",
"1  c #373539",
"2  c #362F36",
"3  c #47180A",
"4  c #531611",
"5  c #650F17",
"6  c #69161B",
"7  c #77141A",
"8  c #750912",
"9  c #43241B",
"0  c #4B2A1C",
"q  c #492517",
"w  c #562717",
"e  c #52250E",
"r  c #663516",
"t  c #7B3E1C",
"y  c #672C15",
"u  c #661B25",
"i  c #4A2924",
"p  c #592A25",
"a  c #4A332D",
"s  c #5C3522",
"d  c #573527",
"f  c #483636",
"g  c #563C35",
"h  c #462C33",
"j  c #643A24",
"k  c #6A3D26",
"l  c #6A3E29",
"z  c #623928",
"x  c #70312D",
"c  c #5D1F2A",
"v  c #56453D",
"b  c #4D423E",
"n  c #6D412A",
"m  c #6E4125",
"M  c #74442C",
"N  c #79462D",
"B  c #7B492E",
"V  c #784427",
"C  c #694737",
"Z  c #754630",
"A  c #774932",
"S  c #7D4B32",
"D  c #784730",
"F  c #7A523B",
"G  c #2D3346",
"H  c #343A45",
"J  c #3B3C44",
"K  c #373947",
"L  c #433D44",
"P  c #553D40",
"I  c #3C424C",
"U  c #3A4147",
"Y  c #3B4251",
"T  c #42434B",
"R  c #47474B",
"E  c #5A4946",
"W  c #5C524C",
"Q  c #444B54",
"!  c #4C4C53",
"~  c #4A4D5A",
"^  c #464754",
"/  c #514C58",
"(  c #4C525C",
")  c #4B5358",
"_  c #52545C",
"`  c #585457",
"'  c #654A48",
"]  c #67534B",
"[  c #6C5C55",
"{  c #655959",
"}  c #755C57",
"|  c #74544A",
" . c #76635B",
".. c #6B655F",
"X. c #545A65",
"o. c #5B5C63",
"O. c #5C5D6A",
"+. c #555765",
"@. c #4D5A69",
"#. c #655C64",
"$. c #745D67",
"%. c #5C636C",
"&. c #5C6166",
"*. c #5D6372",
"=. c #5D6976",
"-. c #68666A",
";. c #786A67",
":. c #7B716E",
">. c #646674",
",. c #6B6575",
"<. c #656A75",
"1. c #6A6B75",
"2. c #656A7A",
"3. c #6A6C7A",
"4. c #69657A",
"5. c #726A78",
"6. c #6C717B",
"7. c #647278",
"8. c #73757B",
"9. c #777578",
"0. c #950A0D",
"q. c #9B0B0B",
"w. c #9A0607",
"e. c #880D16",
"r. c #940C14",
"t. c #9C0B11",
"y. c #851019",
"u. c #95141A",
"i. c #8C0809",
"p. c #A40404",
"a. c #A4050A",
"s. c #A3090B",
"d. c #A90609",
"f. c #AA0C15",
"g. c #A91519",
"h. c #873E16",
"j. c #8F1B26",
"k. c #A61829",
"l. c #952428",
"z. c #8D2A2F",
"x. c #A6212A",
"c. c #84411B",
"v. c #824525",
"b. c #824E32",
"n. c #8B4831",
"m. c #865134",
"M. c #8B5435",
"N. c #845339",
"B. c #8D5639",
"V. c #8D593B",
"C. c #8E5837",
"Z. c #915636",
"A. c #935837",
"S. c #915738",
"D. c #945A39",
"F. c #9A5D3A",
"G. c #995B37",
"H. c #8A502F",
"J. c #97603C",
"K. c #9C613D",
"L. c #A2633D",
"P. c #A3683F",
"I. c #895A45",
"U. c #935D43",
"Y. c #965C47",
"T. c #895953",
"R. c #965C58",
"E. c #914A4C",
"W. c #93634B",
"Q. c #996446",
"!. c #886959",
"~. c #976A57",
"^. c #9A725B",
"/. c #8F6248",
"(. c #A56942",
"). c #A76B47",
"_. c #A57559",
"`. c #AC7050",
"'. c #9A5E61",
"]. c #836C64",
"[. c #9A6B66",
"{. c #8A7368",
"}. c #997967",
"|. c #857877",
" X c #947A75",
".X c #8E6E76",
"XX c #A77969",
"oX c #A77472",
"OX c #CE784D",
"+X c #9A877C",
"@X c #8F8179",
"#X c #AF8B73",
"$X c #CC8F69",
"%X c #FCAA66",
"&X c #F5B177",
"*X c #E39C67",
"=X c #676A80",
"-X c #6C7D8B",
";X c #6C7886",
":X c #7B7D84",
">X c #757A86",
",X c #6E7F90",
"<X c #8B7D84",
"1X c #7A838B",
"2X c #778895",
"3X c #718693",
"4X c #7B8EA2",
"5X c #878589",
"6X c #94898C",
"7X c #878A94",
"8X c #969499",
"9X c #919196",
"0X c #A8928F",
"qX c #8995A2",
"wX c #969BA6",
"eX c #859FB1",
"rX c #A69BA8",
"tX c #98A3A7",
"yX c #99A8B6",
"uX c #8EA4A7",
"iX c #A3A5AB",
"pX c #A8ABB6",
"aX c #AAB4BA",
"sX c #B6B2B6",
"dX c #B4A69E",
"fX c #D6AC8D",
"gX c #ECB581",
"hX c #B8BAC5",
"jX c #9EB6C6",
"kX c #C5BFC2",
"lX c #BCC3CD",
"zX c #B1C1CA",
"xX c #B6C8D4",
"cX c #AAC1D2",
"vX c #BED5E4",
"bX c #C7C9D3",
"nX c #C6CDD2",
"mX c #CCDAE6",
"MX c #CEE3F1",
"NX c #E1ECEF",
/* pixels */
"M.M.M.M.N.M.b.N.b.b.b.b.b.S b.S S b.B S B B S m.F m.F m.N.N.F b.B B b.N N B B B N B B B N A N N A M V M M M N M M l l l Z l l x l ",
"A A S S S S b.b.b.b.m.M.m.M.M.M.M.C.S.S.D.D.D.S.A.D.J.D.D.D.D.D.D.D.D.D.D.D.F.D.D.D.D.D.D.A.D.A.A.A.C.C.S.C.M.M.M.B.M.b.m.m.m.B.S ",
"Z Z A S S S S b.b.N.b.m.m.m.m.m.M.m.m.M.M.M.C.M.C.C.C.C.S.S.A.A.S.S.Z.C.S.Z.M.M.M.M.b.b.m.m.b.b.b.b.S b.S N B N A A D N A N A Z Z ",
"M M M M Z Z Z D D D D D b.D b.b.b.S b.b.m.m.m.m.b.M.M.C.Z.M.M.M.M.M.b.H.b.b.H.m.b.M.M.M.m.M.m.m.m.m.m.b.b.b.b.b.b.S S S N A A A Z ",
"D S S S S S S b.b.b.m.b.n.b.m.m.m.M.M.M.M.C.M.M.B.H.b.b.U.W.Y.Y.U.Y.U.Q.Q.Q.S.C.m.M.M.M.n.M.m.M.M.N.b.b.b.b.S N b.S A A N Z M M M ",
"A D D D S S S b.b.S b.b.b.b.b.b.b.b.b.M.m.m.M.H.M.~.Y.E.oXoX[.R.'.'.'.[.oXoXV.W.~.V.M.M.M.M.m.b.b.b.b.b.b.b.b.b.b.m.b.b.b.b.S D S ",
"A A S S S b.S D A N B B b.b.M.M.B.S.C.S.C.A./.^.R.'.E.E.z.l.l.l.k.l.l.l.l.z.z.E.~.R.XXS.M.M.m.M.b.b.H.b.b.b.b.b.b.S S S S S S S S ",
"b.S b.b.m.b.b.b.m.m.M.M.M.S.Z.Z.D.D.S.A.D.D.W.;.x z.k.x.g.g.g.g.f.f.f.g.g.g.x.l.j.z.E.T.XXZ.B.S.Z.M.M.B.m.M.b.b.b.b.b.b.S S S D Z ",
"S A S S b.b.b.b.m.m.M.M.C.M.C.C.C.S.M.M.S.Z.C.I.x j.k.g.s.d.p.p.d.d.d.d.d.d.f.f.g.x.j.x D ~.).D.A.S.S.V.S.Z.M.M.M.M.b.m.b.b.b.b.S ",
"S S b.b.b.m.b.b.m.m.m.m.m.B.B.B.M.M.C.S.M.Z.A.G.E.x 7 0.w.w.w.w.p.p.d.p.a.a.p.d.f.a.f.x.l.x [._.M.M.M.m.M.m.M.b.b.b.b.b.b.B S A A ",
"M M M M M M M N B A A B A S A S B m.B S b.S m.B I.[.u e.q.q.q.q.i.w.s.s.a.a.p.s.a.a.w.w.r.j.7 R.~.M M V V n m l l l j j j j j s s ",
"B.m.m.M.N.M.N.B.M.C.C.C.A.S.S.S.C.G.D.G.D.D.A.J.A.XX{.y e.r.r.0.w.w.q.q.a.a.a.w.w.a.p.p.s.r.j.u T.M.M.B.m.m.m.m.b.b.b.b.B S S S S ",
"B.B.B.V.V.C.S.D.D.F.D.F.J.J.K.J.F.L.K.K.L.K.L.L.L.K._.| 6 y.0.0.i.i.w.w.a.a.a.q.w.w.p.p.s.r.7 u T.A.A.Z.M.M.A.C.S.S.C.M.M.M.B.N.V.",
"b.b.m.m.b.b.B.B.V.C.C.S.A.S.D.D.D.A.A.A.A.A.D.A.G.D.F.W.x y.r.r.i.i.r.s.a.a.t.t.0.w.a.a.0.y.6 T.B.M.Z.Z.Z.S.M.m.b.b.b.b.b.b.m.S A ",
"b.b.b.b.m.M.M.m.m.B.M.C.M.A.M.Z.Z.A.A.A.D.D.G.).).L.).T.c 6 y.y.e.8 e.e.r.r.r.e.e.w.s.t.e.7 T._.F.F.G.D.D.D.A.S.C.C.M.M.M.m.N.m.m.",
"S S b.b.b.b.m.M.M.B.M.C.M.M.A.A.Y.!.!.G.A.(.}.[ ;.XX].` -.c 5 5 5 c u u 5 5 5 5 8 y.u.u.7 c [.Q.A.A.Z.M.Z.M.B.M.M.M.m.m.m.b.m.m.b.",
"b.b.m.m.b.m.m.H.m.Z.S.A.A.D.G.G.+X-.-.!.F.{./ ) ) R R 1XaX|.} ].<X<X0X<X<X.X'.' c 5 5 6 5 i $.W.D.D.D.D.S.S.S.C.C.B.M.B.b.b.M.b.b.",
"N.B.m.M.m.m.Z.M.Z.Z.A.D.F.D.G.G.{.1.8X9.;.U 1.sXrX_ > 1XuX1X:X9.<X<X<X9XwXpXhXsXrX.X| 9 ] |.R .X(.F.K.Y.J.D.F.U.U.V.B.B.B.M.B.m.m.",
"m.N.N.B.n.b.m.M.M.C.Z.M.A.A.A.~.-.7.nXiXH 8.lX9X7XsX3.G Y %.%.<.=X=X=X=X=X=X7XwXhXbXsXtXiXkX7XL ~.D.F.D.J.U.D.S.S.U.V.M.m.m.b.b.b.",
"Z Z A A A S b.b.b.H.b.m.H.M.H. X-.6.aX>X_ sXpXU O.hXhX<XU H &.<.4.=X=X=X=X=X,.4.<XtXzXnXNXNXkX#.W Q.Z.M.m.C.C.M.m.b.b.S B N A Z M ",
"s s s s j j j j j j k l m m m [ X.>XqX( &.wX>X% >.hXhXhXuX) , ) $.=X=X=X6.>.3.5.=X=XuXnXNXNXbXrXT !.P.K.K.K.K.K.J.J.F.D.S.C.B.M.m.",
"M S b.b.m.B.B.B.D.F.F.J.J.K.^.-.%.1X;XH ( 6.G . >.rX3.>XzXaX7.< K 4.=XO.=.<.,.4.=X>.7.wXlXbXbXbX&.E ).L.P.K.K.K.K.U.F.D.D.D.V.C.S.",
"M.M.B.S.S.D.S.F.D.F.F.F.K.L.^.&.=.1X7.G ( 2.* : >.o.: o.8XuXaX1XL K +.4.=.<.-.2.2.>.3.6.wXhXmXmX1XR ^.K.K.J.J.G.D.D.A.D.S.S.C.B.M.",
"m.H.M.m.B.B.S.C.A.A.D.D.D.K. .@.;X3X7.> ~ 2.Y ( 3.T = _ ) ) 2XtX<X/ : G U T %.2.2.2.1.3.>XpXhXhXtXT F G.J.Z.A.Z.Z.Z.M.M.M.M.M.b.b.",
"b.m.M.B.M.S.S.A.D.D.D.D.G.Q.9.=.3X,X;XU ; U ) @.O.~ _ 4.I ) 7.8.<X=XG ~ +.G G =.=.2.2.=.2.qXhXhXaXT Z G.G.A.A.A.M.H.B B V N B m.m.",
"M.M.B.Z.Z.A.A.D.D.D.F.F.G.U.7.qX3X-X3X=.%.Q U , : < L ^ ) ` -.-.4.^ ~ pX<X=X: @.6.2.2.2.=X:XhXhXaX! C L.F.L.F.F.F.F.K.K.K.Q.K.J.C.",
"n.m.m.M.m.M.M.M.A.A.D.D.D.U.9.yX2X-X-X2XxXzXpXqXT & + + + $ $ - L ; #.rX<X,.G ^ 2.=.2.2.2.;XpXhXaX^ M L.F.F.F.F.F.J.F.D.D.D.C.C.M.",
"b.m.m.Z.Z.M.A.S.A.D.D.F.J.).:.qXyX3X-X3XcXmXxXxX5.- i p d q $ + + & P =X4.,.G ~ 2.2.=.2.2.2.wXhXpXL | D.G.G.Z.A.S.S.A.M.C.B.M.C.M.",
"M.B.M.M.M.M.B.C.A.A.A.F.F.F.!.1XyX2X3X-XjXmXxXlX9.$ 9 0 i d d i g ' P #.,.O.: _ 2.>.2.2.2.2.wXlX5XQ ~.G.G.A.A.A.Z.M.M.M.M.M.m.m.b.",
"l l l V V M V M N N N B N b.V. .qXuX-X-X4XMXxXlX@Xv | 9 X 0 x t ~.~.a g / 2 K >.2.2.2.2.2.<.8XaX%.v ).J.F.D.G.A.Z.Z.Z.Z.M.m.m.b.b.",
"l l n V n V M V N B B B B b.v.!.1XtX3X-X4XvXvXxX0X} 0X .O I.fX$XOXOXE.z + H *.=.2.3.2.2.2.>.9XwXT } A.A.G.A.Z.A.Z.Z.Z.Z.Z.Z.M.M.M.",
"F.K.F.Q.Y.L.P.P.L.(.(.P.P.).).#X|.qXqX-X3XcXvXxX8X| fX#XF $X&X%X*XOXOX_.a ! 2.2.>.2.4.2.,.3.9X_ W V.m.m.B m.S b.B N N N l k N l M ",
"M.B.S.S.D.D.G.F.F.F.F.F.(.L.L.L.+X1XuX2X3XyXMXaX..;.fXfX*X&X%X%X%XOXOXY.h / 4.4.2.2.4.4.2.1.O.R ^.).).).(.(.L.L.K.F.D.A.M.m.m.m.S ",
"Z.S.S.S.S.D.D.D.F.F.F.L.L.L.L.L.`.@X5X7X6.;XwX%.- [ +X#XfXgX&X&X*XOXz.p h o.2.>.=X4.2.3.>.~ K {.(.L.L.L.L.L.L.G.F.D.F.F.F.F.K.J.D.",
"m.M.B.S.S.S.S.S.A.A.Z.G.G.Z.G.G.J.+X:X7X) U ) -.@X@X .F | #XfX$XS.p q P #.2.=.2.>.>.4.*.T K |._.L.G.G.G.S.Z.S.S.A.A.Z.Z.M.m.b.m.b.",
"b.H.n.M.S.S.D.D.D.F.F.L.K.L.L.L.P.).:XI 1 ! 5X6X0XdX0X+X[ b a a @ f { ,.2.7.=.2.2.>.~ > % K }.).L.L.L.L.L.F.F.F.F.D.D.D.A.S.Z.M.M.",
"B.Z.S.S.S.A.D.D.F.F.F.K.K.L.L.L.P.#X_ ` $.g C C v v ..@X0X9.2 % +.,.,.1.3.=X=.@.T , : K ) < -.).L.L.L.L.L.G.D.G.A.S.S.S.M.M.M.M.M.",
"b.m.M.m.M.M.B.S.A.A.G.D.G.F.F.F.K.;.` |.' z t x B m $ a ;.8X5X> J ,.,.,.#.( Y G K Q +.<.7.` , {.L.G.G.G.G.G.G.G.D.S.Z.S.A.M.M.M.M.",
"M.M.M.Z.S.S.A.A.G.F.D.F.D.K.F.(.{.` :.E l N h.v.h.k q q v  .8X:X= ^ 4.,.>.%.*.*.>.<.<.1.1.&., :.(.L.L.G.F.G.F.F.F.F.D.S.C.M.m.m.b.",
"M.m.B.B.S.S.S.A.D.D.F.F.(.F.K.). ...E d l v.h.h.h.h.w w l a ;.8Xo.: o.4.2.2.<.<.6.<.<.-.) 1 ! }.L.G.Z.Z.Z.Z.S.S.M.B.B.M.M.M.m.M.b.",
"b.n.H.m.M.S.M.Z.A.A.A.A.G.G.G.}...[ d e t c.c.c.h.c.y 4 w p a @X5X< I >.3.3.3.<.3.O.( K 1 1 5X).L.F.L.K.K.K.J.D.F.D.S.D.D.B.B.M.B.",
"B.C.S.S.S.A.D.G.J.D.F.J.F.K.G.!.W ] j y t t c.t V V y 3 4 w 0 ] 5X! , *.<.>.O.+.T > : J 1X8.5X`.L.L.L.K.F.F.F.D.D.S.C.B.C.B.M.M.b.",
"b.M.M.M.Z.Z.S.S.G.G.F.F.F.L.). .W C m r r V m r p p 4 3 4 e w a ..Q * Y Y H ; * < J +.<.iX7X9.N.B N B A N V V V V n n n l l l z l ",
"l Z M M M M N N M B N B B N W.;.E C B r r r [ 0X$.- $ 4 4 e e 0 W ) * * G J < = O.<.>.6.iX5X1XQ.G.G.D.J.J.J.J.F.F.J.F.J.F.F.U.D.F.",
"B b.m.M.M.S.D.D.J.D.K.K.G.G.#X:.] C V m e W kXzX9X` @ 3 e e e 0 ] 9.L G *.>.` : *.2.,.8.wX8.5X`.L.L.L.K.L.D.G.G.D.D.D.D.D.C.C.C.B.",
"M.M.M.M.Z.Z.D.S.G.G.D.J.G.G.#X:.] C M j C dXaXtXwX9.$ O 3 e w q ] 9X~ G *.3.` ; >.3.%.>X8X1.!.K.G.D.G.A.D.A.Z.Z.B.m.B.n.b.b.b.b.b.",
"H.M.M.M.M.M.C.M.C.M.Z.H.G.G.^. .W C n n 0XiXqX3X;X{ $ o 3 e e q ' 6X~ G *.>.1 U >.6.<.1X1X8.^.K.F.D.D.D.A.Z.Z.S.S.B.M.m.M.m.m.H.m.",
"b.b.b.H.m.m.m.C.C.A.A.J.J.A.C.F a v s s  .-.=.@.X.! + o O e 0 q ] 6X^ G @.T ; O.<.<.3.5X6.].(.K.L.F.L.F.D.G.A.A.S.S.S.S.M.m.B.m.b.",
"b.m.M.M.M.M.m.M.A.S.F.D.F.F.D.!.b v w q O @ - L ~ 2 # o 3 3 w i } 5XL = > > _ <.>.2.7.8.-.XXF.J.G.G.A.G.D.S.M.M.H.b.M.b.b.b.b.b.S ",
"H.m.M.M.M.m.m.m.S.D.D.D.D.F.G.+X{ ' d 0 p @ . # + # X O 3 q q a |.<XH > ( %.2.7.%.6.7.X.{.G.F.A.Z.Z.Z.Z.M.C.Z.Z.S.S.M.M.M.M.M.M.m.",
"m.C.m.m.M.C.C.C.C.S.S.M.M.Z.Z.Q.;.[ ' p w q X X X X o O 3 3 9 E 6X-.; ( 2.7.=.%.%.X.) I :.J.G.G.D.D.F.D.S.D.M.M.M.b.b.b.B S A M M ",
"S S m.B S S m.m.m.M.M.M.M.Z.Z.A.+X{ } d i 0 @ o o o o O q $ i :.6X^ % H U K U H H H U -.-.!.m.b.b.B B V V n V n k k k k k j j j j ",
"S m.m.M.M.m.M.M.M.B.B.B.Z.Z.M.Z./. .[ } d q q O O o O q 9 @ { 6X5.; < I H I Y Q ) _ %.5X9.9.^.J.D.D.D.D.C.D.C.C.C.C.B.M.M.M.b.m.b.",
"F m.S B B B B B b.M.M.V.M.M.m.M.m.U.[ [ ].g $ @ 9 9 9 9 h { 0X|.L < %.X.I X.2.<.<.8.9.6.o.-.W.D.D.F.D.F.D.C.A.M.B.m.b.b.b.b.b.S S ",
"n A F F m.m.M.C.M.S.D.D.F.F.F.K.K.K.^.' { |. .b h a h E :.6X5XT ; 1.5X:X3.>X1X1X9.&.! o.:.W.F.A.A.M.S.B.C.N.B.m.B.N.N.b.b.S b.S b.",
"V.V.C.V.C.S.S.A.S.C.C.C.C.S.S.D.A.A.Q.U.g R |.8X6X7X9.-.6X9.2 2 R ! Q ~ _ ! U 1 1 1.| I.W.H.M.M.M.M.S.V.B.V.V.I.V.V.V.B.b.b.N.b.S ",
"N.N.m.b.b.b.m.b.M.M.M.M.M.Z.S.S.S.S.S.S.S.$.f ! 2.>X>.T T 1 [ C.D.W. X_ < J L < g I.S.A.A.C.B.M.M.m.m.m.m.m.F m.S S S m.b.m.m.S S ",
"D S S S b.b.b.b.S b.b.b.b.m.m.m.M.m.M.M.M.m.I.].' E E g [ {.U.Z.M.W.!.-.T o.o.L !.D.S.D.S.S.B.b.m.b.b.F S B b.S m.S b.b.b.B S m.b.",
"Z Z N N D S S S S b.S b.b.b.b.b.b.b.n.m.Z.M.M.M.C.S.U.A.A.Z.Z.S.I..._ 1 < ` ! f ~.S.S.M.C.Z.Z.C.M.M.C.C.C.C.M.M.N.m.m.b.B S B A N ",
"D D A S S S S b.b.b.b.m.n.M.m.m.M.M.M.S.S.M.S.S.B.C.M.M.Z.M.M.I.` J ! R 1 1 < 2 H.m.M.M.m.m.H.m.M.M.m.m.m.S m.b.b.S F b.S S S A A ",
"l l D l A D S S b.b.b.M.m.m.M.M.M.B.B.B.S.S.S.S.S.D.S.U.D.A.A./.R J R R 1 = = b S.S.S.C.Z.S.C.M.M.M.M.M.M.M.m.m.m.m.m.m.m.S F S S ",
"b.b.b.b.S S b.b.b.b.b.b.H.b.m.m.m.m.M.B.S.S.S.U.S.S.D.S.S.A.A.U.^...] W W W } @XS.S.S.C.C.C.C.M.M.M.M.m.m.M.m.b.S B B B S A B A A ",
"l Z Z l A Z D D D S S S S S b.B b.b.m.m.b.n.M.b.m.M.M.M.H.M.M.H.H.m.C././.C.H.H.m.n.H.M.b.b.b.b.m.m.m.S S b.S S A A A M A A A M A ",
"l Z D D A D S S S N.S N.m.m.M.m.M.m.m.m.b.m.b.M.b.b.M.b.m.m.m.m.m.m.m.m.m.m.m.H.m.b.b.b.b.b.b.b.B S m.S b.S S S b.S S A A A n n l ",
"p d                                     M M l M M M M M M M N M N Z Z A N Z M N A A M M A M M M M                               i "
};
