/* XPM */
static char *move_right__1_1712245354[] = {
/* columns rows colors chars-per-pixel */
"65 65 245 2 ",
"   c #1A0A07",
".  c #090A15",
"X  c #18141A",
"o  c #0F070F",
"O  c #290805",
"+  c #29150D",
"@  c #281514",
"#  c #351A19",
"$  c #300F0B",
"%  c #38231A",
"&  c #191A25",
"*  c #361D22",
"=  c #2C1F22",
"-  c #1E242C",
";  c #1C2531",
":  c #26252D",
">  c #362926",
",  c #282B37",
"<  c #2C323A",
"1  c #35343A",
"2  c #372F32",
"3  c #461A0B",
"4  c #491818",
"5  c #4E130F",
"6  c #680D14",
"7  c #770C15",
"8  c #731017",
"9  c #4A281C",
"0  c #552C1C",
"q  c #55311E",
"w  c #5A321E",
"e  c #4C1C22",
"r  c #731B25",
"t  c #462926",
"y  c #582827",
"u  c #493429",
"i  c #5C3421",
"p  c #593324",
"a  c #4B3B36",
"s  c #543A36",
"d  c #643A24",
"f  c #6A3D26",
"g  c #6D3F29",
"h  c #63392B",
"j  c #713C28",
"k  c #642B33",
"l  c #6D2E32",
"z  c #743D1F",
"x  c #524338",
"c  c #6D412A",
"v  c #674129",
"b  c #74442C",
"n  c #78472C",
"m  c #7B492E",
"M  c #774527",
"N  c #764631",
"B  c #764831",
"V  c #7D4B32",
"C  c #784B38",
"Z  c #785035",
"A  c #2B3643",
"S  c #373A45",
"D  c #473E45",
"F  c #3E434D",
"G  c #3B4349",
"H  c #384853",
"J  c #44444D",
"K  c #484649",
"L  c #554B4B",
"P  c #454B55",
"I  c #544D58",
"U  c #4C535B",
"Y  c #495257",
"T  c #56555A",
"R  c #5C544B",
"E  c #644E49",
"W  c #655655",
"Q  c #6C534D",
"!  c #6D6357",
"~  c #545A63",
"^  c #5C5B63",
"/  c #5B5D69",
"(  c #535A67",
")  c #4C5763",
"_  c #715E65",
"`  c #5D636D",
"'  c #5B6368",
"]  c #5D6475",
"[  c #5C6878",
"{  c #63636D",
"}  c #686869",
"|  c #766865",
" . c #626674",
".. c #646A75",
"X. c #6B6B75",
"o. c #646A7B",
"O. c #6B6D7A",
"+. c #656779",
"@. c #726D78",
"#. c #6B727A",
"$. c #697177",
"%. c #74757B",
"&. c #79777A",
"*. c #7F716F",
"=. c #9C0B05",
"-. c #9C090B",
";. c #980508",
":. c #990A16",
">. c #8A151A",
",. c #95141C",
"<. c #890C13",
"1. c #A40404",
"2. c #A50609",
"3. c #B30107",
"4. c #A40A12",
"5. c #B20A15",
"6. c #AB121A",
"7. c #8F1724",
"8. c #A81722",
"9. c #B41523",
"0. c #87282C",
"q. c #844C2D",
"w. c #8B4D2B",
"e. c #89512E",
"r. c #99552E",
"t. c #824E32",
"y. c #884F32",
"u. c #855134",
"i. c #8B5335",
"p. c #845239",
"a. c #8D5639",
"s. c #8E593B",
"d. c #8C5838",
"f. c #915635",
"g. c #945936",
"h. c #9B5B35",
"j. c #915739",
"k. c #945A3A",
"l. c #9A5D3B",
"z. c #985730",
"x. c #904F28",
"c. c #A35D35",
"v. c #A1562A",
"b. c #97623D",
"n. c #9C613D",
"m. c #A3633D",
"M. c #A9643B",
"N. c #AB683D",
"B. c #B5693B",
"V. c #813F46",
"C. c #865B46",
"Z. c #925B43",
"A. c #914F4F",
"S. c #9D6441",
"D. c #996546",
"F. c #886856",
"G. c #976B55",
"H. c #99735B",
"J. c #8A6951",
"K. c #A46641",
"L. c #A46941",
"P. c #AC6A42",
"I. c #A66947",
"U. c #B16C43",
"Y. c #B86F4B",
"T. c #AA704C",
"R. c #B67446",
"E. c #A57456",
"W. c #B77B59",
"Q. c #AA6D53",
"!. c #89746A",
"~. c #987765",
"^. c #877A7A",
"/. c #937275",
"(. c #A67B66",
"). c #B37F6D",
"_. c #8E5F62",
"`. c #C8754B",
"'. c #938173",
"]. c #AB836A",
"[. c #B58265",
"{. c #A78978",
"}. c #B38A76",
"|. c #AC927E",
" X c #C58D6B",
".X c #F9A879",
"XX c #EFAB75",
"oX c #D89268",
"OX c #5E6A81",
"+X c #666B81",
"@X c #6B7D8C",
"#X c #697885",
"$X c #777A84",
"%X c #706E81",
"&X c #857D87",
"*X c #6D808E",
"=X c #77828A",
"-X c #6E8291",
";X c #788895",
":X c #7F919E",
">X c #7D93A5",
",X c #888588",
"<X c #978A87",
"1X c #878B95",
"2X c #8A949B",
"3X c #979497",
"4X c #959091",
"5X c #A78885",
"6X c #AC948E",
"7X c #8996A2",
"8X c #979AA6",
"9X c #879EB2",
"0X c #A59EA6",
"qX c #9BA6AE",
"wX c #9AAAB8",
"eX c #8DA3B2",
"rX c #A8AAB4",
"tX c #B4ACB2",
"yX c #A8B3BA",
"uX c #B4B7BA",
"iX c #AEA8A9",
"pX c #9FA19C",
"aX c #D4B09D",
"sX c #EFB588",
"dX c #ECBEA7",
"fX c #CFBCA2",
"gX c #FBC493",
"hX c #F7C2A0",
"jX c #B7BAC6",
"kX c #AEBBCC",
"lX c #C4BEC6",
"zX c #B9C3CA",
"xX c #B8C9D5",
"cX c #B5CCD8",
"vX c #BFD3E0",
"bX c #C6C5CB",
"nX c #C7CBD5",
"mX c #C9D4D9",
"MX c #D3CCD5",
"NX c #C8DBE7",
"BX c #D2DCE5",
"VX c #C4CFE1",
"CX c #D8E9F4",
"ZX c #D6E6F0",
"AX c #EAEFF5",
/* pixels */
"i.i.f.i.i.p.y.p.t.V t.V V V m t.V V m V m m V p.V p.p.p.p.p.V C m m m m n n n n n n n B n n n n n b b b b b b b b b g g c g g g g ",
"B B B B m C t.t.t.y.y.i.a.i.i.i.j.j.j.k.k.k.g.f.i.f.i.e.f.l.l.l.b.b.l.l.l.l.l.n.l.l.l.l.l.l.k.l.k.k.k.k.k.j.i.j.a.a.i.i.p.a.p.p.t.",
"C C V t.t.t.V p.p.t.p.y.p.y.i.i.y.y.f.r.y.w.j.E.). X}.}.E.D.i.y.w.f.f.f.a.d.i.i.y.y.t.t.V t.V V V q.m B n m n b b N n N N N N N N ",
"g b b g g N N b N n N m m m t.m t.t.y.&X6X(.A.A.A.A.A.A.A.A.G.}.6XQ.u.u.q.q.u.e.t.p.i.i.d.p.i.y.u.u.p.y.t.t.t.t.t.m V V m m N N N ",
"m V V V t.t.t.t.t.y.y.y.y.y.y.Z.D.5X_.C l 0.7.,.:.:.,.,.,.7.0.0.0.A.5XG.i.d.i.d.a.j.i.i.i.u.i.i.i.a.a.y.t.V V V V m n N b N b b b ",
"N N N C N V t.t.C p.V y.t.t.G.~.A.j 7.7.9.9.6.6.6.6.:.6.6.8.9.9.8.0.4 Q k.i.i.i.a.y.i.i.i.u.i.y.t.V t.q.V t.t.t.y.p.y.t.y.V V B V ",
"N N V V V V V B n n n M j._.A.7.,.8.6.5.3.3.3.1.2.-.;.;.-.2.5.5.8.r s C.g.f.f.i.j.i.i.i.i.i.i.u.t.t.t.t.t.t.V t.V t.N t.t.m t.V V ",
"t.t.t.t.y.y.y.V p.p.q.E._.l >.8.4.1.3.3.3.3.3.2.4.-.;.;.4.2.2.4.<.k G.f.i.a.j.k.j.j.j.j.i.f.i.i.f.i.i.i.i.i.y.V V p.t.t.V V B N b ",
"n C V V m t.V e.u.q.H./.r 7.8.;.1.1.1.1.1.1.2.=.2.-.;.=.=.-.:.7 y (.c.k.l.l.n.n.l.l.l.l.k.l.k.k.l.k.j.j.j.f.d.d.a.i.i.p.u.p.q.V V ",
"t.t.t.t.p.p.i.p.u.i.C.k 7.:.:.-.-.;.=.1.=.=.=.2.4.1.;.1.2.-.7 r ].T.f.l.l.l.g.g.l.k.k.g.f.d.f.k.i.i.i.i.i.u.u.i.y.y.e.t.q.t.t.V t.",
"g g M g M c c b M b C y 8 :.:.:.;.;.;.;.=.=.=.=.:.;.;.3.2.>.6 F.G.M t.m m m m B m n m n b M b b M g c g g f d d h d i i w w w q q ",
"p.a.p.p.i.i.a.i.i.s.e.].r 6 :.:.:.:.2.4.=.4.-.,.<.<.<.-.-.6 l }.x.b.k.l.k.b.k.l.b.k.k.k.b.k.g.f.f.i.s.i.i.a.i.i.u.u.u.t.u.p.V V C ",
"a.j.Z.j.k.k.k.k.Z.l.l.K.5Xe >.:.4.:.:.:.:.<.<.<.7 6 8 8 r 6 * !.W.M.P.P.L.m.K.c.m.n.n.n.n.n.m.l.n.l.g.f.f.i.f.d.f.a.s.s.s.d.d.s.s.",
"t.t.t.y.t.V p.a.a.a.a.w.G.R 5 >.,.>.7 6 6 6 y l l k k y e s &XD | ~.K T '.e.f.j.f.e.f.i.i.u.u.i.u.e.i.i.j.i.i.u.t.t.q.t.m t.t.B B ",
"V t.t.t.p.i.i.p.i.i.y.G./.2 y 4 4 e k A.&X&X0X0X0X4X&X&X_ /.bX0X< < T } J !.M.c.M.M.n.m.m.m.n.n.n.n.n.l.l.k.g.k.k.s.i.i.i.i.i.p.i.",
"V V t.t.t.t.i.i.i.a.x./., 4X<X2 _ <XtXlXlXtX7X,X$X$X$X/.^.,X1X' 1 #.uXzX,XJ !.c.k.h.k.h.z.g.g.f.f.f.f.i.i.i.i.i.i.u.u.u.u.t.t.u.m ",
"y.t.t.t.t.t.t.u.u.e.J.D &.mXMXtXlXbXuX7X$X+.[ ] ] ] ] ` $.Y , G 1XmXo./ MX$XY |.c.S.m.m.n.l.l.l.l.z.k.k.k.a.j.a.a.i.i.a.p.u.u.u.t.",
"p.a.p.p.i.i.i.z.e.E.} Y jXAXAXAXbX3X$Xo.+.+.+X+X+X+.o.o.H ; ( rXjXnXU X yXjXU | M.K.c.c.n.m.l.n.l.l.b.b.l.k.k.Z.Z.k.a.a.i.p.p.i.p.",
"p.d.d.s.y.y.i.i.i.C.H 1XzXBXBXBX3X..[ o.+X+.] +X+.+X+.A , #XjX0XrXVXO.o ` 1XP L K.l.l.l.h.l.k.n.h.g.l.k.b.S.b.k.k.k.Z.a.y.a.u.y.u.",
"B B B V V V t.t.Z.!.Y jXZXzXjX2X[ $.o.o.+.+XO.+.%X .; A 2XmXnX^ D 8XX.. , #.J Y ).f.g.h.f.f.f.f.i.f.i.i.i.u.u.u.t.t.V m n n b M c ",
"0 q q p p p i w c #.` nXBXVXwX..{ +.+.+.o.O.{ +.I & I jXlX$X&XI o I @., & #.P L [.n.S.L.K.L.S.n.m.S.n.n.L.S.n.b.b.b.k.k.s.d.d.p.u.",
"n V t.p.i.a.s.k.Z.T ,XxXkXkX$X .X.{ +.@.X.S X X X @.rX2X%X: 1 X., D %XX.{ %.1 R U.U.T.U.U.P.P.P.P.L.K.K.m.n.m.n.n.n.b.l.l.k.k.k.j.",
"i.f.j.j.j.l.l.l.Z.I 7XVXkXrX] X.X.X.+.+.S , %X3X: ^ @.{ +.^ U X.T ^ _ a S < < !.M.m.m.m.m.m.n.c.m.l.m.m.n.n.l.l.l.k.k.j.a.a.a.i.i.",
"y.i.y.y.a.i.a.j.Z.I 1XlXxX@X] $.+.+.+X( , ] $XBX&X& +./ ^ I D 2 > X X ) L C ~.U.h.m.n.n.m.Z.l.n.l.k.g.g.g.f.d.f.i.f.f.f.i.a.i.t.t.",
"y.y.p.i.i.f.j.j.s.U 1XbXkX%X+.X.{  .@.U A ] [ 1X#.X = = + + @ # @ @ W  X XR.B.U.U.U.U.P.P.P.P.K.K.n.l.h.z.z.f.f.y.q.m M g b m u.i.",
"i.a.f.a.g.g.k.h.D.` X.xXyXo.o.+.X.X.O.) A ] [ #.I > t $ t 0 p h 4 # /.B.U.R.U.U.P.U.N.P.L.N.M.K.m.M.M.m.n.m.n.n.l.n.S.n.n.n.b.l.a.",
"y.i.i.p.i.u.i.i.J.'.U zXrXo.+.+.+.+...] , F ^ | e C G.4 0 9 3 + u = {.(.c.M.N.M.m.m.m.m.n.l.h.l.m.m.l.l.l.l.l.l.l.l.l.b.l.l.k.s.i.",
"t.t.i.i.i.i.f.d.f.s.P 8XyX] +X+.o.o...#.~ > % y d Y.`.Y.Q.c O u 5Xx T '.W.Y.M.U.P.U.U.P.P.N.M.m.l.l.l.l.k.g.g.g.k.k.i.i.i.i.i.i.i.",
"i.i.a.a.a.f.f.g.f.T.R / yXX.[ OXo.o.o. .@.L $ p.Y.`.`.sXsX`.3 ].fXa | $X+X&XB.M.N.m.m.m.m.m.m.n.l.m.l.l.k.z.f.i.i.i.i.i.p.u.i.t.t.",
"g g g b j b b c b z F.H $X$X] +X+Xo.o.o.O.R # ).`.`..XsXsX.X[. XfXu | MX8XU !.Y.B.U.P.N.N.N.m.M.m.m.m.l.n.n.l.g.g.k.g.i.i.i.p.t.t.",
"d d f f c b b b b b Z ! , / O.+.o.o. .o.%X^ + p W.`.XX.XXXXXsXsXdX6X% R tX,XP ^.d.e.e.e.e.e.e.i.i.f.f.g.g.f.f.f.f.f.f.f.f.j.f.f.j.",
"S.K.S.K.K.m.m.N.N.P.N.U.E X / %.o.O.O.o.] O.I # 4 C  XsXsXgXgXhXdXaX# X x qX%.P |.h.n.n.k.f.d.u.e.t.u.V V m m m B n b g g f f f g ",
"i.i.a.j.j.g.k.k.l.l.l.l.U.T . J O.@.O.O.+Xo.O.@.a $ 9 Z ].].C.Z h $ O @ o } pXP }  XB.R.R.[.R.R.R.R.R.R.B.T.N.N.n.n.b.f.d.e.u.u.B ",
"f.j.j.g.k.f.l.l.l.l.K.c.).1 , - & J { X.O.+.+.O.&.} 2 + + % u x E !.3X6XX > 3X*.) ].B.N.M.B.M.M.m.m.n.n.h.n.n.b.b.b.b.n.n.n.n.n.l.",
"y.a.i.a.a.j.a.j.i.f.f.l.x & %...J : : S U / [ ..+.%.#.X.! &.3XyXlXMXMX0X@ > | 4XY F.B.M.M.n.n.n.l.l.k.z.g.d.d.z.z.d.d.d.u.q.t.t.y.",
"t.t.y.f.i.j.k.k.k.l.r.<X- ^ $...O.@.^ I P P / o.o. .#.o.[ [ [ #X#X;X8X&Xo t E 8XK &.[.c.N.N.M.M.M.c.n.m.m.n.n.n.b.h.h.z.g.g.f.f.i.",
"i.a.g.k.g.k.l.l.l.l.l.H.D 1 ' $...{ X.%.O.O.+.+.%X+...[ o.[ +XOXOX] +.T   > x 3XY $.[.M.N.N.].H.H.}.T.r.r.h.b.g.f.j.f.a.d.i.i.i.p.",
"t.y.y.y.p.i.i.i.k.f.f.z.C.: : G ` X.X..... .+...o.+...$.o.[ OX+X+X%X@.L   t x 4X' ' [.v.E.'.$.;X;X;X&.'.{.].r.z.f.j.f.a.d.i.i.p.i.",
"a.y.a.j.f.f.g.k.h.l.l.n.S.1 %.< : G T ` O.X.#. .X.O.{ ..+.OX[ [ OX+.%.L   9 u &.Y } ].'.$.;XyXBXxXyXqX7X;X$.!.4X].Z.g.j.a.i.i.u.t.",
"i.a.a.a.f.s.k.f.k.k.l.l.^.T nX$XF , - , J U ~ ] O.o.O.%.%X+X%X#XO.X.*.x O 9 a T < G =X$.8XBXCXBXZXAXCXBXcXzXqX;XX.&.{.q.a.i.i.u.y.",
"t.y.y.i.y.i.f.f.f.f.f.z.| ' bX$X .O.~ S . & & & - , < S S A S S S 1 2 # O 9 E ' ; < A wXxXNXZXNXCXZXZXCXCXCXZXzX} Y (.i.k.j.i.i.i.",
"a.a.j.j.j.k.k.k.k.n.b.m.<XY jX$X] O.+.S ( 1X2XP X G S < A < J D X   + + 9 u a P $.wX9XzXxXxXvXZXNXCXCXCXNXyX3X[ 1 J.z.k.f.a.a.i.i.",
"y.a.i.i.f.f.g.g.z.l.l.l.D.2 uX1X] O.~ A 1X8XjXrX< ' #.$.O.X.tX&X* # t u %   K qXxXcXcXxXcXcXcXNXCXCXcXeX;X-X#.G E z v d f d d d d ",
"g g c b b n b b b b b n M T $X8X/ O.P S { / O.$X, ' $.} X.&.tXE # * > @ 2 '.mXcXxXcXzXxXcXvXZXNXcX>X-X@X*X;XH =XT.n.b.b.b.l.S.Z.b.",
"t.u.p.i.a.k.k.b.l.n.S.n.T.J.J qX..+.P S ..` O.~ : ' $.' R *.|.u * @ = X.lXnXzXcXzXcXNXZXNXcXeX*XOX*X*X#X*X) T D.g.k.k.k.k.a.a.a.i.",
"e.i.i.i.i.f.k.f.g.k.l.l.h.I.] X.&X .P A { O.X. .- ' ! x x R K X * I rXmXzXzXcXvXNXvXcXwX;X*X#X*X-X-X*X-X] ) G.x.a.a.y.y.y.t.t.t.q.",
"i.i.i.i.a.d.i.i.i.i.f.i.i.S.!.~ $X#.~ < / #.` #.< H ! % '.! + R 1XxXVXxXvXNXvXxXwX>X*X#X*X*X*X*X-X-X:X#X) <XZ.a.j.a.i.i.i.u.u.t.t.",
"m t.t.u.q.q.i.s.a.k.k.l.b.e.~.' J $X..S S O.O.%XY > R v b.J.! uXnXvXcXcXkXwX>X@X#X*X*X-X:X:X>X9XqXwXwX@X&.c.z.k.g.j.j.j.i.i.i.i.u.",
"e.u.d.i.i.u.u.i.f.k.l.l.g.l.F.P G G Y H - P @._ Q # y 5 M ].'.uXkXwX9X>X;X=X;X;X:X2X2X7X2X2X7X2X7X7X;X&.Q.u.i.u.u.u.t.t.t.t.t.V q.",
"u.u.i.u.i.u.q.u.s.l.k.g.l.~.~ &X' S < < ; - D e y Z.P.0 w ].Z &.1X;X-X-X-X=X$X#X%.=X;X;X2X1X^.| !.'.6XD.e.i.f.f.f.g.f.i.f.i.i.i.p.",
"p.i.u.i.d.k.f.s.s.k.j.f.Z.%.K 0X$.} ' ~ / I @ $ C W.`.a.3 J.'.R ' ' OX#X@X;X2X<X'.!.H.(.].].T.h.z.z.r.h.l.k.k.i.i.i.t.t.V B B m b ",
"V V V V t.m m u.u.u.i.u.f.C.T J } &.=X=XO.&.D O N ).W.E.3 w ].R <X{.G.D.D.T.E.E.S.n.x.w.q.q.q.m B n b M c f f f f d d d d d d i d ",
"u.u.i.i.i.i.d.f.a.i.a.a.f.i.Z.!.K Y Y ' @.&XW * 3 j ).(.c v '.J.!.r.e.e.e.e.e.i.d.b.b.b.b.b.b.b.l.k.k.k.k.k.k.k.k.i.s.s.i.a.i.i.u.",
"p.u.t.B n b n m t.p.i.d.i.i.u.u.x.6X| - : 2 2 o u Q F.! ].!.v ! '.[.m.m.L.N.m.m.m.n.n.k.l.h.l.k.l.k.k.l.k.d.a.i.i.i.u.y.q.t.V V C ",
"v B C Z p.p.d.e.i.k.l.l.b.S.m.n.n.h.G.) ) / D D }. X}.W.r.(.!.d.I.r.n.n.h.l.n.l.b.n.n.h.l.l.l.g.i.i.a.a.d.i.d.p.a.p.p.V t.m t.V t.",
"s.s.s.s.k.k.k.k.k.i.i.f.i.f.j.f.s.i.G.' F  .S A W !.z.r.n.N.[.b.b.n.n.n.n.l.h.l.l.z.f.d.i.e.u.i.d.f.k.a.s.s.Z.s.Z.s.s.i.y.p.p.p.V ",
"a.p.p.t.t.t.t.t.p.u.i.i.f.f.j.k.j.w.(.$XS ( , A H G T D.l.f.z.g.z.b.l.g.k.g.f.i.t.i.f.g.k.a.i.i.i.i.u.t.u.V V V V V V t.V V u.u.t.",
"N B V V V t.t.q.q.t.t.t.u.u.u.t.t.q.(.%.& & A ( ) H A '.x.j.j.f.i.d.i.f.e.f.k.l.l.l.g.k.k.f.i.p.V q.t.t.V V u.t.V V V u.e.t.Z u.V ",
"b n n B N V V V V V V m m V t.q.t.t.Z.'.] H P U H ( %.G.y.f.i.i.i.f.g.g.k.l.j.j.f.f.f.i.i.f.f.f.s.f.d.s.s.d.a.s.d.d.p.u.V V m b B ",
"V N V V V V V t.y.t.y.p.y.p.y.i.i.i.y.Z.~.Z.C.C.C.J.G.w.a.f.j.i.i.i.u.i.y.u.y.u.y.p.i.i.u.p.t.y.u.p.u.m u.u.V t.m V m V V V B V m ",
"b b b b n n N t.V y.y.i.i.i.i.f.a.a.j.i.w.f.f.g.k.f.i.k.g.g.g.g.g.f.f.f.f.f.j.j.j.j.f.i.f.i.i.s.i.d.i.i.a.i.y.p.i.p.t.p.u.u.Z u.B ",
"V V V m V t.t.t.t.t.t.y.t.t.u.u.y.i.i.a.g.j.j.k.k.k.k.k.g.k.k.k.l.k.k.l.k.k.k.g.j.f.k.j.k.k.k.i.i.i.i.i.i.y.y.t.t.m m B B B B B B ",
"c N b N N N N N N B C N N n m q.m t.t.p.t.p.y.y.y.p.y.p.i.y.y.y.t.y.y.t.p.y.y.y.y.y.t.y.t.t.q.V u.m u.V B t.V N n b n N B B b n C ",
"c b N N C V V t.y.p.p.a.a.p.a.a.a.a.y.y.y.y.p.y.p.y.i.i.u.i.u.y.u.y.t.p.y.y.y.y.y.t.u.p.t.t.u.m u.u.t.u.t.t.t.t.p.t.p.V B B c c v ",
"t p 0 0 0 q q p q q p w w d d d d d d v v v j M M j b b M b b n N b B B N n n b B B N b b b c c c c c f d d d i i p q p q q 9 9 9 "
};
