/* XPM */
static char *move_up__1_1712245355[] = {
/* columns rows colors chars-per-pixel */
"64 66 239 2 ",
"   c None",
".  c #140A0A",
"X  c #171519",
"o  c #390B06",
"O  c #2A120D",
"+  c #3A150E",
"@  c #281918",
"#  c #371A16",
"$  c #260C06",
"%  c #39221D",
"&  c #28271C",
"*  c #1E1C23",
"=  c #251F24",
"-  c #361720",
";  c #1E222D",
":  c #1F2231",
">  c #28262A",
",  c #252A34",
"<  c #2B2D33",
"1  c #2A2C3A",
"2  c #232634",
"3  c #372D32",
"4  c #2D313B",
"5  c #2B3135",
"6  c #323436",
"7  c #32353C",
"8  c #3A363C",
"9  c #393639",
"0  c #382A28",
"q  c #49180A",
"w  c #581C0B",
"e  c #461C17",
"r  c #561A16",
"t  c #641B1C",
"y  c #730C0D",
"u  c #4C2B1C",
"i  c #482519",
"p  c #532C1C",
"a  c #572518",
"s  c #57331E",
"d  c #5C240C",
"f  c #652719",
"g  c #491D24",
"h  c #781E24",
"j  c #472A25",
"k  c #532724",
"l  c #5C3521",
"z  c #5D3929",
"x  c #463837",
"c  c #573D39",
"v  c #4B342E",
"b  c #643A25",
"n  c #6A3D27",
"m  c #6B3F29",
"M  c #653826",
"N  c #75362A",
"B  c #394036",
"V  c #584438",
"C  c #4D4338",
"Z  c #6E412A",
"A  c #694529",
"S  c #74452D",
"D  c #78462D",
"F  c #7B492E",
"G  c #77482E",
"H  c #694939",
"J  c #754630",
"K  c #764932",
"L  c #7D4B32",
"P  c #764B37",
"I  c #7A523A",
"U  c #6A543A",
"Y  c #333542",
"T  c #3B3C43",
"R  c #3B3E4B",
"E  c #353945",
"W  c #2E3B4A",
"Q  c #473E44",
"!  c #3C434B",
"~  c #3D4146",
"^  c #3F4653",
"/  c #42444B",
"(  c #4D4B4D",
")  c #4A4446",
"_  c #564A48",
"`  c #5D524B",
"'  c #434654",
"]  c #4C4D52",
"[  c #4A4D5B",
"{  c #464B57",
"}  c #4D535C",
"|  c #4E5256",
" . c #53555C",
".. c #585658",
"X. c #5B4D57",
"o. c #685548",
"O. c #785947",
"+. c #695B56",
"@. c #795C56",
"#. c #6A4847",
"$. c #7B624B",
"%. c #7A665C",
"&. c #6C635F",
"*. c #4C5664",
"=. c #525563",
"-. c #545963",
";. c #5B5D64",
":. c #5A5D6B",
">. c #565968",
",. c #655C63",
"<. c #605F70",
"1. c #5D646C",
"2. c #5D6468",
"3. c #5E6472",
"4. c #5D6A76",
"5. c #63656C",
"6. c #696668",
"7. c #766B69",
"8. c #636675",
"9. c #646976",
"0. c #6B6C75",
"q. c #656779",
"w. c #656A79",
"e. c #696C7B",
"r. c #6A6778",
"t. c #736A72",
"y. c #6D727C",
"u. c #697177",
"i. c #777679",
"p. c #78726B",
"a. c #8E0E12",
"s. c #A90611",
"d. c #8A1B22",
"f. c #B11C29",
"g. c #862C2F",
"h. c #814C2F",
"j. c #824E32",
"k. c #824D3D",
"l. c #865134",
"z. c #8B5435",
"x. c #85543A",
"c. c #8C5639",
"v. c #8E593A",
"b. c #8F5837",
"n. c #915636",
"m. c #935937",
"M. c #915738",
"N. c #945A39",
"B. c #9A5D3A",
"V. c #9A5B37",
"C. c #83502F",
"Z. c #9D613C",
"A. c #A3633D",
"S. c #A8663E",
"D. c #A05F3B",
"F. c #875C46",
"G. c #935E42",
"H. c #965A41",
"J. c #8A544D",
"K. c #89624B",
"L. c #956143",
"P. c #9C6342",
"I. c #98674C",
"U. c #866656",
"Y. c #956B54",
"T. c #986B56",
"R. c #96745B",
"E. c #87715E",
"W. c #A36643",
"Q. c #A66A42",
"!. c #A76A46",
"~. c #A67557",
"^. c #AE7058",
"/. c #8A7265",
"(. c #8A7B77",
"). c #8C756F",
"_. c #AE7764",
"`. c #C46D5C",
"'. c #C67362",
"]. c #7C817D",
"[. c #858178",
"{. c #AB8870",
"}. c #CA9077",
"|. c #6A6E81",
" X c #6B7B85",
".X c #697C8A",
"XX c #737583",
"oX c #7B7D84",
"OX c #777B87",
"+X c #807F86",
"@X c #6D818E",
"#X c #73828C",
"$X c #7B838C",
"%X c #7A8794",
"&X c #768997",
"*X c #798FA0",
"=X c #85868A",
"-X c #968A89",
";X c #858896",
":X c #8C929B",
">X c #889399",
",X c #969598",
"<X c #989389",
"1X c #A19597",
"2X c #A48F90",
"3X c #8A98A5",
"4X c #969BA5",
"5X c #8397B2",
"6X c #A59CA7",
"7X c #9AA3AA",
"8X c #98A9B4",
"9X c #A4A3AB",
"0X c #A5AAB5",
"qX c #A8B2BA",
"wX c #B8B1BB",
"eX c #B6ABAC",
"rX c #C1B3BB",
"tX c #A8B9C7",
"yX c #B8BCC7",
"uX c #B0AFC0",
"iX c #C6BBC7",
"pX c #B8C3CD",
"aX c #BCCCDA",
"sX c #B6C6D4",
"dX c #B6CBD9",
"fX c #BBD1E4",
"gX c #C3C3CC",
"hX c #C2C7D6",
"jX c #CAD6DD",
"kX c #D1D5DA",
"lX c #C6D8E6",
"zX c #D6DCE3",
"xX c #CBE1ED",
"cX c #D7E5ED",
"vX c #CDE4F2",
"bX c #D5E9F3",
"nX c #E8F4F9",
"mX c #E1EEF3",
"MX c #E0DDE4",
/* pixels */
"z.z.z.z.k.j.j.j.j.j.j.j.L L L j.F F L L F C.I l.L I l.l.k.j.L J L h.h.D D h.D D F F F F F J D J D N D S D D S J m S m J m m S m ",
"K K L L L j.j.j.j.l.l.z.z.z.z.z.b.b.m.v.N.m.m.m.Z.v.v.Z.N.V.N.B.N.m.N.N.N.N.N.V.N.N.M.N.m.M.M.M.n.n.M.z.z.z.z.l.l.l.l.x.l.k.L j.",
"K J L L L j.L j.j.j.l.l.l.l.l.l.z.z.z.z.c.z.c.c.b.M.b.b.M.M.M.n.m.M.n.n.n.z.z.l.l.l.j.j.l.j.j.j.F j.j.K D D D J L J J N J J J J ",
"J S S S D J J L L K L L L j.j.j.L L l.l.l.l.C.z.z.z.z.c.z.l.l.z.l.l.l.l.l.C.z.l.l.z.z.z.z.z.l.l.z.z.j.j.j.j.j.L L L h.F L J J J ",
"L J L L j.L j.j.j.j.l.j.l.l.l.z.l.z.z.z.b.z.z.l.z.F.n.c.F.I.J.M.n.M.M.z.z.n.z.z.n.z.l.z.l.z.l.z.l.l.j.h.L h.j.D L J J S S J S S ",
"J L L K L L L j.j.j.j.j.j.h.j.C.l.l.l.z.l.l.z.z.n.(.#.#.#.T.k.T.L.n.z.z.z.z.z.z.z.z.z.z.z.l.j.C.F j.h.j.j.j.k.l.j.j.j.h.L L L J ",
"L K j.L j.L D L D D L j.l.z.z.n.M.M.M.M.M.B.m.B.N.U.r g.d.d.d.N K.H.M.M.M.M.n.n.n.z.z.z.z.z.l.l.j.j.l.j.j.j.L j.L L L L L j.L L ",
"L j.j.j.j.k.j.j.l.z.z.n.n.n.M.m.N.m.N.M.M.m.m.m.N.H.t d.f.f.f.g.g T.N.M.M.m.M.N.M.n.n.n.n.n.n.z.n.z.z.n.l.j.j.j.j.j.j.L L J J J ",
"K L L j.j.j.j.l.l.z.l.c.c.c.z.b.z.b.z.m.z.z.z.z.z.c.g.y s.s.s.h N G.D.H.B.B.B.B.B.B.N.N.m.N.m.V.n.M.b.z.z.z.z.l.l.l.j.j.j.j.L j.",
"j.L j.j.j.j.j.l.l.l.l.l.l.c.c.z.z.z.z.n.z.M.m.m.m.P.T.y s.s.a.y #.H.M.N.m.b.z.m.z.z.z.z.z.z.l.l.j.l.j.h.h.L h.G h.L D D D S S S ",
"S S S S S S G G G G G L L G F L F L L h.l.C.L C.j.x.I r a.a.a.t K l.l.l.C.h.C.h.L L h.h.F F D G D D S S S Z Z Z n m M n M M l l ",
"c.c.v.v.b.b.N.v.N.Z.Z.v.B.Z.B.B.B.Z.Z.Z.Z.Z.Z.Z.B.L.@.r y a.y r ).I.B.D.Z.B.Z.B.Z.B.B.B.N.m.V.m.b.n.b.b.z.z.z.z.l.l.l.l.l.x.j.j.",
"z.x.z.z.x.c.M.N.N.B.N.B.N.Z.B.B.B.Z.B.B.B.A.B.@.) 0 x e r h t e c 3 Q J.G.P.V.V.B.V.N.B.M.B.V.n.m.z.z.b.z.z.z.z.c.l.z.l.x.l.l.x.",
"j.j.j.j.j.z.z.z.c.z.z.M.z.M.b.b.n.m.m.m.B.H / E r.4XwX#.- g - ).rX1Xt.8 Q #.m.m.m.N.V.z.b.b.n.n.n.m.V.m.M.z.z.j.l.c.l.j.I j.L L ",
"j.j.j.j.l.z.z.z.z.z.c.z.b.m.M.M.n.N.m.Y.V > |.uXiXiXiX6Xt.X.,.9XiXiXMXkX=X7 V ~.Z.Z.Z.Z.B.B.B.B.N.V.m.M.M.m.n.c.x.o.I z.x.l.j.j.",
"j.j.j.l.l.l.z.z.z.z.z.m.z.b.m.N.V.V.T...Q 4XiXyXyXyXiXwXwXwXwXyXyXyXzXnXzX:X6 o.Z.V.V.B.N.N.N.n.m.b.m.z.n.z.z.I ` ! 7.G.j.j.j.j.",
"l.l.l.l.z.l.z.z.n.m.V.M.B.V.V.B.B.I.6./ 9XpXwXwX4X;XOXXXu.y.y.$X:X4XtXyXpXjX,X5 O.W.Z.Z.D.D.D.B.B.B.N.N.Z.Z.$.C ,X%X;.x.C.z.C.C.",
"z.x.x.l.l.z.z.n.n.n.z.V.B.M.V.V.Z.$.9 ,XgXwX:XOX3.8.9.w.4.y.4.4.4.3.#X>XtXjXpX9.( ~.B.B.B.N.B.N.N.B.B.G.P.).;.7XcX>X^ $.v.I l.l.",
"l.x.x.j.j.l.z.z.z.z.n.n.b.V.m.V.N.( 6.hX0X$X9.9.|.4.|.4.4.4.w.4.w.4.4.4.#X7XpX8XT K B.V.V.N.N.N.M.B.v.L.p.2.qXnXkX>X| ].x.L L L ",
"b A n m S S N N D D D F F F F h.L 8 :X9Xi.9.9.u.y.w.4.4.w.4.4.w.w.e.4.e.w.XX4XyX| +.!.N.B.N.N.M.m.z.b.&.2.gXmXcXpX$X2./ I F G G ",
"n n m S S S S S G G F F h.F h.h.U.< 4X$X9.9.9.e.q.9.w.w.w.w.w.4.e.e.w.w.q.q.y.7X1.2.~.Q.Q.Q.Q.Q.Q.P.` u.jXnXcXvX8X@X@X! [.m.b.b.",
"j.l.z.c.n.M.N.Z.B.A.A.P.W.W.Q.Q.-XY oX9.8.8.9.9.w.9.w.|.w.|.w.q.w.w.q.q.q.9.8.y.-. .!.S.A.S.S.A.Z.` ].mXnXxXcXbX7X].#X} ` z.z.z.",
"z.z.z.M.M.M.M.B.N.N.N.B.Z.B.Z.Z.7.< 8.9.9.q.q.q.w.9.q.w.3.3.w.q.q.q.q.w.e.r.9.9./ / L.A.Z.Z.A.B.F.9.kXnXbXxXvXxX*X@X@X9./ Y.C.z.",
"l.l.z.z.c.c.b.b.M.V.N.N.V.V.I.+.8 7 y.q.q.q.w.e.w.w.w.q.=.=.w.9.q.w.9.w.w.e.9.0./ < _ K.A.A.Z.Z.U $XbXbXxXvXbXxX@X@X#X X .%.h.l.",
"z.z.z.M.n.M.N.N.N.B.B.B.B.I.6.| < E 9.e.e.r.w.e.w.9.9.|.[ { w.w.9.w.w.4.w.w.4.0.[ X | _ F.A.A.S.I %XcXvXvXvXbXtX@X@X@X&X$X` b.z.",
"z.z.z.z.n.n.n.m.m.N.N.B.B.I | 9X-., 9.r.w.r.e.q.w.9.9.|.[ ' |.9.4.w.w.w.9.w.9.u./ 1 ,X+XV !.A.S.U %XxXlXfXdXxX8X@X@X@X7X7X` I.z.",
"l.z.n.z.n.z.n.m.m.B.B.B.W.U.] =X2.; 1.e.r.r.w.q.w.w.9.e.[ ' e.9.q.q.9.9.9.w.w.w.E R oXoX..{.V.P.U %XlXsXdXdXxX*X.X@X@XpXu.%.z.z.",
"l.l.z.z.z.z.n.m.m.N.B.B.P.%.6 u.2.> :.e.r.r.w.q.4.4.w.e.[ { e.q.q.q.w.q.w.w.w.w.R ! r.-..._.V.!.$.u.tXsXdXlXfX@X@Xu.3X8X .I.z.l.",
"L L L F j.F C.x.j.F.-X-X2X[.< 5.} : 4.9.q.r.r.q.w.w.w.9.} ' q.w.9.9.w.r.w.e.w.e.R Y e.( o.~.A.~.u.^ 3XhXsXxXpX@X@X@XtXu.(.l.L l.",
"m m m S S K H +.] 8 ] x x x @ / , ! w.w.q.r.e.q.w.w.w.e.[ ' q.9.r.q.w.w.9.q.w.e.:.2 / < O.V.V.I.].3XhXsXdXcX*X@X.X7X3X5.v.l.l.l.",
"z.z.z.M.N.7...5.6X1X-X%.o.+X5.X 5 4.u.w.e.e.r.e.w.9.8.9.[ [ q.9.q.w.q.q.w.w.w.w.e.7 = o.L.z.z.K.e.7XjXsXfXlX&X.X#XqXu.p.L F G F ",
"m.N.B.H.).R y.gX6X+.c k j c ) >  .-.*.u.e.|.e.r.9.9.9.w.=.[ e.q.w.9.w.w.e.e.e.*.-.T 9 Q.S.Q.S.Y.y.7XsXdXlXsX#X@X>X>Xi.x.F F G G ",
"z.c.M.Y.8 e.9Xi.3 % u p p 0 @ * 5.1.^ Y Q =.q.r.q.e.e.|.3.:.e.q.e.e.q.4.>.' Y R -. .> ~.S.S.S.I.0.0XaXpXxXqX.X#X7Xu.U.Z.V.Z.b.v.",
"z.c.L.x ..9Xp.> % k u a a u O v 7.5.w.=.R 2 Y E ' [ =.>.:.:.>.=.{ ! Y 1 1 E *.8.e.5.> ).S.S.A.F.1.tXaXaXlX3X X%X>Xu.Y.z.l.z.l.z.",
"z.l.@.Q =X-Xx O # p a d d u + # ..7.q.q.|.|.=.R 4 , 2 : : : : : 1 Y R =.8.r.r.8.0.5.> /.S.S.S.v.3.yXdXlXaX#X X7Xy.U.m.b.z.z.z.z.",
"z.T.) X.6X+.% # q w w w d a p $ @ ..e.<.<.|.|.|.q.4.:.=.*.>.>.:.8.w.|.e.9.w.w.e.6.< _ ~.S.S.S.z.1.pXpXlXtX X%X>X..Y.b.b.z.z.l.z.",
"z.U./ t.1Xc i q o J H.t w w d q $ & ( 5.r.r.8.8.8.w.e.q.q.y.q.u.9.8.w.w.e.w.0.1.4 ( Y.A.A.Z.Z.x.4.sXdXlX3X X7X1.(.n.n.z.z.z.l.l.",
"z.P 8 =X[.i i q m }.}.W.N w d i # O X ~ :.q.r.q.q.8.9.9.9.9.9.q.e.e.r.9.r.8.[ 2 C I.S.A.S.Z.!.R.u.aXfXfX#X%X%X5.H.M.n.z.z.l.l.l.",
"z.c T -Xp.i p w N _.^.T.J.q q % & 0 X 6 1 ' XX;XOXXXw.e.u.9.w.w.i.OX%X;X9.E * X +.^.S.S.A.A.I.[.y.aXfXtX.X5X3.).M.M.z.z.z.l.l.z.",
"z.z R ,Xp.% u w d ^.J.k # O O O O $ 3 9Xr.= Y <.;X0X0X0X0X9X0X0X0X4XXX[ > / :X4 7 K.A.A.A.Z.Q.=X#XfXfX5X.XOXXXL.m.M.n.n.n.z.z.z.",
"n.z 1 i.,.% p f q f u Q _ . . . @ < | pX:X1./ 1 1 Y [ 1.y.XX9.-.R < , Y =.:XhX;.7 ( P.Q.A.S.Q.].*XdXdX*X>X1.%.B.M.c.c.z.l.l.l.j.",
"l.A < ] X.k p r q o # ( * 3 ( } 2.| -.qX=X9.e.9.:.' Y 1 1 , 4 Y R =.8.r.r.;XyX8.e.3...G.v./.$.6.,XfX8X#Xu.6.K.S D D S S S Z S S ",
"J c < _ ).k r r r + O X = <.w.4.w.^ *.pX%X1.w.9.q.q.q.|.9.9.q.e.|.r.8.8.q.;XiX|.q.uX=.+.E.&.&.V [.eX$X].&.K.b.b.c.M.b.v.v.v.z.c.",
"j.U.T 6.+Xc k k a o # . T e.9.q.9.[ { pX>X1.9.8.8.|.3.4.w.w.w.9.9.8.e.e.q.;XhXr.Q eXeXX.v $.{.~.R.K.o.U o.{.{.L.N.N.N.N.b.b.c.z.",
"z.Y.c ( 6XJ.t t a q $ $ @ ) t.e.t.,.7 6X4Xr.q.e.|.q.4.q.q.q.w.e.r.q.e.q.e.:XyX:.Q (.1XeX$.u A n.S.{.S.{.R././.v.z.l.z.C.j.C.j.j.",
"z.z._ 8 +X+Xv j p i q q e O # j x 3 X r.qXe.q.e.q.q.|.q.*.>.w.w.q.q.e.e.q.9X8XW *.|.4.@X7X<XH o q b U I R.$.%.L.n.l.z.l.l.l.l.l.",
"C.C.Y.6 | -X7.j u q w t w a e + # O @ 3 6X+Xe.r.|.|.4.|.' [ e.w.8.e.e.q.|.uXq.W .X|.4.4.2.].U f d.f + A O.V T.B.z.z.z.z.z.l.l.C.",
"l.z.l.+.6 i.<X+.i i q w w a k k j # c _ ,.4X8.q.|.|.4.|.R { e.9.q.r.9.q.;X;XY 2 ^ 3.4.w.].V s }.'.{.Q.I {.F.l.z.z.l.l.l.l.j.j.j.",
"C.z.z.Y.) 6 i.<X&.j q i a u i k j c -X..> oXoX9.9.9.4.u.! [ e.9.r.r.8.e.;X( H O...3 9 ) ..V k ^.`.`.}.I ~.n.M.z.z.z.z.z.l.l.l.l.",
"l.l.l.l.I 9 / oX,X(.x j i j j v +.<X7.( 2.3 9.4.9.y.w.e.{ } w.9.u.5.e.r.Y 6.P.P.Z.I.p...B = + k.^.^.I $.b.C.l.j.j.L F D D S Z Z ",
"j.j.j.j.j.P 8 Y e.:X,X-X).6.+.=X1Xp.| ,X..2., 5 ! ' } -.| }  . .=.{ T < ]  .Y.B.b.v.x.C.l.C = q r + o.I S S S S S Z Z Z n n n n ",
"j.l.l.l.z.j.F.+.7 R 5.=X,Xi.( ,.| C /.i.2.=X~ { E 4 4 4 , , 5 < 5 7 Y  .:Xe.X.B.Z.Z.Z.m.Z.F.H #.v & K.Z.b.b.z.z.l.z.l.l.l.j.j.j.",
"j.L K S G F F K.O.&.9 > 5 6 > ] O.I.K.B ,XoX/ e.q.8.1.5.R [ :.:.5.0.5.r.XX9XT E.Z.Z.Z.m.N.B.B.T.F.L c.M.c.c.c.z.l.j.j.j.L L L L ",
"K k.x.v.b.m.m.m.v.I.x.L K.K.l.L.P.B.I.o./ y.;XOXXXe.r.y.T [ 0.u.e.y.oXoXy.[ _ I.m.V.V.m.m.n.m.z.n.c.x.c.c.c.c.x.c.j.j.j.j.j.j.L ",
"c.x.c.c.c.c.z.z.z.z.c.M.N.B.N.M.N.N.B.m.U.6 4 :.XXOX;X=Xi.i.;X$XoXu.-.7 5 p.Z.m.m.b.c.z.z.z.n.n.M.c.c.c.c.c.F.c.x.c.x.j.j.j.L I ",
"j.j.L l.j.j.j.l.z.z.l.z.c.z.b.b.b.z.b.c.z.6.< T 1 Y R -.>.1.-.~ < 7 7 4 ;.Y.z.z.b.m.b.b.n.x.l.l.j.j.L L K L F L L L L j.j.j.j.j.",
"L L L L L j.L j.L l.j.j.j.j.l.l.l.z.n.z.M.7.7 <.<.R 0 O.P J O.) T ;.;.~ +.R.B.N.N.m.m.m.M.z.z.z.z.x.z.l.x.l.z.l.l.l.l.j.j.L L K ",
"S D J F L L L L j.F h.h.j.j.h.l.l.j.l./.) > , ;.:.Q +.n.n.z.V.H ~ ..2.6 , 8 (.M.z.z.z.z.z.z.l.l.l.l.l.l.l.l.l.j.L L L G G S G K ",
"J J K L L L j.j.l.l.l.z.z.l.z.n.z.n.z.U.8 ] < 9 T 4 ).N.n.z.n.Y.) E 9 5  .5 7.z.z.z.l.z.z.x.z.z.z.z.z.l.l.l.z.j.l.I j.L I L L L ",
"D J D D L L j.j.j.l.l.l.z.z.z.z.z.z.n.T.X.9 T < 3 > T.M.M.N.M.~.C < < 8 9 ( R.n.n.n.M.M.n.z.n.z.z.z.z.l.z.l.j.l.l.L j.L L L K D ",
"L D D J L G F L L L L h.h.h.j.j.l.l.z.n.U.H X.Q Y Q Y.m.m.n.n.H.` 7 8 ] _ K.N.M.z.n.z.z.c.z.z.z.l.z.C.z.l.j.L G D S K K G J J J ",
"J J K L P L j.L L j.j.j.j.j.j.j.j.j.j.j.j.l.F.K J P l.l.l.j.l.h.L Z J I c.h.j.j.j.j.j.j.h.F F j.L L L F L L L K L L L K K S J J ",
"M n n m Z Z Z J J J K L D L j.L h.h.D h.j.h.h.h.C.z.j.l.z.j.j.j.j.l.l.l.j.j.j.j.j.j.j.j.j.L j.F F F F F S S J S S Z A n b z l l ",
"j u u u u u u p p p p p l l s l l l M M M M n n n n n n m m J S m S Z S m S S J J m m Z n n b A b l b l l l s s u u u u u u i j ",
"                                                                                                                                ",
"                                                                                                                                "
};
