/* XPM */
static char *move_down__1_1712245354[] = {
/* columns rows colors chars-per-pixel */
"65 65 253 2 ",
"   c #03050A",
".  c #1C0709",
"X  c #090B14",
"o  c #1C0F14",
"O  c #0D111B",
"+  c #12141D",
"@  c #19191C",
"#  c #1B140D",
"$  c #280906",
"%  c #330B06",
"&  c #271717",
"*  c #381A17",
"=  c #33110F",
"-  c #33221A",
";  c #171B26",
":  c #1C222A",
">  c #1D2431",
",  c #22242C",
"<  c #292629",
"1  c #36292B",
"2  c #232633",
"3  c #292B36",
"4  c #362C33",
"5  c #2C323A",
"6  c #34363D",
"7  c #353228",
"8  c #46170A",
"9  c #511B09",
"0  c #461B14",
"q  c #531D15",
"w  c #4E0B08",
"e  c #72100F",
"r  c #5B260C",
"t  c #53220D",
"y  c #4A2518",
"u  c #532E1D",
"i  c #562513",
"p  c #54311E",
"a  c #5A321F",
"s  c #492209",
"d  c #6A371B",
"f  c #6A3014",
"g  c #472C25",
"h  c #5C3521",
"j  c #5A352B",
"k  c #563A36",
"l  c #4E322D",
"z  c #643A24",
"x  c #6A3D26",
"c  c #6E3E29",
"v  c #633724",
"b  c #6D322C",
"n  c #561F29",
"m  c #7D441A",
"M  c #48413D",
"N  c #594339",
"B  c #6E412A",
"V  c #67442A",
"C  c #74442C",
"Z  c #79462C",
"A  c #7B492E",
"S  c #7A4424",
"D  c #674839",
"F  c #764630",
"G  c #764931",
"H  c #7D4B32",
"J  c #764A38",
"K  c #7C513A",
"L  c #6D5539",
"P  c #2E3541",
"I  c #323541",
"U  c #353B44",
"Y  c #3B3C44",
"T  c #3B3D4B",
"R  c #363B48",
"E  c #36394B",
"W  c #463E46",
"Q  c #3D424C",
"!  c #38414A",
"~  c #3E4553",
"^  c #3D5161",
"/  c #45464A",
"(  c #574947",
")  c #454B54",
"_  c #4A4D5A",
"`  c #474A55",
"'  c #564F59",
"]  c #4D525C",
"[  c #4B5257",
"{  c #52555D",
"}  c #595458",
"|  c #5F534C",
" . c #674A47",
".. c #685246",
"X. c #765A49",
"o. c #665955",
"O. c #765F58",
"+. c #78665B",
"@. c #6F6258",
"#. c #4E5764",
"$. c #535A63",
"%. c #5B5D6B",
"&. c #575A66",
"*. c #545E71",
"=. c #635C65",
"-. c #5D626B",
";. c #596267",
":. c #5E6473",
">. c #5C6877",
",. c #5C7075",
"<. c #666569",
"1. c #776B67",
"2. c #626674",
"3. c #656A74",
"4. c #6A6C74",
"5. c #656B7A",
"6. c #6A6D7B",
"7. c #646779",
"8. c #756C76",
"9. c #6C737D",
"0. c #687178",
"q. c #777578",
"w. c #78726C",
"e. c #911215",
"r. c #B30A0B",
"t. c #873E1A",
"y. c #8D3125",
"u. c #B11B29",
"i. c #C80F14",
"p. c #834417",
"a. c #945214",
"s. c #834C2D",
"d. c #8B4E2D",
"f. c #854524",
"g. c #95542E",
"h. c #824E32",
"j. c #894F33",
"k. c #855134",
"l. c #8B5335",
"z. c #8D5639",
"x. c #8E593B",
"c. c #885639",
"v. c #925635",
"b. c #945936",
"n. c #9B5A35",
"m. c #915738",
"M. c #945A3A",
"N. c #9A5D3B",
"B. c #995632",
"V. c #8B512F",
"C. c #A15C35",
"Z. c #B05B3B",
"A. c #9C613D",
"S. c #96613D",
"D. c #906227",
"F. c #A3633D",
"G. c #A8653B",
"H. c #B86C2F",
"J. c #D16B38",
"K. c #885C46",
"L. c #925D43",
"P. c #87614A",
"I. c #9C6441",
"U. c #97664A",
"Y. c #866856",
"T. c #976D56",
"R. c #99725E",
"E. c #A36542",
"W. c #A76A46",
"Q. c #B36C44",
"!. c #A77556",
"~. c #B47857",
"^. c #B3744D",
"/. c #886E62",
"(. c #887369",
"). c #987A6A",
"_. c #877A78",
"`. c #967674",
"'. c #A27C65",
"]. c #B4776B",
"[. c #CD744D",
"{. c #E07350",
"}. c #B7863B",
"|. c #D4853F",
" X c #B58957",
".X c #98847A",
"XX c #8B837C",
"oX c #A6836A",
"OX c #AF8870",
"+X c #D88754",
"@X c #CF9770",
"#X c #EB9A6D",
"$X c #F9AA6B",
"%X c #FCB46B",
"&X c #FBAC75",
"*X c #FAB579",
"=X c #E8AA77",
"-X c #EF9650",
";X c #F3C166",
":X c #697989",
">X c #767986",
",X c #697D92",
"<X c #6A7085",
"1X c #5D7285",
"2X c #877D84",
"3X c #7A818A",
"4X c #6C8395",
"5X c #798795",
"6X c #6C848D",
"7X c #7D92A2",
"8X c #7F8FA0",
"9X c #83848B",
"0X c #878A97",
"qX c #8B929C",
"wX c #95959C",
"eX c #978D8C",
"rX c #AC9589",
"tX c #8A99A6",
"yX c #999BA7",
"uX c #958FA1",
"iX c #9AA2AA",
"pX c #9AA9B7",
"aX c #8CA6B4",
"sX c #A6AAB6",
"dX c #ABB2BA",
"fX c #B4B6BD",
"gX c #A7A5AA",
"hX c #AD9EA0",
"jX c #CBA78B",
"kX c #FABA87",
"lX c #E9AE85",
"zX c #FCC285",
"xX c #EEC780",
"cX c #ABB9C5",
"vX c #B4BAC5",
"bX c #AFBED1",
"nX c #9DB1C5",
"mX c #B3C4D2",
"MX c #B8CAD7",
"NX c #BDD0DD",
"BX c #B3C2CB",
"VX c #BDD6EA",
"CX c #C6CBD7",
"ZX c #C6D2DC",
"AX c #C8CBD2",
"SX c #C6D9E5",
"DX c #CDE3EB",
"FX c #CEE1E6",
"GX c #D6EAF6",
"HX c #D3E4EB",
"JX c #E4E6EB",
"KX c #EAF8FC",
"LX c #F5F5F8",
/* pixels */
"l.l.v.l.z.k.k.h.h.h.h.h.H h.A h.A A s.A A A H k.H K H k.K K h.H G Z Z A G Z A Z Z Z Z Z Z Z C C Z Z C C C C C C C C c c C c c c c ",
"G G G A J H h.h.h.k.k.l.k.z.l.l.x.m.M.M.b.M.M.M.S.S.M.S.N.N.N.N.S.S.N.B.B.B.g.A.N.N.N.N.M.N.N.n.M.M.M.M.M.M.l.z.z.c.z.k.k.c.k.c.k.",
"G J H H H h.H h.h.h.h.k.c.h.j.j.k.l.k.l.l.l.l.l.m.m.x.x.m.m.m.v.M.j.v.oX.X)..XS.j.j.h.h.K h.H h.H H A A Z Z Z Z C G C F F C F F B ",
"C C c F c F F F J A F H A H H h.H H k.h.k.k.k.k.k.l.l.l.m.l.j.m.s.OXY. . .k W .Xh.k.z.k.c.l.k.k.k.k.k.k.h.h.h.h.h.A h.A A A F J G ",
"A F H H H h.h.h.k.k.s.k.j.j.j.c.k.l.l.l.l.l.x.l.l.k.V.h.s.c.j.T.`.b u.r.i.u.q R.v.z.z.l.l.k.l.l.l.c.c.h.h.h.H A H H A F F C C c C ",
"A F A J F H H h.H H k.k.h.h.h.h.h.h.k.k.k.k.k.k.l.k.l.l.l.k.v.H n u.r.i.i.u.b h.l.j.l.l.l.l.k.k.s.h.s.h.h.h.h.h.h.k.k.h.h.h.H H H ",
"A F J h.H H H A Z C Z Z H h.j.l.l.M.m.M.b.b.v.b.b.M.M.M.n.N.n.T. .e.r.r.r.w 2XI.l.z.l.l.v.j.l.k.k.j.h.h.h.h.H h.h.h.H H A A H h.H ",
"H h.h.h.k.j.h.k.k.k.c.l.m.M.v.m.M.M.m.M.M.M.n.S.n.M.N.M.M.M.k.S.k e r.r.e.w L.L.m.m.m.v.v.l.l.l.l.l.l.l.j.z.k.A h.h.h.H h.A G J C ",
"G G H A A k.H k.k.k.l.l.l.l.x.l.v.l.l.m.v.l.k.k.k.V.l.v.m.j.m.F.T.n e.e.e n K.E.M.M.L.N.b.S.n.M.M.n.m.m.m.v.m.l.c.k.c.l.k.k.h.h.h.",
"h.k.k.k.k.k.l.k.c.c.k.c.l.x.x.x.m.x.b.x.x.b.n.S.n.n.A.b.g.~.U./.2.$ $ % $ . <.T.!.C.v.M.v.v.x.m.l.l.l.l.k.l.l.k.k.h.s.k.s.H h.H H ",
"c C B B B B C C C C C Z Z Z Z Z Z Z Z Z A A A Z A H C U.Y.( W I W =.1.1.q.=.k ! / N U.S S C C C C C B x B z x z b z h h a h a p p ",
"k.k.k.c.l.l.l.x.v.l.x.x.x.m.b.x.v.S.b.S.b.S.S.b.S.S.I.o.5 { qXcXCXsX&.Y -.cXCXsXq.Q 4 /.A.b.x.m.v.v.m.c.m.l.l.c.k.k.k.k.k.k.H H J ",
"x.m.L.x.S.x.N...| S.A.S.S.A.A.A.F.F.A.A.A.F.F.G.F.G.M Y wXAXdXqX` ; ` 0X/ ; ) sXLXJX9X< D ~.M.A.S.b.b.x.v.l.x.m.m.z.x.M.x.x.x.x.x.",
"h.h.h.h.H Z T.( 0.( I.A.l.M.m.b.m.m.b.b.b.b.S.V.I.( ! fXcX>X#.; 2 qXbXAXvXqX5 ; 0XJXZXhXP ( I.V.V.V.l.v.v.b.l.h.s.h.h.s.A A K Z Z ",
"h.h.h.h.k.V.(.#.fXpX$./.v.l.m.x.m.x.M.M.n.N.n.W.XX6 dXgX9.P ; { <XsXCXbXAXAX3.} + / sXJXdXP ..G.A.S.A.n.M.M.M.M.M.z.l.l.c.c.c.l.l.",
"A h.h.h.k.x.N $.iXKXvX;.+.v.v.b.m.M.n.n.M.M.g.oX3 >XsX-.: 6 wXfX: <.yX>XuX0XX iXqX; 5 iXAXwXU P.b.v.v.l.l.l.l.l.l.k.k.j.k.h.h.s.H ",
"h.h.h.k.S R.4.$.tXDXKXZX;.+.n.S.S.n.A.A.N.N.G.K 5 gX;.+ U pXZXwXX Y 7.] 3.[ X q.ZXyX: 2 wXAXY XXA.b.M.M.M.x.m.x.z.z.c.l.j.j.l.h.h.",
"k.c.l.l.l.K *.9.7XVXDXKXJX0.o.S.A.A.S.S.F.A.^.D [ } ; ,.sX[ wX4.  6 7._ 3.Q   { iX&.wX] ; 0X&.w.F.n.A.S.S.N.M.M.L.x.x.z.z.c.k.k.k.",
"c.c.c.c.x...) 5X4XMXGXDXKXJX3XL g.n.n.n.N.B.!.<.  3 0XCX9.X %.&.X Y 7.T 3.)   [ =.  3XZX0X4 ; } n.n.N.M.S.S.S.M.M.L.m.z.j.z.c.h.k.",
"G G J Z K <X;.5X4XnXGXDXFXKXLXq./.A.b.n.n.F.).6 / iXwX9X` X %.7.5 _ 7.P <.;., 2.&.X ] uXyXyXY < T.d.l.c.k.k.k.V.h.h.H Z Z C C C c ",
"p p u h 1./ 6X4X4X7XGXDXDXDXKXsX5XG x S S G 6 4.pX>X; *.:.5 >.<X7.1X>.3 =.6.2.8.2.U &.2.> q.fX} ) OXn.A.A.A.A.A.S.S.S.M.x.x.l.k.k.",
"Z H H l.<.3.4X6X1X7XDXGXDXGXGXcX9.W.G.W.^.o.+ ] <X:.3 :.6.;.;.' ` 6 1 o < 5 / _ &.<.6.4.5 ) 9X&.@ >XOXn.W.F.A.A.S.I.N.N.N.M.M.M.M.",
"l.v.z.l.7 dX7X4X,X4XMXDXSXDXGXNX9.F.W.G..X_ <.2 [ 2.` W 4 & # = = & = L.D $ & & o & 4 Y ) ;.&.; >X-.+.!.A.S.A.A.M.M.M.m.m.m.x.c.c.",
"l.l.l.c.;.tXnX1X4X6XBXFXmXMXSXMX3.v.C.C.( 9XqX6 @ : + o = * y e b k q [.^.w q n q * & . o : ; 3 wX2X] U.g.v.v.l.v.b.v.v.l.l.l.h.h.",
"h.h.l.m./.0.cX5X4X:XaXGXMXmXMXNX{ v.F.G.N :X>X/ @ ` < 8 v v a q w = b +X+Xl.f n l l q y $ 6 P E q.;.U x.B.v.v.v.j.s.A C B S Z k.k.",
"l.l.m.l.S.+.qXpX,X,X7XHXNXMXbX5.2 S.G.Q.( _ 9./ Y <X1 q r . . j !.].=X&X=XkX=XjXY.* P.~.c W W I 9./ ) !.G.F.A.A.N.F.I.A.A.A.A.S.z.",
"h.k.l.l.l.K.9.sX5X4X4XNXSXmXmXmXQ V.A.A./.P $.< W <X1 Q. X(   N xX;X*X&X&X&X*XlX .. b [.C.n *.2 <.6 q.!.B.N.N.N.N.N.N.S.N.N.M.x.l.",
"h.h.l.z.k.W.o.tXtX,X,XpXFXmXmXSX{ V.G.G. X..< < 1X*.* J.+XjX$ P.kX$X*X*X*X%X$XzXjXo Z {.Z.1 1XE @ ( I.B.M.b.v.b.M.v.l.l.c.l.l.l.l.",
"l.z.l.l.M.d.R.:XpX4X,X5XDXMXmXSX;.T.G.F.F. X<.5 <X*.* J.+X@XOXlX*X&X&X&X%X%X%X%X@X^.+X{.Z.g :.2.5 X.F.S.N.b.v.c.l.l.l.c.l.h.k.k.h.",
"c c c B c C H ( pXqX4X:XSXZXmXNX0.eXd.V.d.b.<.U <X%.= [.|.*XkX*X&X&X#X#X&X#X$X$XkXzX#XJ.Z.g &.7.5 L G.N.n.g.n.n.b.b.v.v.l.l.k.h.h.",
"z x x c B C d .X0.pX:X,XBXFXBXNX6XeXH s.s.s.6 _ <X&.0 [.|.%X$X%X%X$X[.J.[.[.#X*X%X&X-XJ.J.g =.>X! l W.M.U.!.n.l.m.b.v.v.m.v.v.z.m.",
"E.I.I.E.F.F.W.G.w.tX5X6X7XHXmXNX5XXX X^.^.~.7 :.6.-.- ~.#XzX*XzXkXlX@X[.^.@XlX*X*XkX$X{.^.g } %.3 3 3.<.<.<.D K.S C C c x x x c c ",
"l.l.z.m.m.M.M.b.oX-.aX:X6XDXmXNXtXw.G.G.G.!.@ =.<X>.1 a K Y.U.P.X.....7 k  . .D X.X.X.b j & < 6 #.tXvXsX>X$.^ | oXA.A.b.m.l.c.H H ",
"v.m.v.M.M.b.N.N.n.5X>X7X6XBXNXmXsX<.G.G.G.Q.q., %.0.4._.8.6.8.>X>X>Xq.! 5XdXuX0X8.` W ( 4 O _ qXgXuXXX1.w.9X[ ( [ X.n.M.A.S.A.A.N.",
"j.c.l.z.l.m.l.m.M.X.9.iX1XtXDXmXcX} A.A.G.G.OX<.; _ 6.>X>X0X0X0X9X>X<X~ uXcX0X0X>X<X9.[ 2 :.aXeX .0 v d d h l (.w.~ Y.v.k.s.s.k.h.",
"h.h.l.l.l.v.M.M.n.!.q.5X7X6XVXmXBX/ Q.W.G.Q.G. X8.+ T 6.2.7.2.2.7.7.>.) uX0X*.7.2.6.&.O { sX2Xk 0 9 f.p.t.S m p _.4.;.T.g.S.v.m.v.",
"v.m.M.M.b.M.M.A.S.A.P.>.3X5XBXNXBX/  XG.W.G.G.!.@.O X U <X7.7.7.5.6.2.] tX:X7.7.2.7.3 E uXeXN B 9 i f.p.p.p.m m p 1.[ +.S.j.V.l.k.",
"h.h.j.j.k.l.v.l.m.V.U.( 8X6XaXVXBX~ rXn.W.G.^.).P @ [ : ; &.<X3.2.5.2.&.0X6.2.3.>X_ ; 0XyX .i d 8 a m p.m p.p.S 9 j <.,.P.l.l.c.k.",
"j.c.z.v.m.m.b.b.n.A.g.!.;.6X7XMXZX[ rXB.G.G.S./ 3X` >X) ; + I *.9.6.2.;.>X3.6.3.W X _ yX(.0 r r w b p.p.a.t.t.m 9 v O./ h.M.k.k.k.",
"c.l.z.z.m.x.M.m.M.M.b.N.@.6X6XnXvXM +.N eX!.M 0XsX) cX0.I 5 + ; R -.6.9.0.3.#.,   + %.0X( q r 9 8 f f.d f m p.f f d X./ eXv.k.k.j.",
"h.j.j.j.l.l.v.v.v.v.I.!.eX5 ;.+.+.D.}. XL Y 3XAX9XU vXyX_ T T 3 O ; 5 ` E > X 2 , @ ] } y r r 8 8 u * l ..u S r c t.J ' q.M.v.l.l.",
"l.z.m.m.m.M.M.M.S.n.T.XX XD.D.H.|.H.a.r 7 wXfX>X7., sXyX2.*.W E T 3 ; + + 2 E T ; T q.W y r r 8 9 * 1 0XJXeXp a d p.F | 4.v.z.l.l.",
"l.l.l.l.v.v.M.b.M.n.Y.L H.J.J.a.f i s N iXaX0.,.6.I 4.cX7.<X:._ E E T P E T E T 2 ) gXk 9 r i 8 0 & 2XaXpXJXo.s p.c S | <.z v v v ",
"c c C C B C C C Z d oX+.V V * * . x.jX@.0.5.:.0.8.=.2 cX>X7.<X7.*.` E 2 P W _ :.3 ' yXk q r i 8 % 1 0XtX7XiXBX .S f.C | w.A.A.L.S.",
"H k.k.l.m.M.M.S.S.S.W.R..X2X).].% B oX..<.:X9.4.{ ` 2 4.yX:.6.7.<X7.&.P T :.6.6.2 ] yXj q r t = = < } *.1X>XyXrXi c J W 0XM.z.l.l.",
"l.l.v.l.v.v.b.m.n.M.M.C.B.(.kX$XS . . U ;.^ U R ] D ).-.>X>X2.4.7.7.7.T ] <X7.7.3 ) yXk q r 9 8 $ & } &.#.` Y k y v j , (.k.h.k.s.",
"V.c.l.l.l.m.l.l.l.l.l.c.N.rXOX*XV.8 * - ' 4.q.x.T.Q.W.X.2 7.7.6.6.7.4.` #.6.7.<XU I yXO.q r 9 8 % $ & 4 < & = y i i ../ S l.h.k.k.",
"H s.k.k.s.s.l.x.x.x.N.M.N.U.+.'.u 8 s k P.I.U.E.B.v.E.<./ I 5 Q #.=.:.{ &.2.&.=.5 > 0X2Xu r 9 0 % % $ $ $ $ y r t N | 4.U.l.l.k.k.",
"k.k.c.c.l.k.l.l.b.S.N.M.M.g.!.N # ( N .X!.g.n.F.F.W.K.{ qX/ ) I 2 2 > , 2 ; 2 2 > > :.gX .0 8 9 = $ = $ $ 8 t r * +.$.D j.h.h.s.H ",
"V.k.k.V.l.k.H k.b.m.M.b.N.M.A.J X.OX~.F.A.F.F.G.F.E./ wX>XI 6.6.3.&.#.T ` #.%.=.4.2 E yX2Xg 0 i = $ % % 8 8 i 0 X.@.( U.k.l.l.c.c.",
"k.c.c.l.v.b.x.x.x.m.m.b.v.l.l.b.b.d.l.m.n.n.M.b.M.A.@.) >XqX>X5.2.2.6.T %.8.3.<.6.-.> 5.gX8.* q t 8 8 9 9 0 y | _.[ Y.s.H Z A G C ",
"H H H A H A H k.k.k.l.l.l.v.M.b.n.N.A.N.M.N.A.N.N.C.W.X.] I <.2XwXqX>X<X>X2X0XtX>X{ O ; 8.yX_.l y t 9 t 8 1 1.3X6 =.C h v v v h h ",
"k.k.k.c.l.l.m.l.z.l.z.l.l.v.l.l.l.m.b.b.M.M.M.L.N.M.b.g._.! 2 , , 5 &.:.4.%.) ; 2 Y Y : , ;.yXyXo.( ( ' _.wX8.k _.N.c.M.l.l.z.c.l.",
"k.k.H Z S Z Z A h.l.z.c.l.c.k.l.k.k.l.v.b.N.N.F.F.E.W.F.@X/ $.7./ $.eX.X.XrX`.3 <.7.1 AXgX6 ) &._ uXpXtX7.#.6 T.N.j.h.h.h.h.h.H J ",
"V G J k.k.c.c.l.l.M.N.N.N.I.F.F.F.E.F.E.F.C.A.N.N.n.B.T...+ I / 3 +.G.B.C.B.B.Y W W O 2.hXT. .{ P E ) &.} D U.d.c.c.k.H H H H H k.",
"x.x.x.K.M.M.M.M.M.l.l.m.l.l.m.m.v.m.m.M.M.N.C.L.N.N.W.(.3 / 4 @ 3 c.C.F.L.N.E.8.X 2 W 3 W P.S.U.X.K.K K.'.N.c.K.K.x.x.c.l.l.k.h.H ",
"c.c.c.h.h.h.h.h.k.l.l.l.l.v.m.M.m.m.M.m.m.m.B.m.b.n.U.[ Y ' _ R 1.!.v.M.b.b.b.c.Y ` ] ' R D v.V.m.b.m.k.Z H H H H H H A h.H k.k.H ",
"F H F F h.h.h.h.H k.h.k.k.k.k.k.j.j.l.z.l.l.j.j.l.k.x.1.` #.k O.!.d.m.v.l.v.M.M.U.( ` &.{ K l.h.s.H H H H k.H h.h.h.k.h.s.k.H k.H ",
"F F A A F H H F H H h.A A h.s.h.h.h.j.j.z.z.z.v.v.v.l.N.oXOXW.l.s.b.b.M.M.M.M.m.b.n.OX.X!.v.m.m.x.m.l.x.x.x.z.z.c.c.k.k.H H G C G ",
"A A A H H H h.h.h.h.h.k.j.k.k.j.z.l.k.z.z.l.l.z.z.z.z.l.s.s.d.l.k.l.j.j.k.j.j.j.k.h.s.f.A k.h.j.k.k.s.k.k.k.h.h.A H H A H H G H G ",
"c c F C F Z A h.h.h.j.l.l.l.l.v.z.m.m.z.m.m.m.M.M.M.M.m.M.M.M.M.b.b.b.b.b.b.m.m.m.v.m.x.m.m.l.m.m.l.m.l.l.l.k.c.l.k.h.k.k.H K H H ",
"J h.H A h.H h.A h.h.h.h.h.h.h.l.j.k.l.z.m.m.m.M.m.m.m.M.M.M.M.M.M.M.M.M.M.M.m.M.b.b.m.m.x.x.x.l.c.l.l.k.l.l.h.h.h.H Z H H G G H G ",
"F C F C A F J F F H J A H Z H A H h.h.h.j.k.k.k.k.k.c.j.l.j.j.j.d.d.h.h.k.j.j.j.k.j.h.s.k.s.H k.H s.H H G h.H J C C C G Z F C Z H ",
"c F G F J F h.h.h.k.k.c.c.c.l.c.z.l.l.k.k.k.k.k.j.l.j.c.h.l.l.j.k.h.l.k.j.h.j.j.h.k.k.k.k.k.s.k.k.k.s.k.h.h.h.h.h.k.K H G G G V j ",
"g u u u u p p h u h h h h h z v z z z x x B c B B S C C C C C C C Z G A G G C C A F G C C C C c B c x x z z z h j h p p p u u u y "
};
