/* XPM */
static char *_8093bf067fd458ab5b3c2bdfea40121LYwFP1gGJCbkEIpy[] = {
/* columns rows colors chars-per-pixel */
"65 65 241 2 ",
"   c #121415",
".  c #1D1A13",
"X  c #1A1817",
"o  c #0E1111",
"O  c #231915",
"+  c #3F1A09",
"@  c #1D211B",
"#  c #23221C",
"$  c #3B281F",
"%  c #39261E",
"&  c #1D1D20",
"*  c #1E2629",
"=  c #20272C",
"-  c #2A2E2F",
";  c #282825",
":  c #332D26",
">  c #373228",
",  c #272F33",
"<  c #292E31",
"1  c #2C3234",
"2  c #283A3A",
"3  c #303431",
"4  c #681B00",
"5  c #4B2B1D",
"6  c #522E1D",
"7  c #55311E",
"8  c #59321E",
"9  c #6C2603",
"0  c #752A06",
"q  c #7C320C",
"w  c #713009",
"e  c #7B3614",
"r  c #6D3119",
"t  c #482C21",
"y  c #4C392A",
"u  c #5C3421",
"i  c #583929",
"p  c #643A25",
"a  c #6A3D26",
"s  c #6D3F29",
"d  c #623724",
"f  c #753F24",
"g  c #2A433D",
"h  c #594337",
"j  c #564434",
"k  c #6D412B",
"l  c #66412D",
"z  c #74442C",
"x  c #7A462C",
"c  c #7B4A2E",
"v  c #774426",
"b  c #674835",
"n  c #754630",
"m  c #754932",
"M  c #7D4B32",
"N  c #794730",
"B  c #78553B",
"V  c #6C573F",
"C  c #333C41",
"Z  c #344F51",
"A  c #387274",
"S  c #52564F",
"D  c #6B584B",
"F  c #656256",
"G  c #736F58",
"H  c #4A5E63",
"J  c #496266",
"K  c #48676A",
"L  c #447678",
"P  c #5A746F",
"I  c #797B69",
"U  c #6A726B",
"Y  c #5E6457",
"T  c #85330D",
"R  c #89340E",
"E  c #8C3C15",
"W  c #8C3D1A",
"Q  c #853612",
"!  c #913E15",
"~  c #923E1D",
"^  c #812E0E",
"/  c #8C431E",
"(  c #95431B",
")  c #9B451B",
"_  c #994419",
"`  c #A54A1D",
"'  c #AA4B1D",
"]  c #A2461B",
"[  c #AC511D",
"{  c #834B2E",
"}  c #8D4929",
"|  c #944522",
" . c #954B2B",
".. c #9B4D2B",
"X. c #994923",
"o. c #824E32",
"O. c #884F34",
"+. c #855134",
"@. c #8B5335",
"#. c #845439",
"$. c #8D5639",
"%. c #8D593B",
"&. c #8D5937",
"*. c #915636",
"=. c #935937",
"-. c #9B5936",
";. c #915739",
":. c #945A3A",
">. c #9A5D3A",
",. c #995633",
"<. c #9A562D",
"1. c #A54F2B",
"2. c #A44A21",
"3. c #AE5424",
"4. c #A5502B",
"5. c #AB542B",
"6. c #B25525",
"7. c #BC5B2B",
"8. c #B45729",
"9. c #A85A39",
"0. c #B75E3B",
"q. c #9B613D",
"w. c #96613C",
"e. c #A3623C",
"r. c #A7653A",
"t. c #BA633C",
"y. c #B7633B",
"u. c #B8723F",
"i. c #C45D2B",
"p. c #CB642E",
"a. c #CB6532",
"s. c #CA673B",
"d. c #C5643A",
"f. c #D66E3B",
"g. c #DA6E3A",
"h. c #D46A34",
"j. c #DC723B",
"k. c #D7713A",
"l. c #E5763C",
"z. c #F2753A",
"x. c #855D47",
"c. c #945E44",
"v. c #B65F42",
"b. c #8C664B",
"n. c #9C6341",
"m. c #956848",
"M. c #966B55",
"N. c #8C7456",
"B. c #A46541",
"V. c #A96945",
"C. c #B96843",
"Z. c #B27251",
"A. c #847C6E",
"S. c #B87C67",
"D. c #AD7D6A",
"F. c #C66642",
"G. c #C97449",
"H. c #D4754A",
"J. c #DB794C",
"K. c #D87547",
"L. c #C97956",
"P. c #D87C54",
"I. c #D16F44",
"U. c #E37A4C",
"Y. c #E97D4E",
"T. c #E47744",
"R. c #FC7F42",
"E. c #F27E41",
"W. c #E67C51",
"Q. c #718578",
"!. c #5E8071",
"~. c #FC803F",
"^. c #B2845E",
"/. c #838373",
"(. c #B68672",
"). c #CA8957",
"_. c #D28E5C",
"`. c #DB8757",
"'. c #D9925B",
"]. c #CD8E58",
"[. c #FD8343",
"{. c #F3834C",
"}. c #FB854A",
"|. c #FC894A",
" X c #E5945A",
".X c #F58C51",
"XX c #FBAE65",
"oX c #FCAE69",
"OX c #F3A762",
"+X c #FCB46B",
"@X c #F6B76C",
"#X c #FFA059",
"$X c #3A7F80",
"%X c #4C7C82",
"&X c #777D82",
"*X c #3D8B8D",
"=X c #3C9595",
"-X c #499A98",
";X c #558D8E",
":X c #66868B",
">X c #6A8C96",
",X c #738B97",
"<X c #6A949A",
"1X c #71929C",
"2X c #739C96",
"3X c #748F8B",
"4X c #52A29A",
"5X c #6C9DA4",
"6X c #6A9BA5",
"7X c #7395A2",
"8X c #7399A4",
"9X c #4AB9BA",
"0X c #58B6B6",
"qX c #55AEAB",
"wX c #6CA3AB",
"eX c #69A6A9",
"rX c #6AADB7",
"tX c #65B5BA",
"yX c #6EAEAE",
"uX c #71A09E",
"iX c #4EC1BD",
"pX c #48BFC1",
"aX c #59BEC4",
"sX c #67BBC2",
"dX c #47C4C5",
"fX c #55C3C4",
"gX c #58C7CA",
"hX c #59CDD2",
"jX c #46D5D8",
"kX c #58D6D7",
"lX c #44CFD0",
"zX c #62C4C8",
"xX c #62CCD3",
"cX c #61D2D8",
"vX c #58DDE4",
"bX c #57E3E8",
"nX c #48E5E5",
"mX c #60D7E5",
"MX c #3DD9D8",
"NX c #808C81",
"BX c #9C9887",
/* pixels */
"@.@.@.@.+.+.+.+.o.o.M M M M M M c c c M c c M M #.#.x x D Z g g 2 g # e E / q R e M c c x x x x n x z z z z z z z z z k k k k k k ",
"n m N N M M o.o.o.o.+.@.@.@.@.@.*.@.:.:.:.:.:.=.-.b.P K -XhXfXgXhXqXB g. X).) K.9.*.n.:.>.>.>.:.:.:.:.:.:.:.$.$.$.$.#.#.@.+.+.+.o.",
"N m N M M o.o.o.o.O.O.+.+.+.@.@.@.@.@.@.&.@.*.x.P -XfXdXhXhXrX5X:X%.l.#XOXC.) {.1.Q :.o.o.o.o.M M M M M c c x x x x x x x x z z n ",
"z z z z z x x x x c c c c M M M M M M +.o.x.P $XjXhX7X8X1XhXhXU $.l.|.@X.X0._ }.1.` t.+.$.$.&.@.@.@.+.O.o.o.o.o.o.M M M c N N N m ",
"N N M M M o.o.o.o.o.o.o.o.@.@.@.@.@.%.} U *X9XgXhXfX<X8X:XA A i i.|. X).U.y.( }.4.` K. .o.*.$.@.@.$.#.+.o.o.M M M N c x x z z z z ",
"N N N N N M M o.o.o.o.o.o.o.o.o.o.+.{ S MXbX5X<X<XxX0XH Z X   + i.|.@X/ f.t.( }.4.` J.| S D o.&.o.o.M c o.o.o.o.+.+.+.O.o.o.M M M ",
"x c N M M M M x x z x x M o.@.@.$.,.Y 9XsXgX6X7X1XZ Z   X 1 > | l.|.@X| f.d.( }.4.' J.| F -XS O.+.o.o.o.o.o.o.o.M M M M M N M M M ",
"M o.o.+.+.O.o.+.+.+.+.&.&.:.*.:.-.F fXyX,XtXhXA , X X 1 1 , t i.|.[.@X| k.s._ }.4.` J.( 4 :XpXD *.@.:.$.@.@.+.M o.o.o.o.M N m n z ",
"N N M M M o.o.o.+.@.@.&.&.&.$.*.U fXwX>X5X<XZ * ; 1 1 < < < t i.|.oX).E k.s._ }.1.` Y.X.w U tX9Xm -.:.:.;.*.@.@.&.&.@.@.+.+.o.o.M ",
"o.o.O.+.+.+.@.@.@.@.@.&.&.$.@.b.L nXaX5X<XZ ; - 1 < < < , t | E.[.@XL.R k.s.) {...` Y.] 3.-.0XjX3 >.&.&.@.@.@.+.+.o.o.o.o.o.M M M ",
"s k k k z k z z z z x x x m x P 9XeXfXzXZ & < < < < < < , 5 6.|.[.@X).E k.s.) {. .` Y.2.a.3.:XsXqXi x s s a a p p p d u u u 8 7 6 ",
"+.+.+.+.&.&.&.&.&.&.%.%.%.:.x.A aX1XwXK X - < < < < < < , 5 3.|.[.@X).E j.s.) {. .` Y.] p.4.P rXdXS -.$.@.$.&.@.+.+.+.+.o.o.M M N ",
"$.%.:.:.:.:.:.:.q.q.q.q.q.-.G pX5X>X<XC & 1 < < < < < < - 8 7.[.|.@XL.E j.s.) {...` Y.2.p.8.U ,XrX4X{ :.@.@.@.*.*.:.:.:.$.$.$.$.%.",
"o.o.o.+.o.M @.&.@.@.@.@.*.#.L gXtXrXH o 1 < < < < < < , : 3.[.[.XX_.d.! k.d._ }.1.` Y.2.p.H.e <XxX9XD *.@.@.@.o.o.o.o.o.M M M M N ",
"o.o.o.o.o.&.@.+.@.@.&.@.O.F lXrXvXfXC X 1 < < < < < - , $ 3.[.R.oX_.d.! f.y.( }.4.` Y.X.a.K.0 kXkXzX-X#.>.:.:.:.:.:.@.@.&.&.$.+.+.",
"c M o.o.o.+.@.@.@.@.@.$.*.S lX6X7XK   1 < < < < < < - , $ 3.[.[.oX_.F.! f.y.( }.1.` Y.X.p.U.T S >XsX=XB *.&.@.@.@.@.+.+.o.o.o.o.M ",
"o.o.o.o.o.+.o.+.@.@.:.:.=.S lX6X8XK o 1 - < < < < < - , $ 3.[.[.oX_.C.! k.y._ {...` Y.X.p.U.T X :XsX=XB >.:.;.$.$.@.&.&.@.@.+.+.o.",
"+.&.@.@.@.@.@.@.*.*.:.=.b.;X0X8X%X2 * 1 < < < < < < - , $ 6.[.a.r.<.W Q g.y.( {...' U.) p.K.q . :XwX0XI >.:.:.:.c.%.$.$.&.@.+.+.+.",
"+.$.$.%.+.@.@.@.@.$.$.=.i 0XkXcX*X  < < < < < < < < - , $ 6.g.8.7.i.7.T ) / _ {. .' H.( p.K.q O fXhXbX;XM n.:.:.:.:.:.$.@.@.@.+.+.",
"m m M M M M o.O.O.O.@.*.l qXzXzX%X  < < < < < < < < - , $ 6.7.7.{.K.K.s.a.7.q ( w 8.P.| p.H.q . 0XsXkX!.s &.+.+.o.o.M c x x x z k ",
"6 6 7 7 8 u u u 8 d d d t 4XeX1XH   < < < < < < < < - , $ 6.i.7.K.B.(.L.K.H.s.h.[ q ( q a.G.q . :X,XrXQ.+.n.q.q.w.w.>.:.%.%.&.&.+.",
"c M +.+.&.%.%.:.>.>.q.q.B qXeX7XJ   < < < < < < < < - , $ 6.E.8.^ q V.C.Z.BXL.H.H.g.g.] T E 0 O >X,XtXQ.@.e.q.q.>.q.>.>.:.:.:.:.;.",
"@.@.$.;.:.:.>.>.>.>.>.e.B 0XtXrXL   < < < < < < < < - , $ 3.[.[.5.q q q E B.9.Z.(.I.L.H.k.f._ u eXeXzXI @.q.>.>.-.:.:.:.;.$.$.@.&.",
"@.@.@.@.@.@.$.%.*.*.*.:.b iXvXvX*X  < < < < < < < < - , $ 6.[.[.OX).~ q Q q 0 Q 9.4.D.S.G.S.J.v gXkXkXN.} *.*.*.*.*.*.@.@.&.&.o.o.",
"o.+.@.@.@.@.@.:.:.:.:.-.b 0XeX8XK   < < < < < < < < - , $ 6.[.[.XX_.d.( a.( q E 0 9 } 9.9.D.L.e >X7XeXb.O.=.*.*.@.{ x z s z c +.+.",
"@.@.@.;.:.=.:.:.:.>.>.>.b 0XeX8XJ   < < < < < < < < - , $ 3.[.[.XX'.t.E g.0.) g.e T T 0 0  .9.d :X<X2Xm.-.e.q.q.q.q.n.q.q.q.n.:.$.",
"+.+.@.@.@.@.@.@.*.*.:.>.h 9X6X7XH   < < < < < < < < - , $ 3.[.[.oX X0.E f.t.) {. .3.t.q ! T 9 O :X,X2Xm.-.>.>.>.>.>.>.>.:.:.:.$.@.",
"o.+.@.@.@.@.@.*.:.:.:.>.j dXkXvX*X  < < < < < < < < - , $ 3.[.[.oX Xd.E f.t._ {. .' J.| h.t.0 # fXhXkXN.,.:.*.:.:.:.@.@.@.@.@.@.@.",
"@.@.@.$.;.;.*.*.:.:.>.9.y dXhXcX;X  < < < < < < < < - , $ 3.[.[.XX'.#.e k.t.( }...' J.| p.J.T . 0XxXyXm.-.=.*.@.@.@.@.@.@.@.+.+.o.",
"s s s k z z z z z z z x > iX5X1XH   < < < < < < < < - , $ 3.[.[.oXN.U V I.t.( |.1.` J.| p.H.T . :X1XA.e.>.>.-.=.=.:.*.@.@.@.+.o.o.",
"p a a k k z z z z x z x > iXeX8XJ   < < < < < < < < - , $ 3.[.[.oXG 3XF G.0.( }.1.' J.| p.J.T . :X5XI *.*.*.*.*.*.*.*.*.*.;.*.$.$.",
"q.n.B.B.B.B.B.B.r.V.V.C.j iXyXwXK   < < < < < < < < - , $ 3.[.z.XXG &XD G.0._ }.1.' J.| p.U.R . <XwXI c M M c c x x z s a a a a a ",
"@.@.@.:.;.:.:.:.>.>.>.e.y dXkXmX*X  < < < < < < < < - , $ 3.[.[.oX^.S v k.d._ }.4.` W.X.p.U.T @ fXvXNXC.V.V.V.r.e.q.q.:.&.@.+.+.M ",
"@.*.*.:.:.:.:.>.>.>.>.e.y dXtXrXL   < < < < < < < < - , $ 3.[.~.oX_.h e l.F.) }.4.` Y.2.p.U.T . 6XrX/.e.9.>.>.-.>.>.>.q.q.q.n.n.>.",
"@.@.@.@.@.$.$.@.*.*.*.-.> dX5X7XJ   < < < < < < < < - , $ 3.[.[.oX'.h e j.s.) {...` Y.2.p.T.R . :X7XI *.*.@.*.*.*.@.@.@.@.o.{ o.o.",
"o.+.@.@.@.*.:.:.>.>.>.e.> dX<X1XH   < < < < < < < < - , $ 3.[.[.oX Xh e j.s._ {. .' Y.X.a.H.^ . :X<X/.B.e.e.q.>.>.>.>.>.:.:.*.*.$.",
"@.@.;.:.:.:.-.>.>.>.>.e.> dXgXzX%X  < < < < < < < < - , $ 3.[.[.oX'.h e j.s._ {...' J.| p.K.T X 0XgX2Xq.>.>.-.=.*.;.@.@.@.@.@.@.+.",
"o.+.+.@.@.@.&.@.@.*.*.-.> lXvXvX*X  < < < < < < < < - , $ 3.[.~.oX_.h q l.s.( }.4.' J.| p.U.R @ gXbX3X,.:.:.=.=.:.:.*.$.$.$.&.@.+.",
"@.@.@.*.*.*.=.=.:.>.>.e.> dXeX8XK   < < < < < < < < - , $ 3.[.~.oXD.F b K.s.( }.1.' J.| p.U.R . >X5X/.e.>.>.>.>.>.>.:.:.:.@.@.@.+.",
"@.@.$.$.%.:.:.*.:.>.>.e.: dXeX5XJ   < < < < < < < < - , $ 3.[.R.oXG 3XF G.d._ |.1.` U.X.p.U.R . ;X6XA.*.*.*.*.*.@.@.@.@.@.@.@.+.o.",
"o.+.@.@.@.@.@.*.*.*.*.-.- dX6X7XJ   < < < < < < < < - , $ 3.[.R.oXG 3XF G.t.( }.1.] Y.2.a.U.Q O :X1XA.q.q.q.>.>.>.:.:.:.:.$.$.@.@.",
"&.$.$.;.:.:.:.>.>.>.>.e.: dXkXvX*X  < < < < < < < < - , $ 3.[.[.oX^.F z I.t.( {...` Y.X.a.K.T @ gXvXyXV.9.q.>.>.>.:.:.;.;.$.@.@.@.",
"@.@.@.@.*.*.*.=.=.:.:.9.: dXtXsXL   < < < < < < < < - , $ 3.[.R.oX_.9.E g.t.) {. .' J.( a.H.q X eXtX;Xm k k k s s a a a a p p p p ",
"s k z z z z z z z z x x ; dX5X1XH   < < < < < < < < - , $ 3.[.R.oX_.F.( j.d.) {. .' J.| a.I.w O :X1XQ.w.>.w.w.q.q.q.q.q.q.q.q.q.w.",
"{ +.+.&.%.:.:.:.q.q.q.B.: dXwX7XJ   < < < < < < < < - , $ 3.[.[.oX'.F.E j.s._ {...' H.W 7.8.T r Q.<X3Xn.>.>.>.>.:.:.:.:.:.:.$.@.&.",
"@.@.@.@.@.*.*.=.:.:.:.9.: dXtXrXL   < < < < < < < < - , $ 3.[.[.oX Xt.E j.s.] {.| _ 7.! ) d.T.E z eX2Xw.-.:.*.*.@.@.@.O.o.o.o.o.o.",
"@.@.@.@.@.$.@.@.@.@.@.,.: dXbXbX=X  < < < < < < < < - , $ 3.[.[.oX Xv.W g.9.! a.! E a.T.j.L.L.5.v kXyX:.*.@.&.*.@.@.@.@.@.+.o.o.+.",
"o.o.o.o.{ o.@.$.$.:.:.>.: dXeXwXK   < < < < < < < < - , $ 3.[.[.+X X4.Q 8.2.( 3.l.T.L.Z.G.(.V.4.V <X3Xq.-.:.:.:.:.:.;.$.$.@.&.@.@.",
"o.+.@.&.@.@.@.@.*.:.:.>.: pXeX8XJ   < < < < < < < < - , $ 6.[.g.u.e.2.` 6.K.T.P.S.C.(.M...4.q 6 >X7X3Xm.*.$.@.@.@.+.o.o.o.o.o.M M ",
"+.+.@.@.@.+.M +.:.:.:.>.: pX6X,XH   < < < < < < < < - , $ 6.l.3.] ' g.Y.`.(.Z.S.D.) ..Q 4 4 0 O :X,X3X%.@.@.*.*.;.*.@.@.@.@.@.$.#.",
"+.+.@.@.@.:.:.:.%.:.;.=.: lXkXvX*X  < < < < < < < < - , $ 6.7.7.{.K.(.Z.Z.D. .( Q 9 9 0 3.5.q # fXkXzXm.-.:.:.$.@.+.+.o.M M N x z ",
"M M M M M c M o.o.@.+.*.: dXhXxX;XX < < < < < < < < - , $ 6.7.7.K.V.S...( W 9 9 9 _ 5.Q h.W.R # 0XzXfXV a s a a a p p p d d d u u ",
"o.+.@.@.@.@.$.@.@.@.@.*.: 9X5X7XJ   < < < < < < < < - , $ 6.l.8.W W E 0 0 9 E f.( 2.Y.X.p.T.R . :X<X2Xb.*.:.:.:.:.:.%.%.$.$.&.@.+.",
"O.o.M x x x x c o.@.@.:.- dXwX8XK   1 < < < < < < 1 1 1 $ 3.[.l.( 0 0 q 7.1._ |.5.` Y.X.a.K.R O >X7XuXb.*.*.*.@.@.@.+.o.{ o.M M N ",
"l m m +.+.#.&.@.@.:.:.>.j 9X4X>XZ o = = = = = = = = = = % 6.[.[. XG.5.E l.F._ }.1.` Y.) p.H.^ X ;X>X<Xb.@.+.$.#.$.#.#.o.M M M M o.",
"%.%.%.:.:.:.:.:.:.$.@.@.x.G D D b i b h h b b h b b h j i 5.[.R.+X XF.E k.s.) {...2.Y.X.p.I.{ i D D D %.;.%.%.%.%.%.%.$.@.+.+.o.M ",
"#.#.+.o.o.o.o.+.+.@.@.@.@.*.;.*.*.:.:.:.:.:.:.:.-.>.>.>.M.t.~.[.oX_.d.! j.s.) {. .' J.X.7.r.&.*.@.@.o.o.o.M M M M M M M o.o.o.o.M ",
"N N M M M o.o.o.o.o.o.o.+.+.&.@.&.@.$.@.@.@.@.@.@.@.@.@.M.C.~.[.XX_.d.W j.s.) {. .' I.*.@.:.@.+.+.+.+.o.M M +.o.+.o.o.o.o.o.+.+.M ",
"x x c c N M M M M M M c M o.o.o.o.o.+.@.@.@.@.*.*.*.:.@.M.C.[.[.XX_.d.W g.d._ {...( -.@.*.@.*.:.:.;.%.%.$.%.%.%.&.&.+.o.o.N n x z ",
"N N N N M M o.o.o.o.O.+.+.+.@.@.@.@.@.@.@.@.@.@.@.@.@.@.M.C.[.[.oX_.t.! g.t.) l. .{ $.@.+.+.o.o.+.O.o.o.o.o.o.M M M N M N N N N N ",
"z z z x x x N o.o.o.@.@.&.@.@.$.@.$.$.;.;.;.:.:.:.:.:.*.M.C.[.[.oX_.0.E f.C.( y.%.:.*.@.*.@.$.$.@.@.@.&.@.@.@.@.+.+.+.+.o.o.+.M M ",
"M M M M M M o.o.o.o.o.o.o.+.+.@.@.@.$.$.;.;.;.:.:.:.:.*.M.C.[.[.+X_.0.E h.C.c.:.:.:.:.:.:.:.%.$.@.@.&.&.@.@.+.O.o.M c N N N m m n ",
"z z z x x n n x x N N N M M M M o.o.o.+.o.+.+.+.+.+.@.{ M.C.R.R.XX_.v./ e.c.o.@.@.o.o.O.+.o.o.o.o.o.o.M M M N N x x x n x x x x N ",
"z z n N N M M o.O.+.#.#.#.$.$.$.$.$.$.@.+.+.+.+.@.@.@.O.b.y.[.[.+X_.} $.#.+.+.+.o.+.+.+.o.o.o.o.o.o.o.o.o.o.o.o.+.+.M M N m z k p ",
"t 6 6 6 7 7 7 7 u u u 8 l b l k k k k k k k s z z z z z n c.X.X.<.@.N N m N N x N N x z x z z k k k a a p p d u u u 7 7 7 6 6 6 5 "
};
