/* XPM */
static char *eee19ee30493483cc11b7eb91a8013f3j194z6mKuttJPrSP[] = {
/* columns rows colors chars-per-pixel */
"65 63 161 2 ",
"   c #060000",
".  c #070000",
"X  c #080000",
"o  c #090100",
"O  c #0A0200",
"+  c #0B0300",
"@  c #0C0401",
"#  c #0D0502",
"$  c #0E0603",
"%  c #0F0704",
"&  c #100805",
"*  c #110906",
"=  c #120A07",
"-  c #130B08",
";  c #140C09",
":  c #150D0A",
">  c #160E0B",
",  c #170F0C",
"<  c #18100D",
"1  c #19110E",
"2  c #1A120F",
"3  c #1B1310",
"4  c #1C1411",
"5  c #1D1512",
"6  c #1E1613",
"7  c #1F1714",
"8  c #201815",
"9  c #211916",
"0  c #221A17",
"q  c #231B18",
"w  c #241C19",
"e  c #251D1A",
"r  c #261E1B",
"t  c #271F1C",
"y  c #28201D",
"u  c #29211E",
"i  c #2A221F",
"p  c #2B2320",
"a  c #2C2421",
"s  c #2D2522",
"d  c #2E2623",
"f  c #2F2724",
"g  c #302825",
"h  c #312926",
"j  c #322A27",
"k  c #332B28",
"l  c #342C29",
"z  c #352D2A",
"x  c #362E2B",
"c  c #372F2C",
"v  c #38302D",
"b  c #39312E",
"n  c #3A322F",
"m  c #3B3330",
"M  c #3C3431",
"N  c #3D3532",
"B  c #3E3633",
"V  c #3F3734",
"C  c #403835",
"Z  c #413936",
"A  c #423A37",
"S  c #433B38",
"D  c #443C39",
"F  c #453D3A",
"G  c #463E3B",
"H  c #473F3C",
"J  c #48403D",
"K  c #49413E",
"L  c #4A423F",
"P  c #4B4340",
"I  c #4C4441",
"U  c #4D4542",
"Y  c #4E4643",
"T  c #4F4744",
"R  c #504845",
"E  c #514946",
"W  c #524A47",
"Q  c #534B48",
"!  c #544C49",
"~  c #554D4A",
"^  c #564E4B",
"/  c #574F4C",
"(  c #58504D",
")  c #59514E",
"_  c #5A524F",
"`  c #5B5350",
"'  c #5C5451",
"]  c #5D5552",
"[  c #5E5653",
"{  c #5F5754",
"}  c #605855",
"|  c #615956",
" . c #625A57",
".. c #635B58",
"X. c #645C59",
"o. c #655D5A",
"O. c #665E5B",
"+. c #675F5C",
"@. c #68605D",
"#. c #69615E",
"$. c #6A625F",
"%. c #6B6360",
"&. c #6C6461",
"*. c #6D6562",
"=. c #6E6663",
"-. c #6F6764",
";. c #706865",
":. c #716966",
">. c #726A67",
",. c #736B68",
"<. c #746C69",
"1. c #756D6A",
"2. c #766E6B",
"3. c #776F6C",
"4. c #78706D",
"5. c #79716E",
"6. c #7A726F",
"7. c #7B7370",
"8. c #7C7471",
"9. c #7D7572",
"0. c #7E7673",
"q. c #7F7774",
"w. c #807875",
"e. c #817976",
"r. c #827A77",
"t. c #837B78",
"y. c #847C79",
"u. c #857D7A",
"i. c #867E7B",
"p. c #877F7C",
"a. c #88807D",
"s. c #89817E",
"d. c #8A827F",
"f. c #8B8380",
"g. c #8C8481",
"h. c #8D8582",
"j. c #8E8683",
"k. c #8F8784",
"l. c #908885",
"z. c #918986",
"x. c #928A87",
"c. c #938B88",
"v. c #948C89",
"b. c #958D8A",
"n. c #968E8B",
"m. c #978F8C",
"M. c #98908D",
"N. c #99918E",
"B. c #9A928F",
"V. c #9B9390",
"C. c #9C9491",
"Z. c #9E9693",
"A. c #9F9794",
"S. c #A19996",
"D. c #A29A97",
"F. c #A39B98",
"G. c #A49C99",
"H. c #A59D9A",
"J. c #AEA6A3",
"K. c #B9B1AE",
"L. c #BCB4B1",
/* pixels */
"D y.w.y.z.t.d.d.w.q.w.t.w.c.8.e D y.w.4.8.j.y.d.y.t.y.d.y.d.y.4.v k.y.y.y.f.d.w.d.j.k.y.y.8.z.w.i <.M.w.d.d.w.<.t.4.7.:.,.#.4.y.z ",
"m <.#...%.] } ] ] ( ] } { *.#.i J p.7.X.( { { %.{ ] } } ] X.*.#.i %.( ( ( ] } } ] } ..` ] ^ } I 2 R :.] #.X.:.4.<.*.:.#.*...:.8.c ",
"i ] ^ I ^ R ^ R / Q Q / I ^ ( h f } / Q ^ ] R R ^ ^ ( / R ^ ] ` 2 R I ^ ( ^ Q ^ ^ ^ ( ^ ( I ^ N - c R I ( I T ( Q I ^ T ^ J ^ ( h ",
"i ] } ^ ` ] ..] X...} } ^ ( ^ h N ] T R ^ } ( ( ] ` { ] ( ( ( T : J ^ { X.{ ] ( } ] } ] } ^ ` S 2 z R ( *.} { { { ( } ( { Q ` ] s ",
"i / X.` ( ^ ( ^ ^ ] ( / ^ ( P 2 q I ^ } ` ( ^ ] ] / ( ( / ( ^ D : J ] / ` ] } ] ( ^ ^ Q ( I ^ N : k R R ( ^ ( ^ ] / ] ^ ] Q ( ( s ",
"e J ] ] ( ( ` ] ` ..] ` { } I 4 4 v N / ( ] ] } +.] ( ( ( ` ^ H 3 D } ( } } X.] +.} } } +.] X.R 2 C *.X.} / } ] Q T ^ R ` Q / Q i ",
"e z J I T ^ ^ { ` ] R R Q R D e R C 4 i h C J T T J J J D J D z 4 h I D I J J C k f h z v s v t   7 H H J S I S Q R ( ^ } ( ( R 4 ",
"& & 2 4 4 4 4 e 9 4 $ & & $ $   e 3   & % & $ % O $ 2 7 4 9 4 & 4 - 4 O & O O O & $ : , 4 & 3 O 4 , 7 2 4 2 3 $ 2 2 9 7 i 7 3 % - ",
"C k h N m v R $ $ S P N C J R I R { X.] } Q :.9 e #.R ^ T J ^ I T J J P J H R ] : ] b.w.d.y.w.d.f.z.j.y.q.<.*.:.p : ( H I ^ I c C ",
"z.m.M.z.k.b.b.k -.b.b.d.p.t.y.t.y.f.d.w.d.y.G.( ..D.t.t.y.w.d.y.y.w.w.w.t.d.z.M.4 y.K.4.%.4.8.<.:.*.X.X.%.:.y.G.J I F.b.d.f.z.j.M.",
"T ( ] R R X.#.& V ( ^ Q ^ I T R P R R H T T :.v i #.I R ] ^ R R ( ` ` ( ( / R I 2 ^ <.J H R R I ^ R P I I S R *.h s :.} ` ` ] ^ Q ",
"} ( ] ^ R T ( i N ( / ( } ` ] } / ..X./ R J X.N t X.R / X.} ( } Q ( ( / ( ] ( I h N Q I { ] ( } ( { } X.X.^ R ] k e R P R ] { ( X.",
"X.^ { ..} I J e v ` ] ^ ` ( ] ` R ( ] ( ( Q { N i { I R ] ] ` %.X.X.] / ( ] ] Q 2 m } R ( { } } ] X.} ` } } ] ] 9 t ^ ^ R ( { X.] ",
"{ Q ] ` X.} ^ s k ( ( ^ ] { X.X.X.} ` } #.+.} N h ] ] +.X.X.] X.{ ] ` ^ R I V z 3 N %.] } } ..` X.#.] I Q ( ^ R 2 s ( } ] ( / ` X.",
"J C J v N N c 3 4 z h z C V D P / I N v m c i & 2 z N P C S m v v v C J J C c h t 9 V C P C V N z c h s h k h h : 9 m I R ^ T T C ",
"2 3 h e 7 : , : : 3 $ & 2 O O - & & O O O % & & $ - & 2 $ 3 9 9 t 7 3 4 4 2 3 9 :   &   O   O O : - $ $ & O O : $ $ & : % & & 2 2 ",
"m *.{ ` } :.%.:.-.<.#...] +.d.v   ( y.7.8.*.I ] R ( ( T R I ^ v O J P v C N v v N V H R I Q R e O J m c J D I H J D J R ^ I D C v ",
"y.k.4.4.%.<.4.3.<.<.-.,.:.4.F.X.2 A.L.:.] w.f.w.w.w.y.w.d.y.b.y.D d.M.k.m.b.b.M.V.b.k.k.y.z.G.j.J j.f.d.z.t.y.8.y.w.8.8.8.w.d.c.} ",
"( T D / J I Q J J J P ^ T J #.z e { ^ H / ( ` ( / R R R ( R ..( s X.*.{ } ] ( ^ / ^ Q ( R ( -.X.v *.X.] X.] } ] / / ( ( ^ ( X.,.P ",
"I I P ] ] ( ] ^ ` ( ` } ( R ..k e { / ] X.^ ` / ` Q R T ^ I ( H i Q ^ R ] } ] / Q ^ ( X.] ^ } ( c ( T J / ( ] ( R ^ / ( ^ R ( } N ",
"R X.( R ] Q R R / ^ ^ R ^ ^ X.v 2 X.X.` / R } / ( ( ^ R ] ( ] N z ( ] ( ] ( ( R ..} ] ..` T Q I e J ^ ` X.X.} ] +.} ] ] ( ^ ^ / C ",
"N } ` I ..( ^ ^ R Q ( / ] ( ( s s I I ] *.....] ` ] ] ^ } { } v 9 J ] } ..} #.#.( ] ( ..X.{ } ( 9 D } X...} { X.X.} ] { ] ^ J D s ",
"9 m C N R I ^ I D D T R Q C m 4 4 N J H T ^ ^ T Q R R P R P R z , h v v k s h i i c z V J D D V 4 h S C m N V H N m N C C v f i 7 ",
", - : $ & % i 4 9 - , 2 4 % 2 - 4 2 2 , 4 2 : e 4 2 2 2 4 - 9 : & , % & : 2 2 $ : 9 : $ % O % O   O & $ $ & O   : $     O O % : & ",
"D T J J H N p O i C c h h e q e s 9 4 9 h q i 4 & 9 k s f z f v m C H D S S H J 4 e P I R ^ ( P D S D P I D z i   s N z z z c C V ",
"d.c.d.w.y.d.:.s :.b.j.8.t.d.j.y.f.d.d.j.c.4.4.#.z *.z.w.w.M.Z.A.M.M.M.b.z.z.m.Z.e ^ Z.A.b.y.8.4.f.p.w.8.8.8.q.8.2 :.Z.d.w.f.d.8.f.",
"( { ] ] { <.X.4 ^ 4.-.} X.*.:.#.-.*.*.-.q.8.M.V.9 ( 8.} ^ #...] X.} { } } { X.:.e R w.#.` R ^ { ^ ^ ( ` ] } #.:., *.j.} R X.%.} ] ",
"( ^ ( ] I / ( i D ( R R ^ I I ^ Q ^ R P R D ^ I z I } ^ ^ ( T Q ^ R Q ( ` / ( } e S ] J ^ ( ^ ^ R ^ / / ^ ^ ( ] % I X.T J ^ / ^ R ",
"..] } ..T ^ ] z J ] ( ] X.] ] X.( ] ] ( X.] X.^ v C Q ( } X.` #.} ` ( ] ] ( ^ ( e C ] T X.#.] ^ ` ( ^ ^ ^ / ( ] : D ( R ^ ( ` } #.",
"( ] ] ( R ] { f N } ] / { } } ` ] } ( R ( R Q N f D ] ( ( ] ^ ] { ` ^ ^ / ( ( ( e C } R ^ R R / ( ( ( ( ` ( R J % D ] I I ^ ( } } ",
":.:.X.} ] } ( z N ] ( R ( ( ( ^ J ( { ] #.` ^ z 7 m Q P J R H P R R T I R ` ] ^ e z } } } ( ] ] T T R T J m i 4   S X.} X.#.X.....",
"i 9 - 4 7 : 2 : % 9 4 q p 9 e s s k s 9 i t h 4 : 9 s i i e 2 7 4 e e 9 t h p 4 4 $ e e i i i 7 9 9 9 9 7 4 3 2 O i h t i i i z f ",
"2 h v V I D z C N i h f q q 2 $ &   % : & : 2 9 4 4 & : 2 & : 3 % e % $ 9 4 2 e q : 3 9 4 : i - , 4 - 9 i - $ 2 $ $ O $ 2 e 4 $ - ",
"z.M.b.z.M.c.j.c.z.c.m.j.w.y.+.9 : I ] P I R I T P ] ^ T ^ { ^ p : } 4.3.q.4.<.<.3.<.3.:.3.8.y.Q t <.q.%.*.<.7.*.:.-.#...%.4.q.7.t ",
"{ ` ^ R ^ / ( ( ` } ] ` ] 4.4.i i z.b.8.z.b.z.b.z.F.Z.j.d.m.d.J 9 *.p.8.3.-.*.#.X.X.#.] +.-.:.m v w.:.] +.+.-.} } X.X...+.:.4.4.9 ",
"T I R ^ Q ^ ( ^ R Q I ] T ^ X.e t 3.} I } R T R R Q / ( R } #.S i T I P ^ ^ ( ( ^ ^ ^ R ^ T ^ v v ..D P } T / ( Q ( ( ^ R R I J i ",
"R Q ] } ] ] { ] } { / +.^ J / p e ( I R { ^ } ] } ( / ` I T ^ v i H J I ` ] { ( ] } { ( { Q ^ N 2 ` ` ( } Q ] ` } } { ` ( ` ( ^ t ",
"P Q ( ( ( / ( ] Q ^ P R I P I e i ^ ( ( ^ Q ` J R Q R / ( { ( h e / +.} ( ` } ( ^ { ( I ` ^ P 9 - J ] ] ( ( ] } X...} } } ] Q I : ",
"R ] ( ( } ] ( X.X.*.#.X.} ^ z 2 7 C I I ^ ] ] ] ( } ^ R Q R C 9 7 D Q R J P ` ( ^ ] ( R ] R J i i p C J R ] ] X...} ] / T C k i 3 ",
"s v h s m z e f s s e 4 e 7 & 7 2 9 4 : s s 4 k q p 7 7 9 , 2 : : : & 7 9 2 7 9 i i i s k : 2 2 3 $ q : & e 2 : 4 , & % % & , 3 - ",
"e & % 2 O   :     2 & % 9 t s p e p p h i : h , $ e : i s t p h c s i s q 2 m - O O   - - 2 p 9 9 p t 9 2 3 e : , s m V S C c k s ",
"z.j.d.w.<.w.4.h H q.j.q.3.<.t.j.j.d.4.4.d.j.8.4 V 4.:.:.:.q.f.d.8.y.d.y.q.t.A.%.: ..-.} 4.w.w.y.w.t.3.<.:.<.4.} : +.G.G.b.b.m.M.z.",
"4.8.w.8.4.V.z.h z *.4.%.X.X.*.*.,.8.4.} ` *.7.s v <.#.( I ^ ` T ^ ] X.} ] } <.D 9 d.m.4.y.y.7.w.w.t.4.4.8.w.p.:.- R ,.} ^ ] +.+.#.",
"R J I T D ] } 3 h ^ ^ I ^ ( ( R R I / R I ^ ..e v { R ] ` ` ] ` ( R ^ ( ( T } D - I ( I P I Q R J R T R I R ] R p C I I ( { ^ I R ",
"#.( ( ] R ` { i z ( ] ` ] ^ ] X.#.^ ( / ` ] ` e C ] R } } / / ] X.( ] ] } / ] J t I R R / ( { X.^ ] ` ] ^ ^ { Q e C R ( } ..] / } ",
"( ^ R / ^ ( I : s T / ] { Q ( X.....#.Q R / ( z s ] ^ } ] } #.#.] { X.^ ( / R f 2 ] ( J } ` R } ] ( Q ( ( ( ] H p R ] R T ( ] ] ( ",
"X.X.] } ..( C : z ^ / ] #.X...} ( { X./ %.*.^ s V *.] ( I I I S P I ^ C J H m 7 $ T Q P ] / R ( ^ ^ R ( ` ( ] J 7 N R ^ { X.] / { ",
"m m h V D f 7 : $ z v z N C D C I I H f V c t 9 : z 4 t p s i 7 i 3 q 7 s t 9 3 : i c N s i z t e i s h i e i 4 , 4 p S R J S I C ",
"- 3 9 7 4 4 3 2 & O O : & : q & 7 e $ 3 2 & O 2 4 e e 4 7 O : : O - $ % $   % $ O     O O O O O : -   $ & & , : & 2 & & % $ 2 : 3 ",
"<.:.<.8.q.8.4.8.p.q.7.q.3.4.#.h 7 Q R ( #.8.8.8.t.w.w.<.<.,.:.v & N I R R I P C H D D J T ^ / ( 2 H R I T R / R R R D J T I H z 2 ",
"w.<.,.w.d.w.q.t.w.w.y.d.p.m.d.N T b.k.q.w.f.8.<.7.*.7.8.q.j.z.H R z.V.f.f.d.d.w.y.w.q.q.t.p.d.d.v 4.j.t.y.y.p.y.w.d.y.f.j.p.d.q.p ",
"Q J H I Q R I I J P R R D ( ` 4 i ..( ^ ^ ^ J ^ Q D T R R R ] k 9 } { J I ^ ( } / ^ R I I R I J i ( / R ( R R ] P / ^ ( / ^ } ] e ",
"( ] ] ( ( ] ] ( { ] } { R ( ] f e R J R ^ ( ^ #.{ } } ^ ` R ` J 4 ^ ( R ` ( ^ ] ] ] ] ] ] { ( I z { ( R ] ^ ^ } ] ] T Q ( ( / H e ",
"P ( { ( / } } ] } { ` } ] ( T t h ] ( ( R ^ Q R R } ` P ] ] ] D q T / ( ..` / ( ] } } { } ] R S 3 / } ^ ` ] ] ` } X.] } } ( Q D 2 ",
"H Q ] ] ] } ..} ( } R I R I m 4 t I ( } R ] X.( X.} } ( { ( ( z 9 C J I ^ ` +.+.X.X.X.] ] / H z 7 R ....} } X.] ( X.X.X.] ^ ( R e ",
"t s z V C V N C i V s 7 p k h e i C I ] C S I J J s v H N p m 4 2 z v h s v J C I I J S C N s 2 O 2 e k k i s p k z i p h h h e 7 ",
"2 2 & 2 4 : 2 : & 3 & : 4 : - $   & 4   % O O & : O   O   - e & : 4 9 2 : 2 3 , - 2 2 & 9 $   O $ $ % $ $ $ $ % 4   O $ : $ : O $ ",
"X.#.X.#.} ] Q h 9 ^ } { } ] { } Q ^ ^ R / R R e $ D ] ..*.,.8.8.y.8.,.%.*.:.+./ 4 / 7.X.*.:.4.4.<.:.-.%.#.-.4.w.t s { #.#...#.#.X.",
"M.V.M.b.d.d.4.N z t.b.y.d.p.p.d.z.z.j.b.M.b.G.( 9 w.z.8.y.8.4.y.w.8.<.<.w.f.y.4.h w.J.d.8.8.y.w.j.f.d.t.t.d.m.D.z H c.c.d.d.p.k.M.",
"T R ( } ` *.*.z 4 } } T ] ] ^ ^ R ^ ^ / ( ( *.C & ] { D R R J R I R R I I Q ^ R 2 T *.^ R J I I I T R T I R ( ] e e X.R J ( I ^ ^ ",
"} / ( ] T ^ / i e ( Q J { ] Q ( ( ] } R ` ^ ( ( 7 I ^ ^ } X.X.] ] } ..] ( ^ ( ( e H ] R } ` ] { ( ( ] ` ( ( ( ( v f } J J ] / ( ( ",
"^ T Q { ^ ^ ( v 9 Q / ^ ..( / } ] ` } T { ^ J R s P ( ` / ( X.( / / ( ( ] ` ^ R 4 J { I ] ] } ( { ] ` ( ( ( ^ ^ i p } ^ R { ] { ^ ",
"..} ` ] / R J f 4 T ] ] } ( ` } } { } ( } ( ` J i T ( ( ( ` +...%.#.+.#.+.} ^ P & S { I ] { X.{ ] ( ^ ^ ( ( R P 2 e ( ( / / ] ( } "
};
